DroidDevanagariRegular-Regular.ufo
<glyph name="exclam" format="1">
  <advance width="682"/>
  <unicode hex="0021"/>
  <outline>
    <contour>
      <point x="221" y="1462" type="line"/>
      <point x="459" y="1462" type="line"/>
      <point x="387" y="412" type="line"/>
      <point x="293" y="412" type="line"/>
    </contour>
    <contour>
      <point x="211" y="178"/>
      <point x="225" y="213"/>
      <point x="249" y="234" type="curve" smooth="yes"/>
      <point x="272" y="255"/>
      <point x="304" y="264"/>
      <point x="340" y="264" type="curve" smooth="yes"/>
      <point x="375" y="264"/>
      <point x="407" y="255"/>
      <point x="431" y="234" type="curve" smooth="yes"/>
      <point x="454" y="213"/>
      <point x="469" y="178"/>
      <point x="469" y="125" type="curve" smooth="yes"/>
      <point x="469" y="73"/>
      <point x="454" y="37"/>
      <point x="431" y="16" type="curve" smooth="yes"/>
      <point x="407" y="-5"/>
      <point x="375" y="-14"/>
      <point x="340" y="-14" type="curve" smooth="yes"/>
      <point x="304" y="-14"/>
      <point x="272" y="-5"/>
      <point x="249" y="16" type="curve" smooth="yes"/>
      <point x="225" y="37"/>
      <point x="211" y="73"/>
      <point x="211" y="125" type="curve" smooth="yes"/>
    </contour>
  </outline>
</glyph>
<glyph name="ampersand" format="1">
  <advance width="1520"/>
  <unicode hex="0026"/>
  <outline>
    <contour>
      <point x="1174" y="0" type="line"/>
      <point x="1004" y="180" type="line"/>
      <point x="955" y="124"/>
      <point x="896" y="74"/>
      <point x="824" y="38" type="curve" smooth="yes"/>
      <point x="752" y="2"/>
      <point x="665" y="-20"/>
      <point x="561" y="-20" type="curve" smooth="yes"/>
      <point x="397" y="-20"/>
      <point x="275" y="23"/>
      <point x="195" y="99" type="curve" smooth="yes"/>
      <point x="114" y="174"/>
      <point x="74" y="281"/>
      <point x="74" y="410" type="curve" smooth="yes"/>
      <point x="74" y="526"/>
      <point x="107" y="610"/>
      <point x="164" y="675" type="curve" smooth="yes"/>
      <point x="220" y="740"/>
      <point x="302" y="788"/>
      <point x="401" y="829" type="curve"/>
      <point x="349" y="890"/>
      <point x="310" y="946"/>
      <point x="284" y="1002" type="curve" smooth="yes"/>
      <point x="258" y="1058"/>
      <point x="244" y="1115"/>
      <point x="244" y="1182" type="curve" smooth="yes"/>
      <point x="244" y="1273"/>
      <point x="272" y="1347"/>
      <point x="335" y="1400" type="curve" smooth="yes"/>
      <point x="398" y="1453"/>
      <point x="495" y="1483"/>
      <point x="631" y="1483" type="curve" smooth="yes"/>
      <point x="762" y="1483"/>
      <point x="853" y="1450"/>
      <point x="911" y="1397" type="curve" smooth="yes"/>
      <point x="969" y="1344"/>
      <point x="993" y="1271"/>
      <point x="993" y="1192" type="curve" smooth="yes"/>
      <point x="993" y="1104"/>
      <point x="969" y="1038"/>
      <point x="914" y="981" type="curve" smooth="yes"/>
      <point x="858" y="924"/>
      <point x="772" y="874"/>
      <point x="647" y="821" type="curve"/>
      <point x="1020" y="426" type="line"/>
      <point x="1039" y="487"/>
      <point x="1050" y="552"/>
      <point x="1058" y="613" type="curve" smooth="yes"/>
      <point x="1065" y="673"/>
      <point x="1067" y="733"/>
      <point x="1067" y="782" type="curve" smooth="yes"/>
      <point x="1067" y="862" type="line"/>
      <point x="1436" y="862" type="line"/>
      <point x="1436" y="776" type="line"/>
      <point x="1417" y="776" type="line" smooth="yes"/>
      <point x="1372" y="776"/>
      <point x="1327" y="773"/>
      <point x="1289" y="754" type="curve" smooth="yes"/>
      <point x="1251" y="734"/>
      <point x="1219" y="700"/>
      <point x="1202" y="637" type="curve" smooth="yes"/>
      <point x="1178" y="549"/>
      <point x="1149" y="443"/>
      <point x="1102" y="340" type="curve"/>
      <point x="1292" y="137" type="line" smooth="yes"/>
      <point x="1312" y="117"/>
      <point x="1332" y="104"/>
      <point x="1361" y="96" type="curve" smooth="yes"/>
      <point x="1389" y="88"/>
      <point x="1427" y="86"/>
      <point x="1483" y="86" type="curve" smooth="yes"/>
      <point x="1501" y="86" type="line"/>
      <point x="1501" y="0" type="line"/>
    </contour>
    <contour>
      <point x="660" y="94"/>
      <point x="729" y="112"/>
      <point x="786" y="141" type="curve" smooth="yes"/>
      <point x="843" y="170"/>
      <point x="891" y="212"/>
      <point x="930" y="260" type="curve"/>
      <point x="477" y="745" type="line"/>
      <point x="414" y="710"/>
      <point x="364" y="670"/>
      <point x="329" y="615" type="curve" smooth="yes"/>
      <point x="293" y="559"/>
      <point x="274" y="491"/>
      <point x="274" y="403" type="curve" smooth="yes"/>
      <point x="274" y="303"/>
      <point x="305" y="226"/>
      <point x="359" y="174" type="curve" smooth="yes"/>
      <point x="413" y="121"/>
      <point x="488" y="94"/>
      <point x="580" y="94" type="curve" smooth="yes"/>
    </contour>
    <contour>
      <point x="813" y="1245"/>
      <point x="801" y="1293"/>
      <point x="771" y="1327" type="curve" smooth="yes"/>
      <point x="741" y="1361"/>
      <point x="692" y="1382"/>
      <point x="623" y="1382" type="curve" smooth="yes"/>
      <point x="502" y="1382"/>
      <point x="434" y="1305"/>
      <point x="434" y="1188" type="curve" smooth="yes"/>
      <point x="434" y="1136"/>
      <point x="444" y="1092"/>
      <point x="468" y="1048" type="curve" smooth="yes"/>
      <point x="491" y="1003"/>
      <point x="526" y="956"/>
      <point x="578" y="899" type="curve"/>
      <point x="658" y="934"/>
      <point x="717" y="972"/>
      <point x="756" y="1018" type="curve" smooth="yes"/>
      <point x="795" y="1064"/>
      <point x="813" y="1118"/>
      <point x="813" y="1190" type="curve" smooth="yes"/>
    </contour>
  </outline>
</glyph>
<glyph name="zero" format="1">
  <advance width="1145"/>
  <unicode hex="0030"/>
  <outline>
    <contour>
      <point x="1053" y="508"/>
      <point x="1014" y="319"/>
      <point x="934" y="187" type="curve" smooth="yes"/>
      <point x="854" y="55"/>
      <point x="734" y="-20"/>
      <point x="573" y="-20" type="curve" smooth="yes"/>
      <point x="405" y="-20"/>
      <point x="285" y="55"/>
      <point x="207" y="187" type="curve" smooth="yes"/>
      <point x="129" y="319"/>
      <point x="92" y="508"/>
      <point x="92" y="735" type="curve" smooth="yes"/>
      <point x="92" y="962"/>
      <point x="129" y="1148"/>
      <point x="207" y="1279" type="curve" smooth="yes"/>
      <point x="285" y="1410"/>
      <point x="406" y="1483"/>
      <point x="575" y="1483" type="curve" smooth="yes"/>
      <point x="735" y="1483"/>
      <point x="854" y="1410"/>
      <point x="934" y="1279" type="curve" smooth="yes"/>
      <point x="1014" y="1148"/>
      <point x="1053" y="961"/>
      <point x="1053" y="733" type="curve" smooth="yes"/>
    </contour>
    <contour>
      <point x="305" y="530"/>
      <point x="323" y="370"/>
      <point x="365" y="260" type="curve" smooth="yes"/>
      <point x="407" y="150"/>
      <point x="474" y="90"/>
      <point x="573" y="90" type="curve" smooth="yes"/>
      <point x="673" y="90"/>
      <point x="740" y="150"/>
      <point x="782" y="260" type="curve" smooth="yes"/>
      <point x="824" y="370"/>
      <point x="840" y="530"/>
      <point x="840" y="733" type="curve" smooth="yes"/>
      <point x="840" y="936"/>
      <point x="824" y="1096"/>
      <point x="782" y="1205" type="curve" smooth="yes"/>
      <point x="740" y="1314"/>
      <point x="674" y="1372"/>
      <point x="575" y="1372" type="curve" smooth="yes"/>
      <point x="475" y="1372"/>
      <point x="408" y="1314"/>
      <point x="365" y="1205" type="curve" smooth="yes"/>
      <point x="322" y="1096"/>
      <point x="305" y="936"/>
      <point x="305" y="733" type="curve" smooth="yes"/>
    </contour>
  </outline>
</glyph>
<glyph name="four" format="1">
  <advance width="1145"/>
  <unicode hex="0034"/>
  <outline>
    <contour>
      <point x="862" y="401" type="line"/>
      <point x="862" y="233" type="line" smooth="yes"/>
      <point x="862" y="169"/>
      <point x="882" y="132"/>
      <point x="912" y="112" type="curve" smooth="yes"/>
      <point x="942" y="91"/>
      <point x="985" y="86"/>
      <point x="1030" y="86" type="curve" smooth="yes"/>
      <point x="1057" y="86" type="line"/>
      <point x="1057" y="0" type="line"/>
      <point x="440" y="0" type="line"/>
      <point x="440" y="86" type="line"/>
      <point x="498" y="86" type="line" smooth="yes"/>
      <point x="545" y="86"/>
      <point x="587" y="91"/>
      <point x="617" y="112" type="curve" smooth="yes"/>
      <point x="647" y="132"/>
      <point x="666" y="169"/>
      <point x="666" y="233" type="curve" smooth="yes"/>
      <point x="666" y="401" type="line"/>
      <point x="35" y="401" type="line"/>
      <point x="35" y="485" type="line"/>
      <point x="668" y="1462" type="line"/>
      <point x="862" y="1462" type="line"/>
      <point x="862" y="516" type="line"/>
      <point x="1116" y="516" type="line"/>
      <point x="1116" y="401" type="line"/>
    </contour>
    <contour>
      <point x="666" y="895" type="line" smooth="yes"/>
      <point x="666" y="955"/>
      <point x="668" y="1029"/>
      <point x="670" y="1104" type="curve" smooth="yes"/>
      <point x="672" y="1179"/>
      <point x="675" y="1255"/>
      <point x="680" y="1319" type="curve"/>
      <point x="671" y="1300"/>
      <point x="653" y="1268"/>
      <point x="631" y="1229" type="curve" smooth="yes"/>
      <point x="609" y="1190"/>
      <point x="583" y="1146"/>
      <point x="559" y="1106" type="curve" smooth="yes"/>
      <point x="546" y="1085"/>
      <point x="535" y="1066"/>
      <point x="524" y="1049" type="curve" smooth="yes"/>
      <point x="513" y="1031"/>
      <point x="504" y="1016"/>
      <point x="496" y="1004" type="curve" smooth="yes"/>
      <point x="182" y="516" type="line"/>
      <point x="666" y="516" type="line"/>
    </contour>
  </outline>
</glyph>
<glyph name="eight" format="1">
  <advance width="1145"/>
  <unicode hex="0038"/>
  <outline>
    <contour>
      <point x="94" y="466"/>
      <point x="127" y="538"/>
      <point x="183" y="596" type="curve" smooth="yes"/>
      <point x="239" y="654"/>
      <point x="317" y="698"/>
      <point x="406" y="741" type="curve"/>
      <point x="329" y="785"/>
      <point x="262" y="836"/>
      <point x="215" y="897" type="curve" smooth="yes"/>
      <point x="168" y="958"/>
      <point x="141" y="1031"/>
      <point x="141" y="1116" type="curve" smooth="yes"/>
      <point x="141" y="1211"/>
      <point x="173" y="1302"/>
      <point x="244" y="1370" type="curve" smooth="yes"/>
      <point x="315" y="1438"/>
      <point x="427" y="1483"/>
      <point x="584" y="1483" type="curve" smooth="yes"/>
      <point x="712" y="1483"/>
      <point x="813" y="1446"/>
      <point x="882" y="1383" type="curve" smooth="yes"/>
      <point x="950" y="1320"/>
      <point x="987" y="1233"/>
      <point x="987" y="1130" type="curve" smooth="yes"/>
      <point x="987" y="1041"/>
      <point x="959" y="975"/>
      <point x="911" y="921" type="curve" smooth="yes"/>
      <point x="863" y="867"/>
      <point x="794" y="825"/>
      <point x="711" y="784" type="curve"/>
      <point x="812" y="736"/>
      <point x="897" y="682"/>
      <point x="957" y="618" type="curve" smooth="yes"/>
      <point x="1017" y="554"/>
      <point x="1051" y="480"/>
      <point x="1051" y="391" type="curve" smooth="yes"/>
      <point x="1051" y="262"/>
      <point x="1002" y="159"/>
      <point x="917" y="88" type="curve" smooth="yes"/>
      <point x="832" y="17"/>
      <point x="708" y="-20"/>
      <point x="559" y="-20" type="curve" smooth="yes"/>
      <point x="406" y="-20"/>
      <point x="290" y="23"/>
      <point x="212" y="93" type="curve" smooth="yes"/>
      <point x="134" y="163"/>
      <point x="94" y="259"/>
      <point x="94" y="367" type="curve" smooth="yes"/>
    </contour>
    <contour>
      <point x="658" y="74"/>
      <point x="732" y="103"/>
      <point x="784" y="151" type="curve" smooth="yes"/>
      <point x="835" y="199"/>
      <point x="864" y="267"/>
      <point x="864" y="346" type="curve" smooth="yes"/>
      <point x="864" y="415"/>
      <point x="840" y="473"/>
      <point x="783" y="529" type="curve" smooth="yes"/>
      <point x="726" y="584"/>
      <point x="636" y="635"/>
      <point x="504" y="692" type="curve"/>
      <point x="375" y="623"/>
      <point x="293" y="513"/>
      <point x="293" y="358" type="curve" smooth="yes"/>
      <point x="293" y="273"/>
      <point x="317" y="203"/>
      <point x="363" y="153" type="curve" smooth="yes"/>
      <point x="409" y="103"/>
      <point x="478" y="74"/>
      <point x="569" y="74" type="curve" smooth="yes"/>
    </contour>
    <contour>
      <point x="805" y="1198"/>
      <point x="789" y="1260"/>
      <point x="753" y="1308" type="curve" smooth="yes"/>
      <point x="716" y="1355"/>
      <point x="658" y="1386"/>
      <point x="571" y="1386" type="curve" smooth="yes"/>
      <point x="495" y="1386"/>
      <point x="435" y="1360"/>
      <point x="395" y="1317" type="curve" smooth="yes"/>
      <point x="355" y="1273"/>
      <point x="334" y="1212"/>
      <point x="334" y="1141" type="curve" smooth="yes"/>
      <point x="334" y="1068"/>
      <point x="358" y="1010"/>
      <point x="404" y="962" type="curve" smooth="yes"/>
      <point x="450" y="914"/>
      <point x="519" y="874"/>
      <point x="610" y="831" type="curve"/>
      <point x="687" y="870"/>
      <point x="736" y="909"/>
      <point x="765" y="958" type="curve" smooth="yes"/>
      <point x="794" y="1006"/>
      <point x="805" y="1063"/>
      <point x="805" y="1135" type="curve" smooth="yes"/>
    </contour>
  </outline>
</glyph>
<glyph name="nine" format="1">
  <advance width="1145"/>
  <unicode hex="0039"/>
  <outline>
    <contour>
      <point x="694" y="90"/>
      <point x="796" y="291"/>
      <point x="809" y="702" type="curve"/>
      <point x="780" y="666"/>
      <point x="741" y="632"/>
      <point x="691" y="606" type="curve" smooth="yes"/>
      <point x="641" y="580"/>
      <point x="580" y="563"/>
      <point x="508" y="563" type="curve" smooth="yes"/>
      <point x="389" y="563"/>
      <point x="288" y="598"/>
      <point x="217" y="667" type="curve" smooth="yes"/>
      <point x="145" y="736"/>
      <point x="104" y="840"/>
      <point x="104" y="979" type="curve" smooth="yes"/>
      <point x="104" y="1127"/>
      <point x="145" y="1253"/>
      <point x="221" y="1342" type="curve" smooth="yes"/>
      <point x="296" y="1430"/>
      <point x="406" y="1483"/>
      <point x="543" y="1483" type="curve" smooth="yes"/>
      <point x="682" y="1483"/>
      <point x="800" y="1431"/>
      <point x="885" y="1319" type="curve" smooth="yes"/>
      <point x="970" y="1207"/>
      <point x="1020" y="1035"/>
      <point x="1020" y="795" type="curve" smooth="yes"/>
      <point x="1020" y="652"/>
      <point x="1003" y="513"/>
      <point x="965" y="392" type="curve" smooth="yes"/>
      <point x="927" y="271"/>
      <point x="868" y="168"/>
      <point x="786" y="94" type="curve" smooth="yes"/>
      <point x="704" y="20"/>
      <point x="597" y="-23"/>
      <point x="465" y="-23" type="curve" smooth="yes"/>
      <point x="349" y="-23"/>
      <point x="274" y="0"/>
      <point x="230" y="33" type="curve" smooth="yes"/>
      <point x="185" y="66"/>
      <point x="168" y="111"/>
      <point x="168" y="154" type="curve" smooth="yes"/>
      <point x="168" y="205"/>
      <point x="198" y="241"/>
      <point x="229" y="252" type="curve"/>
      <point x="248" y="209"/>
      <point x="274" y="169"/>
      <point x="314" y="139" type="curve" smooth="yes"/>
      <point x="353" y="109"/>
      <point x="403" y="90"/>
      <point x="467" y="90" type="curve" smooth="yes"/>
    </contour>
    <contour>
      <point x="620" y="685"/>
      <point x="675" y="705"/>
      <point x="718" y="735" type="curve" smooth="yes"/>
      <point x="761" y="765"/>
      <point x="792" y="806"/>
      <point x="811" y="850" type="curve"/>
      <point x="811" y="854" type="line"/>
      <point x="808" y="1034"/>
      <point x="781" y="1163"/>
      <point x="734" y="1247" type="curve" smooth="yes"/>
      <point x="687" y="1331"/>
      <point x="622" y="1370"/>
      <point x="543" y="1370" type="curve" smooth="yes"/>
      <point x="398" y="1370"/>
      <point x="315" y="1240"/>
      <point x="315" y="999" type="curve" smooth="yes"/>
      <point x="315" y="887"/>
      <point x="335" y="808"/>
      <point x="375" y="757" type="curve" smooth="yes"/>
      <point x="415" y="706"/>
      <point x="474" y="684"/>
      <point x="553" y="684" type="curve" smooth="yes"/>
    </contour>
  </outline>
</glyph>
<glyph name="semicolon" format="1">
  <advance width="512"/>
  <unicode hex="003B"/>
  <outline>
    <contour>
      <point x="397" y="-1"/>
      <point x="375" y="-84"/>
      <point x="321" y="-153" type="curve" smooth="yes"/>
      <point x="267" y="-222"/>
      <point x="184" y="-279"/>
      <point x="61" y="-315" type="curve"/>
      <point x="61" y="-229" type="line"/>
      <point x="196" y="-186"/>
      <point x="256" y="-125"/>
      <point x="256" y="-45" type="curve" smooth="yes"/>
      <point x="256" y="-18"/>
      <point x="240" y="-1"/>
      <point x="217" y="13" type="curve" smooth="yes"/>
      <point x="206" y="20"/>
      <point x="194" y="26"/>
      <point x="181" y="33" type="curve" smooth="yes"/>
      <point x="156" y="46"/>
      <point x="132" y="64"/>
      <point x="117" y="92" type="curve" smooth="yes"/>
      <point x="110" y="105"/>
      <point x="106" y="122"/>
      <point x="106" y="143" type="curve" smooth="yes"/>
      <point x="106" y="222"/>
      <point x="164" y="264"/>
      <point x="240" y="264" type="curve" smooth="yes"/>
      <point x="283" y="264"/>
      <point x="321" y="249"/>
      <point x="350" y="219" type="curve" smooth="yes"/>
      <point x="379" y="189"/>
      <point x="397" y="143"/>
      <point x="397" y="86" type="curve" smooth="yes"/>
    </contour>
    <contour>
      <point x="129" y="1022"/>
      <point x="143" y="1057"/>
      <point x="167" y="1078" type="curve" smooth="yes"/>
      <point x="190" y="1099"/>
      <point x="222" y="1108"/>
      <point x="258" y="1108" type="curve" smooth="yes"/>
      <point x="293" y="1108"/>
      <point x="325" y="1099"/>
      <point x="349" y="1078" type="curve" smooth="yes"/>
      <point x="372" y="1057"/>
      <point x="387" y="1022"/>
      <point x="387" y="969" type="curve" smooth="yes"/>
      <point x="387" y="917"/>
      <point x="372" y="882"/>
      <point x="349" y="860" type="curve" smooth="yes"/>
      <point x="325" y="838"/>
      <point x="293" y="829"/>
      <point x="258" y="829" type="curve" smooth="yes"/>
      <point x="222" y="829"/>
      <point x="190" y="838"/>
      <point x="167" y="860" type="curve" smooth="yes"/>
      <point x="143" y="882"/>
      <point x="129" y="917"/>
      <point x="129" y="969" type="curve" smooth="yes"/>
    </contour>
  </outline>
</glyph>
<glyph name="B" format="1">
  <advance width="1339"/>
  <unicode hex="0042"/>
  <outline>
    <contour>
      <point x="1153" y="1004"/>
      <point x="1125" y="936"/>
      <point x="1080" y="884" type="curve" smooth="yes"/>
      <point x="1035" y="832"/>
      <point x="971" y="798"/>
      <point x="899" y="774" type="curve"/>
      <point x="899" y="766" type="line"/>
      <point x="992" y="750"/>
      <point x="1071" y="712"/>
      <point x="1127" y="650" type="curve" smooth="yes"/>
      <point x="1182" y="588"/>
      <point x="1214" y="503"/>
      <point x="1214" y="395" type="curve" smooth="yes"/>
      <point x="1214" y="131"/>
      <point x="1043" y="0"/>
      <point x="688" y="0" type="curve" smooth="yes"/>
      <point x="78" y="0" type="line"/>
      <point x="78" y="86" type="line"/>
      <point x="104" y="86" type="line" smooth="yes"/>
      <point x="151" y="86"/>
      <point x="192" y="91"/>
      <point x="223" y="112" type="curve" smooth="yes"/>
      <point x="254" y="132"/>
      <point x="272" y="169"/>
      <point x="272" y="233" type="curve" smooth="yes"/>
      <point x="272" y="1237" type="line" smooth="yes"/>
      <point x="272" y="1297"/>
      <point x="253" y="1332"/>
      <point x="222" y="1352" type="curve" smooth="yes"/>
      <point x="191" y="1372"/>
      <point x="149" y="1376"/>
      <point x="104" y="1376" type="curve" smooth="yes"/>
      <point x="78" y="1376" type="line"/>
      <point x="78" y="1462" type="line"/>
      <point x="627" y="1462" type="line" smooth="yes"/>
      <point x="982" y="1462"/>
      <point x="1153" y="1348"/>
      <point x="1153" y="1096" type="curve" smooth="yes"/>
    </contour>
    <contour>
      <point x="479" y="102" type="line"/>
      <point x="678" y="102" type="line" smooth="yes"/>
      <point x="794" y="102"/>
      <point x="872" y="122"/>
      <point x="923" y="170" type="curve" smooth="yes"/>
      <point x="974" y="217"/>
      <point x="995" y="292"/>
      <point x="995" y="401" type="curve" smooth="yes"/>
      <point x="995" y="508"/>
      <point x="977" y="586"/>
      <point x="929" y="638" type="curve" smooth="yes"/>
      <point x="880" y="690"/>
      <point x="802" y="715"/>
      <point x="682" y="715" type="curve" smooth="yes"/>
      <point x="479" y="715" type="line"/>
    </contour>
    <contour>
      <point x="479" y="817" type="line"/>
      <point x="621" y="817" type="line" smooth="yes"/>
      <point x="741" y="817"/>
      <point x="819" y="838"/>
      <point x="867" y="883" type="curve" smooth="yes"/>
      <point x="915" y="927"/>
      <point x="934" y="997"/>
      <point x="934" y="1096" type="curve" smooth="yes"/>
      <point x="934" y="1196"/>
      <point x="913" y="1262"/>
      <point x="862" y="1303" type="curve" smooth="yes"/>
      <point x="811" y="1344"/>
      <point x="732" y="1360"/>
      <point x="616" y="1360" type="curve" smooth="yes"/>
      <point x="479" y="1360" type="line"/>
    </contour>
  </outline>
</glyph>
<glyph name="C" format="1">
  <advance width="1257"/>
  <unicode hex="0043"/>
  <outline>
    <contour>
      <point x="914" y="1483"/>
      <point x="1017" y="1458"/>
      <point x="1086" y="1417" type="curve" smooth="yes"/>
      <point x="1154" y="1376"/>
      <point x="1188" y="1318"/>
      <point x="1188" y="1253" type="curve" smooth="yes"/>
      <point x="1188" y="1209"/>
      <point x="1169" y="1173"/>
      <point x="1137" y="1149" type="curve" smooth="yes"/>
      <point x="1105" y="1124"/>
      <point x="1061" y="1110"/>
      <point x="1010" y="1110" type="curve"/>
      <point x="1010" y="1174"/>
      <point x="995" y="1240"/>
      <point x="957" y="1290" type="curve" smooth="yes"/>
      <point x="919" y="1340"/>
      <point x="859" y="1374"/>
      <point x="770" y="1374" type="curve" smooth="yes"/>
      <point x="615" y="1374"/>
      <point x="509" y="1316"/>
      <point x="441" y="1208" type="curve" smooth="yes"/>
      <point x="373" y="1099"/>
      <point x="344" y="938"/>
      <point x="344" y="733" type="curve" smooth="yes"/>
      <point x="344" y="550"/>
      <point x="375" y="395"/>
      <point x="444" y="287" type="curve" smooth="yes"/>
      <point x="513" y="178"/>
      <point x="619" y="115"/>
      <point x="770" y="115" type="curve" smooth="yes"/>
      <point x="870" y="115"/>
      <point x="945" y="136"/>
      <point x="1004" y="168" type="curve" smooth="yes"/>
      <point x="1063" y="200"/>
      <point x="1106" y="244"/>
      <point x="1141" y="289" type="curve"/>
      <point x="1164" y="274"/>
      <point x="1180" y="250"/>
      <point x="1180" y="209" type="curve" smooth="yes"/>
      <point x="1180" y="157"/>
      <point x="1145" y="100"/>
      <point x="1073" y="56" type="curve" smooth="yes"/>
      <point x="1001" y="12"/>
      <point x="891" y="-20"/>
      <point x="739" y="-20" type="curve" smooth="yes"/>
      <point x="535" y="-20"/>
      <point x="380" y="55"/>
      <point x="276" y="187" type="curve" smooth="yes"/>
      <point x="171" y="319"/>
      <point x="117" y="508"/>
      <point x="117" y="733" type="curve" smooth="yes"/>
      <point x="117" y="954"/>
      <point x="174" y="1142"/>
      <point x="284" y="1274" type="curve" smooth="yes"/>
      <point x="394" y="1406"/>
      <point x="558" y="1483"/>
      <point x="774" y="1483" type="curve" smooth="yes"/>
    </contour>
  </outline>
</glyph>
<glyph name="E" format="1">
  <advance width="1276"/>
  <unicode hex="0045"/>
  <outline>
    <contour>
      <point x="479" y="102" type="line"/>
      <point x="874" y="102" type="line" smooth="yes"/>
      <point x="939" y="102"/>
      <point x="984" y="121"/>
      <point x="1015" y="152" type="curve" smooth="yes"/>
      <point x="1046" y="183"/>
      <point x="1062" y="225"/>
      <point x="1069" y="270" type="curve" smooth="yes"/>
      <point x="1083" y="358" type="line"/>
      <point x="1190" y="358" type="line"/>
      <point x="1176" y="0" type="line"/>
      <point x="78" y="0" type="line"/>
      <point x="78" y="86" type="line"/>
      <point x="104" y="86" type="line" smooth="yes"/>
      <point x="149" y="86"/>
      <point x="191" y="90"/>
      <point x="222" y="109" type="curve" smooth="yes"/>
      <point x="253" y="128"/>
      <point x="272" y="163"/>
      <point x="272" y="223" type="curve" smooth="yes"/>
      <point x="272" y="1229" type="line" smooth="yes"/>
      <point x="272" y="1293"/>
      <point x="254" y="1330"/>
      <point x="223" y="1351" type="curve" smooth="yes"/>
      <point x="192" y="1371"/>
      <point x="151" y="1376"/>
      <point x="104" y="1376" type="curve" smooth="yes"/>
      <point x="78" y="1376" type="line"/>
      <point x="78" y="1462" type="line"/>
      <point x="1110" y="1462" type="line"/>
      <point x="1120" y="1104" type="line"/>
      <point x="1014" y="1104" type="line"/>
      <point x="1004" y="1192" type="line" smooth="yes"/>
      <point x="999" y="1237"/>
      <point x="984" y="1279"/>
      <point x="956" y="1310" type="curve" smooth="yes"/>
      <point x="927" y="1341"/>
      <point x="884" y="1360"/>
      <point x="823" y="1360" type="curve" smooth="yes"/>
      <point x="479" y="1360" type="line"/>
      <point x="479" y="815" type="line"/>
      <point x="973" y="815" type="line"/>
      <point x="973" y="715" type="line"/>
      <point x="479" y="715" type="line"/>
    </contour>
  </outline>
</glyph>
<glyph name="F" format="1">
  <advance width="1208"/>
  <unicode hex="0046"/>
  <outline>
    <contour>
      <point x="479" y="1360" type="line"/>
      <point x="479" y="768" type="line"/>
      <point x="973" y="768" type="line"/>
      <point x="973" y="668" type="line"/>
      <point x="479" y="668" type="line"/>
      <point x="479" y="233" type="line" smooth="yes"/>
      <point x="479" y="169"/>
      <point x="499" y="132"/>
      <point x="529" y="112" type="curve" smooth="yes"/>
      <point x="559" y="91"/>
      <point x="602" y="86"/>
      <point x="647" y="86" type="curve" smooth="yes"/>
      <point x="715" y="86" type="line"/>
      <point x="715" y="0" type="line"/>
      <point x="78" y="0" type="line"/>
      <point x="78" y="86" type="line"/>
      <point x="104" y="86" type="line" smooth="yes"/>
      <point x="149" y="86"/>
      <point x="191" y="90"/>
      <point x="222" y="109" type="curve" smooth="yes"/>
      <point x="253" y="128"/>
      <point x="272" y="163"/>
      <point x="272" y="223" type="curve" smooth="yes"/>
      <point x="272" y="1237" type="line" smooth="yes"/>
      <point x="272" y="1297"/>
      <point x="253" y="1332"/>
      <point x="222" y="1352" type="curve" smooth="yes"/>
      <point x="191" y="1372"/>
      <point x="149" y="1376"/>
      <point x="104" y="1376" type="curve" smooth="yes"/>
      <point x="78" y="1376" type="line"/>
      <point x="78" y="1462" type="line"/>
      <point x="1110" y="1462" type="line"/>
      <point x="1120" y="1104" type="line"/>
      <point x="1014" y="1104" type="line"/>
      <point x="1004" y="1192" type="line" smooth="yes"/>
      <point x="999" y="1239"/>
      <point x="984" y="1281"/>
      <point x="954" y="1311" type="curve" smooth="yes"/>
      <point x="924" y="1341"/>
      <point x="879" y="1360"/>
      <point x="815" y="1360" type="curve" smooth="yes"/>
    </contour>
  </outline>
</glyph>
<glyph name="G" format="1">
  <advance width="1462"/>
  <unicode hex="0047"/>
  <outline>
    <contour>
      <point x="584" y="-20"/>
      <point x="407" y="55"/>
      <point x="291" y="187" type="curve" smooth="yes"/>
      <point x="174" y="319"/>
      <point x="117" y="508"/>
      <point x="117" y="733" type="curve" smooth="yes"/>
      <point x="117" y="954"/>
      <point x="178" y="1142"/>
      <point x="299" y="1274" type="curve" smooth="yes"/>
      <point x="419" y="1406"/>
      <point x="598" y="1483"/>
      <point x="834" y="1483" type="curve" smooth="yes"/>
      <point x="986" y="1483"/>
      <point x="1098" y="1458"/>
      <point x="1174" y="1417" type="curve" smooth="yes"/>
      <point x="1249" y="1376"/>
      <point x="1286" y="1318"/>
      <point x="1286" y="1253" type="curve" smooth="yes"/>
      <point x="1286" y="1209"/>
      <point x="1265" y="1173"/>
      <point x="1231" y="1149" type="curve" smooth="yes"/>
      <point x="1197" y="1124"/>
      <point x="1149" y="1110"/>
      <point x="1096" y="1110" type="curve"/>
      <point x="1096" y="1174"/>
      <point x="1079" y="1240"/>
      <point x="1036" y="1290" type="curve" smooth="yes"/>
      <point x="993" y="1340"/>
      <point x="925" y="1374"/>
      <point x="825" y="1374" type="curve" smooth="yes"/>
      <point x="652" y="1374"/>
      <point x="531" y="1316"/>
      <point x="454" y="1208" type="curve" smooth="yes"/>
      <point x="377" y="1099"/>
      <point x="344" y="938"/>
      <point x="344" y="733" type="curve" smooth="yes"/>
      <point x="344" y="529"/>
      <point x="378" y="369"/>
      <point x="459" y="261" type="curve" smooth="yes"/>
      <point x="540" y="153"/>
      <point x="667" y="96"/>
      <point x="854" y="96" type="curve" smooth="yes"/>
      <point x="933" y="96"/>
      <point x="1010" y="104"/>
      <point x="1067" y="121" type="curve"/>
      <point x="1067" y="451" type="line" smooth="yes"/>
      <point x="1067" y="511"/>
      <point x="1048" y="546"/>
      <point x="1017" y="566" type="curve" smooth="yes"/>
      <point x="986" y="585"/>
      <point x="944" y="590"/>
      <point x="899" y="590" type="curve" smooth="yes"/>
      <point x="891" y="590" type="line"/>
      <point x="891" y="676" type="line"/>
      <point x="1423" y="676" type="line"/>
      <point x="1423" y="590" type="line"/>
      <point x="1415" y="590" type="line" smooth="yes"/>
      <point x="1376" y="590"/>
      <point x="1340" y="585"/>
      <point x="1315" y="565" type="curve" smooth="yes"/>
      <point x="1290" y="544"/>
      <point x="1274" y="506"/>
      <point x="1274" y="442" type="curve" smooth="yes"/>
      <point x="1274" y="74" type="line"/>
      <point x="1137" y="10"/>
      <point x="997" y="-20"/>
      <point x="821" y="-20" type="curve" smooth="yes"/>
    </contour>
  </outline>
</glyph>
<glyph name="H" format="1">
  <advance width="1624"/>
  <unicode hex="0048"/>
  <outline>
    <contour>
      <point x="950" y="0" type="line"/>
      <point x="950" y="86" type="line"/>
      <point x="977" y="86" type="line" smooth="yes"/>
      <point x="1024" y="86"/>
      <point x="1066" y="91"/>
      <point x="1096" y="112" type="curve" smooth="yes"/>
      <point x="1126" y="132"/>
      <point x="1145" y="169"/>
      <point x="1145" y="233" type="curve" smooth="yes"/>
      <point x="1145" y="713" type="line"/>
      <point x="479" y="713" type="line"/>
      <point x="479" y="233" type="line" smooth="yes"/>
      <point x="479" y="169"/>
      <point x="499" y="132"/>
      <point x="529" y="112" type="curve" smooth="yes"/>
      <point x="559" y="91"/>
      <point x="602" y="86"/>
      <point x="647" y="86" type="curve" smooth="yes"/>
      <point x="674" y="86" type="line"/>
      <point x="674" y="0" type="line"/>
      <point x="78" y="0" type="line"/>
      <point x="78" y="86" type="line"/>
      <point x="104" y="86" type="line" smooth="yes"/>
      <point x="151" y="86"/>
      <point x="192" y="91"/>
      <point x="223" y="112" type="curve" smooth="yes"/>
      <point x="254" y="132"/>
      <point x="272" y="169"/>
      <point x="272" y="233" type="curve" smooth="yes"/>
      <point x="272" y="1237" type="line" smooth="yes"/>
      <point x="272" y="1297"/>
      <point x="253" y="1332"/>
      <point x="222" y="1352" type="curve" smooth="yes"/>
      <point x="191" y="1372"/>
      <point x="149" y="1376"/>
      <point x="104" y="1376" type="curve" smooth="yes"/>
      <point x="78" y="1376" type="line"/>
      <point x="78" y="1462" type="line"/>
      <point x="674" y="1462" type="line"/>
      <point x="674" y="1376" type="line"/>
      <point x="647" y="1376" type="line" smooth="yes"/>
      <point x="602" y="1376"/>
      <point x="559" y="1371"/>
      <point x="529" y="1351" type="curve" smooth="yes"/>
      <point x="499" y="1330"/>
      <point x="479" y="1293"/>
      <point x="479" y="1229" type="curve" smooth="yes"/>
      <point x="479" y="815" type="line"/>
      <point x="1145" y="815" type="line"/>
      <point x="1145" y="1229" type="line" smooth="yes"/>
      <point x="1145" y="1293"/>
      <point x="1126" y="1330"/>
      <point x="1096" y="1351" type="curve" smooth="yes"/>
      <point x="1066" y="1371"/>
      <point x="1024" y="1376"/>
      <point x="977" y="1376" type="curve" smooth="yes"/>
      <point x="950" y="1376" type="line"/>
      <point x="950" y="1462" type="line"/>
      <point x="1546" y="1462" type="line"/>
      <point x="1546" y="1376" type="line"/>
      <point x="1520" y="1376" type="line" smooth="yes"/>
      <point x="1473" y="1376"/>
      <point x="1432" y="1371"/>
      <point x="1401" y="1351" type="curve" smooth="yes"/>
      <point x="1370" y="1330"/>
      <point x="1352" y="1293"/>
      <point x="1352" y="1229" type="curve" smooth="yes"/>
      <point x="1352" y="223" type="line" smooth="yes"/>
      <point x="1352" y="163"/>
      <point x="1371" y="128"/>
      <point x="1402" y="109" type="curve" smooth="yes"/>
      <point x="1433" y="90"/>
      <point x="1475" y="86"/>
      <point x="1520" y="86" type="curve" smooth="yes"/>
      <point x="1546" y="86" type="line"/>
      <point x="1546" y="0" type="line"/>
    </contour>
  </outline>
</glyph>
<glyph name="I" format="1">
  <advance width="752"/>
  <unicode hex="0049"/>
  <outline>
    <contour>
      <point x="78" y="0" type="line"/>
      <point x="78" y="86" type="line"/>
      <point x="104" y="86" type="line" smooth="yes"/>
      <point x="151" y="86"/>
      <point x="192" y="91"/>
      <point x="223" y="112" type="curve" smooth="yes"/>
      <point x="254" y="132"/>
      <point x="272" y="169"/>
      <point x="272" y="233" type="curve" smooth="yes"/>
      <point x="272" y="1229" type="line" smooth="yes"/>
      <point x="272" y="1293"/>
      <point x="254" y="1330"/>
      <point x="223" y="1351" type="curve" smooth="yes"/>
      <point x="192" y="1371"/>
      <point x="151" y="1376"/>
      <point x="104" y="1376" type="curve" smooth="yes"/>
      <point x="78" y="1376" type="line"/>
      <point x="78" y="1462" type="line"/>
      <point x="674" y="1462" type="line"/>
      <point x="674" y="1376" type="line"/>
      <point x="647" y="1376" type="line" smooth="yes"/>
      <point x="602" y="1376"/>
      <point x="559" y="1371"/>
      <point x="529" y="1351" type="curve" smooth="yes"/>
      <point x="499" y="1330"/>
      <point x="479" y="1293"/>
      <point x="479" y="1229" type="curve" smooth="yes"/>
      <point x="479" y="233" type="line" smooth="yes"/>
      <point x="479" y="169"/>
      <point x="499" y="132"/>
      <point x="529" y="112" type="curve" smooth="yes"/>
      <point x="559" y="91"/>
      <point x="602" y="86"/>
      <point x="647" y="86" type="curve" smooth="yes"/>
      <point x="674" y="86" type="line"/>
      <point x="674" y="0" type="line"/>
    </contour>
  </outline>
</glyph>
<glyph name="J" format="1">
  <advance width="731"/>
  <unicode hex="004A"/>
  <outline>
    <contour>
      <point x="-23" y="-395" type="line"/>
      <point x="-4" y="-395" type="line" smooth="yes"/>
      <point x="84" y="-395"/>
      <point x="153" y="-372"/>
      <point x="200" y="-314" type="curve" smooth="yes"/>
      <point x="247" y="-256"/>
      <point x="272" y="-162"/>
      <point x="272" y="-18" type="curve" smooth="yes"/>
      <point x="272" y="1237" type="line" smooth="yes"/>
      <point x="272" y="1297"/>
      <point x="253" y="1332"/>
      <point x="222" y="1352" type="curve" smooth="yes"/>
      <point x="191" y="1372"/>
      <point x="149" y="1376"/>
      <point x="104" y="1376" type="curve" smooth="yes"/>
      <point x="78" y="1376" type="line"/>
      <point x="78" y="1462" type="line"/>
      <point x="674" y="1462" type="line"/>
      <point x="674" y="1376" type="line"/>
      <point x="647" y="1376" type="line" smooth="yes"/>
      <point x="602" y="1376"/>
      <point x="559" y="1371"/>
      <point x="529" y="1351" type="curve" smooth="yes"/>
      <point x="499" y="1330"/>
      <point x="479" y="1293"/>
      <point x="479" y="1229" type="curve" smooth="yes"/>
      <point x="479" y="-16" type="line" smooth="yes"/>
      <point x="479" y="-200"/>
      <point x="428" y="-319"/>
      <point x="344" y="-391" type="curve" smooth="yes"/>
      <point x="260" y="-464"/>
      <point x="143" y="-492"/>
      <point x="12" y="-492" type="curve" smooth="yes"/>
      <point x="-23" y="-492" type="line"/>
    </contour>
  </outline>
</glyph>
<glyph name="K" format="1">
  <advance width="1434"/>
  <unicode hex="004B"/>
  <outline>
    <contour>
      <point x="903" y="1137" type="line" smooth="yes"/>
      <point x="947" y="1188"/>
      <point x="976" y="1226"/>
      <point x="993" y="1258" type="curve" smooth="yes"/>
      <point x="1009" y="1290"/>
      <point x="1016" y="1313"/>
      <point x="1016" y="1333" type="curve" smooth="yes"/>
      <point x="1016" y="1350"/>
      <point x="1008" y="1362"/>
      <point x="991" y="1369" type="curve"/>
      <point x="974" y="1375"/>
      <point x="949" y="1378"/>
      <point x="915" y="1378" type="curve"/>
      <point x="915" y="1462" type="line"/>
      <point x="1368" y="1462" type="line"/>
      <point x="1368" y="1378" type="line"/>
      <point x="1321" y="1378"/>
      <point x="1279" y="1359"/>
      <point x="1236" y="1327" type="curve" smooth="yes"/>
      <point x="1192" y="1294"/>
      <point x="1147" y="1246"/>
      <point x="1094" y="1186" type="curve" smooth="yes"/>
      <point x="797" y="852" type="line"/>
      <point x="1229" y="250" type="line" smooth="yes"/>
      <point x="1308" y="142"/>
      <point x="1378" y="86"/>
      <point x="1454" y="86" type="curve" smooth="yes"/>
      <point x="1458" y="86" type="line"/>
      <point x="1458" y="0" type="line"/>
      <point x="1436" y="0" type="line" smooth="yes"/>
      <point x="1299" y="0"/>
      <point x="1216" y="9"/>
      <point x="1156" y="37" type="curve" smooth="yes"/>
      <point x="1096" y="65"/>
      <point x="1057" y="111"/>
      <point x="1006" y="184" type="curve" smooth="yes"/>
      <point x="653" y="690" type="line"/>
      <point x="479" y="549" type="line"/>
      <point x="479" y="233" type="line" smooth="yes"/>
      <point x="479" y="169"/>
      <point x="499" y="132"/>
      <point x="529" y="112" type="curve" smooth="yes"/>
      <point x="559" y="91"/>
      <point x="602" y="86"/>
      <point x="647" y="86" type="curve" smooth="yes"/>
      <point x="674" y="86" type="line"/>
      <point x="674" y="0" type="line"/>
      <point x="78" y="0" type="line"/>
      <point x="78" y="86" type="line"/>
      <point x="104" y="86" type="line" smooth="yes"/>
      <point x="149" y="86"/>
      <point x="191" y="90"/>
      <point x="222" y="109" type="curve" smooth="yes"/>
      <point x="253" y="128"/>
      <point x="272" y="163"/>
      <point x="272" y="223" type="curve" smooth="yes"/>
      <point x="272" y="1237" type="line" smooth="yes"/>
      <point x="272" y="1297"/>
      <point x="253" y="1332"/>
      <point x="222" y="1352" type="curve" smooth="yes"/>
      <point x="191" y="1372"/>
      <point x="149" y="1376"/>
      <point x="104" y="1376" type="curve" smooth="yes"/>
      <point x="78" y="1376" type="line"/>
      <point x="78" y="1462" type="line"/>
      <point x="674" y="1462" type="line"/>
      <point x="674" y="1376" type="line"/>
      <point x="647" y="1376" type="line" smooth="yes"/>
      <point x="602" y="1376"/>
      <point x="559" y="1371"/>
      <point x="529" y="1351" type="curve" smooth="yes"/>
      <point x="499" y="1330"/>
      <point x="479" y="1293"/>
      <point x="479" y="1229" type="curve" smooth="yes"/>
      <point x="479" y="651" type="line"/>
    </contour>
  </outline>
</glyph>
<glyph name="L" format="1">
  <advance width="1276"/>
  <unicode hex="004C"/>
  <outline>
    <contour>
      <point x="78" y="0" type="line"/>
      <point x="78" y="86" type="line"/>
      <point x="104" y="86" type="line" smooth="yes"/>
      <point x="151" y="86"/>
      <point x="192" y="91"/>
      <point x="223" y="112" type="curve" smooth="yes"/>
      <point x="254" y="132"/>
      <point x="272" y="169"/>
      <point x="272" y="233" type="curve" smooth="yes"/>
      <point x="272" y="1229" type="line" smooth="yes"/>
      <point x="272" y="1293"/>
      <point x="254" y="1330"/>
      <point x="223" y="1351" type="curve" smooth="yes"/>
      <point x="192" y="1371"/>
      <point x="151" y="1376"/>
      <point x="104" y="1376" type="curve" smooth="yes"/>
      <point x="78" y="1376" type="line"/>
      <point x="78" y="1462" type="line"/>
      <point x="674" y="1462" type="line"/>
      <point x="674" y="1376" type="line"/>
      <point x="647" y="1376" type="line" smooth="yes"/>
      <point x="602" y="1376"/>
      <point x="560" y="1372"/>
      <point x="529" y="1352" type="curve" smooth="yes"/>
      <point x="498" y="1332"/>
      <point x="479" y="1297"/>
      <point x="479" y="1237" type="curve" smooth="yes"/>
      <point x="479" y="102" type="line"/>
      <point x="883" y="102" type="line" smooth="yes"/>
      <point x="944" y="102"/>
      <point x="987" y="126"/>
      <point x="1015" y="162" type="curve" smooth="yes"/>
      <point x="1043" y="197"/>
      <point x="1058" y="243"/>
      <point x="1063" y="287" type="curve" smooth="yes"/>
      <point x="1083" y="440" type="line"/>
      <point x="1190" y="440" type="line"/>
      <point x="1176" y="0" type="line"/>
    </contour>
  </outline>
</glyph>
<glyph name="M" format="1">
  <advance width="1921"/>
  <unicode hex="004D"/>
  <outline>
    <contour>
      <point x="1298" y="0" type="line"/>
      <point x="1298" y="86" type="line"/>
      <point x="1305" y="86" type="line" smooth="yes"/>
      <point x="1349" y="86"/>
      <point x="1385" y="91"/>
      <point x="1410" y="109" type="curve" smooth="yes"/>
      <point x="1434" y="127"/>
      <point x="1449" y="159"/>
      <point x="1452" y="215" type="curve"/>
      <point x="1452" y="1309" type="line"/>
      <point x="983" y="0" type="line"/>
      <point x="872" y="0" type="line"/>
      <point x="397" y="1305" type="line"/>
      <point x="397" y="233" type="line" smooth="yes"/>
      <point x="397" y="169"/>
      <point x="411" y="132"/>
      <point x="437" y="112" type="curve" smooth="yes"/>
      <point x="463" y="91"/>
      <point x="500" y="86"/>
      <point x="545" y="86" type="curve" smooth="yes"/>
      <point x="551" y="86" type="line"/>
      <point x="551" y="0" type="line"/>
      <point x="78" y="0" type="line"/>
      <point x="78" y="86" type="line"/>
      <point x="104" y="86" type="line" smooth="yes"/>
      <point x="149" y="86"/>
      <point x="191" y="90"/>
      <point x="222" y="109" type="curve" smooth="yes"/>
      <point x="253" y="128"/>
      <point x="272" y="163"/>
      <point x="272" y="223" type="curve" smooth="yes"/>
      <point x="272" y="1237" type="line" smooth="yes"/>
      <point x="272" y="1297"/>
      <point x="253" y="1332"/>
      <point x="222" y="1352" type="curve" smooth="yes"/>
      <point x="191" y="1372"/>
      <point x="149" y="1376"/>
      <point x="104" y="1376" type="curve" smooth="yes"/>
      <point x="78" y="1376" type="line"/>
      <point x="78" y="1462" type="line"/>
      <point x="545" y="1462" type="line"/>
      <point x="969" y="291" type="line"/>
      <point x="1389" y="1462" type="line"/>
      <point x="1843" y="1462" type="line"/>
      <point x="1843" y="1376" type="line"/>
      <point x="1817" y="1376" type="line" smooth="yes"/>
      <point x="1770" y="1376"/>
      <point x="1729" y="1371"/>
      <point x="1698" y="1351" type="curve" smooth="yes"/>
      <point x="1667" y="1330"/>
      <point x="1649" y="1293"/>
      <point x="1649" y="1229" type="curve" smooth="yes"/>
      <point x="1649" y="233" type="line" smooth="yes"/>
      <point x="1649" y="169"/>
      <point x="1667" y="132"/>
      <point x="1698" y="112" type="curve" smooth="yes"/>
      <point x="1729" y="91"/>
      <point x="1770" y="86"/>
      <point x="1817" y="86" type="curve" smooth="yes"/>
      <point x="1843" y="86" type="line"/>
      <point x="1843" y="0" type="line"/>
    </contour>
  </outline>
</glyph>
<glyph name="N" format="1">
  <advance width="1563"/>
  <unicode hex="004E"/>
  <outline>
    <contour>
      <point x="1165" y="0" type="line"/>
      <point x="397" y="1180" type="line"/>
      <point x="397" y="233" type="line" smooth="yes"/>
      <point x="397" y="169"/>
      <point x="417" y="132"/>
      <point x="447" y="112" type="curve" smooth="yes"/>
      <point x="477" y="91"/>
      <point x="520" y="86"/>
      <point x="565" y="86" type="curve" smooth="yes"/>
      <point x="592" y="86" type="line"/>
      <point x="592" y="0" type="line"/>
      <point x="78" y="0" type="line"/>
      <point x="78" y="86" type="line"/>
      <point x="104" y="86" type="line" smooth="yes"/>
      <point x="151" y="86"/>
      <point x="192" y="91"/>
      <point x="223" y="112" type="curve" smooth="yes"/>
      <point x="254" y="132"/>
      <point x="272" y="169"/>
      <point x="272" y="233" type="curve" smooth="yes"/>
      <point x="272" y="1237" type="line" smooth="yes"/>
      <point x="272" y="1297"/>
      <point x="253" y="1332"/>
      <point x="222" y="1352" type="curve" smooth="yes"/>
      <point x="191" y="1372"/>
      <point x="149" y="1376"/>
      <point x="104" y="1376" type="curve" smooth="yes"/>
      <point x="78" y="1376" type="line"/>
      <point x="78" y="1462" type="line"/>
      <point x="453" y="1462" type="line"/>
      <point x="1186" y="330" type="line"/>
      <point x="1186" y="1237" type="line" smooth="yes"/>
      <point x="1186" y="1297"/>
      <point x="1167" y="1332"/>
      <point x="1136" y="1352" type="curve" smooth="yes"/>
      <point x="1105" y="1372"/>
      <point x="1063" y="1376"/>
      <point x="1018" y="1376" type="curve" smooth="yes"/>
      <point x="991" y="1376" type="line"/>
      <point x="991" y="1462" type="line"/>
      <point x="1505" y="1462" type="line"/>
      <point x="1505" y="1376" type="line"/>
      <point x="1479" y="1376" type="line" smooth="yes"/>
      <point x="1432" y="1376"/>
      <point x="1391" y="1371"/>
      <point x="1360" y="1351" type="curve" smooth="yes"/>
      <point x="1329" y="1330"/>
      <point x="1311" y="1293"/>
      <point x="1311" y="1229" type="curve" smooth="yes"/>
      <point x="1311" y="0" type="line"/>
    </contour>
  </outline>
</glyph>
<glyph name="O" format="1">
  <advance width="1520"/>
  <unicode hex="004F"/>
  <outline>
    <contour>
      <point x="1403" y="508"/>
      <point x="1346" y="319"/>
      <point x="1237" y="187" type="curve" smooth="yes"/>
      <point x="1128" y="55"/>
      <point x="967" y="-20"/>
      <point x="760" y="-20" type="curve" smooth="yes"/>
      <point x="543" y="-20"/>
      <point x="382" y="55"/>
      <point x="275" y="187" type="curve" smooth="yes"/>
      <point x="168" y="319"/>
      <point x="115" y="508"/>
      <point x="115" y="735" type="curve" smooth="yes"/>
      <point x="115" y="962"/>
      <point x="168" y="1149"/>
      <point x="275" y="1280" type="curve" smooth="yes"/>
      <point x="382" y="1411"/>
      <point x="545" y="1485"/>
      <point x="762" y="1485" type="curve" smooth="yes"/>
      <point x="969" y="1485"/>
      <point x="1128" y="1411"/>
      <point x="1237" y="1280" type="curve" smooth="yes"/>
      <point x="1346" y="1148"/>
      <point x="1403" y="961"/>
      <point x="1403" y="733" type="curve" smooth="yes"/>
    </contour>
    <contour>
      <point x="342" y="530"/>
      <point x="370" y="370"/>
      <point x="437" y="260" type="curve" smooth="yes"/>
      <point x="504" y="150"/>
      <point x="608" y="90"/>
      <point x="760" y="90" type="curve" smooth="yes"/>
      <point x="912" y="90"/>
      <point x="1017" y="150"/>
      <point x="1083" y="260" type="curve" smooth="yes"/>
      <point x="1149" y="370"/>
      <point x="1176" y="530"/>
      <point x="1176" y="733" type="curve" smooth="yes"/>
      <point x="1176" y="936"/>
      <point x="1149" y="1097"/>
      <point x="1083" y="1206" type="curve" smooth="yes"/>
      <point x="1017" y="1315"/>
      <point x="914" y="1374"/>
      <point x="762" y="1374" type="curve" smooth="yes"/>
      <point x="610" y="1374"/>
      <point x="505" y="1315"/>
      <point x="438" y="1206" type="curve" smooth="yes"/>
      <point x="370" y="1097"/>
      <point x="342" y="936"/>
      <point x="342" y="733" type="curve" smooth="yes"/>
    </contour>
  </outline>
</glyph>
<glyph name="P" format="1">
  <advance width="1237"/>
  <unicode hex="0050"/>
  <outline>
    <contour>
      <point x="78" y="0" type="line"/>
      <point x="78" y="86" type="line"/>
      <point x="104" y="86" type="line" smooth="yes"/>
      <point x="151" y="86"/>
      <point x="192" y="91"/>
      <point x="223" y="112" type="curve" smooth="yes"/>
      <point x="254" y="132"/>
      <point x="272" y="169"/>
      <point x="272" y="233" type="curve" smooth="yes"/>
      <point x="272" y="1237" type="line" smooth="yes"/>
      <point x="272" y="1297"/>
      <point x="253" y="1332"/>
      <point x="222" y="1352" type="curve" smooth="yes"/>
      <point x="191" y="1372"/>
      <point x="149" y="1376"/>
      <point x="104" y="1376" type="curve" smooth="yes"/>
      <point x="78" y="1376" type="line"/>
      <point x="78" y="1462" type="line"/>
      <point x="653" y="1462" type="line" smooth="yes"/>
      <point x="825" y="1462"/>
      <point x="951" y="1422"/>
      <point x="1034" y="1348" type="curve" smooth="yes"/>
      <point x="1117" y="1274"/>
      <point x="1157" y="1167"/>
      <point x="1157" y="1034" type="curve" smooth="yes"/>
      <point x="1157" y="913"/>
      <point x="1122" y="797"/>
      <point x="1035" y="711" type="curve" smooth="yes"/>
      <point x="948" y="625"/>
      <point x="811" y="569"/>
      <point x="608" y="569" type="curve" smooth="yes"/>
      <point x="479" y="569" type="line"/>
      <point x="479" y="223" type="line" smooth="yes"/>
      <point x="479" y="163"/>
      <point x="498" y="128"/>
      <point x="529" y="109" type="curve" smooth="yes"/>
      <point x="560" y="90"/>
      <point x="602" y="86"/>
      <point x="647" y="86" type="curve" smooth="yes"/>
      <point x="715" y="86" type="line"/>
      <point x="715" y="0" type="line"/>
    </contour>
    <contour>
      <point x="479" y="666" type="line"/>
      <point x="588" y="666" type="line" smooth="yes"/>
      <point x="712" y="666"/>
      <point x="799" y="691"/>
      <point x="855" y="749" type="curve" smooth="yes"/>
      <point x="911" y="807"/>
      <point x="936" y="897"/>
      <point x="936" y="1026" type="curve" smooth="yes"/>
      <point x="936" y="1141"/>
      <point x="915" y="1225"/>
      <point x="864" y="1281" type="curve" smooth="yes"/>
      <point x="813" y="1337"/>
      <point x="734" y="1364"/>
      <point x="618" y="1364" type="curve" smooth="yes"/>
      <point x="479" y="1364" type="line"/>
    </contour>
  </outline>
</glyph>
<glyph name="R" format="1">
  <advance width="1343"/>
  <unicode hex="0052"/>
  <outline>
    <contour>
      <point x="1135" y="250" type="line" smooth="yes"/>
      <point x="1204" y="141"/>
      <point x="1263" y="86"/>
      <point x="1350" y="86" type="curve" smooth="yes"/>
      <point x="1356" y="86" type="line"/>
      <point x="1356" y="0" type="line"/>
      <point x="1327" y="0" type="line" smooth="yes"/>
      <point x="1199" y="0"/>
      <point x="1122" y="7"/>
      <point x="1065" y="34" type="curve" smooth="yes"/>
      <point x="1008" y="61"/>
      <point x="973" y="107"/>
      <point x="926" y="184" type="curve" smooth="yes"/>
      <point x="649" y="645" type="line"/>
      <point x="479" y="645" type="line"/>
      <point x="479" y="223" type="line" smooth="yes"/>
      <point x="479" y="163"/>
      <point x="498" y="128"/>
      <point x="529" y="109" type="curve" smooth="yes"/>
      <point x="560" y="90"/>
      <point x="602" y="86"/>
      <point x="647" y="86" type="curve" smooth="yes"/>
      <point x="674" y="86" type="line"/>
      <point x="674" y="0" type="line"/>
      <point x="78" y="0" type="line"/>
      <point x="78" y="86" type="line"/>
      <point x="104" y="86" type="line" smooth="yes"/>
      <point x="149" y="86"/>
      <point x="191" y="90"/>
      <point x="222" y="109" type="curve" smooth="yes"/>
      <point x="253" y="128"/>
      <point x="272" y="163"/>
      <point x="272" y="223" type="curve" smooth="yes"/>
      <point x="272" y="1237" type="line" smooth="yes"/>
      <point x="272" y="1297"/>
      <point x="253" y="1332"/>
      <point x="222" y="1352" type="curve" smooth="yes"/>
      <point x="191" y="1372"/>
      <point x="149" y="1376"/>
      <point x="104" y="1376" type="curve" smooth="yes"/>
      <point x="78" y="1376" type="line"/>
      <point x="78" y="1462" type="line"/>
      <point x="629" y="1462" type="line" smooth="yes"/>
      <point x="984" y="1462"/>
      <point x="1155" y="1331"/>
      <point x="1155" y="1067" type="curve" smooth="yes"/>
      <point x="1155" y="958"/>
      <point x="1116" y="877"/>
      <point x="1059" y="817" type="curve" smooth="yes"/>
      <point x="1002" y="757"/>
      <point x="926" y="718"/>
      <point x="854" y="694" type="curve"/>
    </contour>
    <contour>
      <point x="479" y="741" type="line"/>
      <point x="623" y="741" type="line" smooth="yes"/>
      <point x="743" y="741"/>
      <point x="821" y="768"/>
      <point x="869" y="821" type="curve" smooth="yes"/>
      <point x="917" y="874"/>
      <point x="936" y="954"/>
      <point x="936" y="1061" type="curve" smooth="yes"/>
      <point x="936" y="1170"/>
      <point x="915" y="1246"/>
      <point x="864" y="1295" type="curve" smooth="yes"/>
      <point x="813" y="1343"/>
      <point x="734" y="1364"/>
      <point x="618" y="1364" type="curve" smooth="yes"/>
      <point x="479" y="1364" type="line"/>
    </contour>
  </outline>
</glyph>
<glyph name="S" format="1">
  <advance width="1114"/>
  <unicode hex="0053"/>
  <outline>
    <contour>
      <point x="373" y="-20"/>
      <point x="270" y="10"/>
      <point x="202" y="60" type="curve" smooth="yes"/>
      <point x="133" y="110"/>
      <point x="98" y="183"/>
      <point x="98" y="268" type="curve" smooth="yes"/>
      <point x="98" y="351"/>
      <point x="151" y="406"/>
      <point x="246" y="406" type="curve"/>
      <point x="250" y="321"/>
      <point x="271" y="239"/>
      <point x="315" y="179" type="curve" smooth="yes"/>
      <point x="359" y="119"/>
      <point x="426" y="80"/>
      <point x="522" y="80" type="curve" smooth="yes"/>
      <point x="706" y="80"/>
      <point x="815" y="171"/>
      <point x="815" y="338" type="curve" smooth="yes"/>
      <point x="815" y="413"/>
      <point x="795" y="468"/>
      <point x="746" y="517" type="curve" smooth="yes"/>
      <point x="697" y="565"/>
      <point x="618" y="608"/>
      <point x="498" y="657" type="curve" smooth="yes"/>
      <point x="371" y="709"/>
      <point x="277" y="767"/>
      <point x="214" y="840" type="curve" smooth="yes"/>
      <point x="151" y="912"/>
      <point x="121" y="1000"/>
      <point x="121" y="1112" type="curve" smooth="yes"/>
      <point x="121" y="1229"/>
      <point x="168" y="1322"/>
      <point x="248" y="1386" type="curve" smooth="yes"/>
      <point x="328" y="1449"/>
      <point x="440" y="1483"/>
      <point x="569" y="1483" type="curve" smooth="yes"/>
      <point x="692" y="1483"/>
      <point x="787" y="1456"/>
      <point x="852" y="1413" type="curve" smooth="yes"/>
      <point x="917" y="1370"/>
      <point x="952" y="1313"/>
      <point x="952" y="1253" type="curve" smooth="yes"/>
      <point x="952" y="1165"/>
      <point x="890" y="1120"/>
      <point x="791" y="1120" type="curve"/>
      <point x="791" y="1184"/>
      <point x="777" y="1249"/>
      <point x="741" y="1298" type="curve" smooth="yes"/>
      <point x="705" y="1346"/>
      <point x="648" y="1380"/>
      <point x="561" y="1380" type="curve" smooth="yes"/>
      <point x="482" y="1380"/>
      <point x="420" y="1357"/>
      <point x="377" y="1317" type="curve" smooth="yes"/>
      <point x="334" y="1276"/>
      <point x="311" y="1218"/>
      <point x="311" y="1147" type="curve" smooth="yes"/>
      <point x="311" y="1066"/>
      <point x="331" y="1006"/>
      <point x="381" y="956" type="curve" smooth="yes"/>
      <point x="431" y="906"/>
      <point x="510" y="863"/>
      <point x="629" y="815" type="curve" smooth="yes"/>
      <point x="749" y="766"/>
      <point x="844" y="713"/>
      <point x="909" y="646" type="curve" smooth="yes"/>
      <point x="974" y="578"/>
      <point x="1010" y="496"/>
      <point x="1010" y="391" type="curve" smooth="yes"/>
      <point x="1010" y="262"/>
      <point x="961" y="159"/>
      <point x="873" y="88" type="curve" smooth="yes"/>
      <point x="785" y="17"/>
      <point x="659" y="-20"/>
      <point x="506" y="-20" type="curve" smooth="yes"/>
    </contour>
  </outline>
</glyph>
<glyph name="T" format="1">
  <advance width="1255"/>
  <unicode hex="0054"/>
  <outline>
    <contour>
      <point x="729" y="233" type="line" smooth="yes"/>
      <point x="729" y="169"/>
      <point x="749" y="132"/>
      <point x="779" y="112" type="curve" smooth="yes"/>
      <point x="809" y="91"/>
      <point x="852" y="86"/>
      <point x="897" y="86" type="curve" smooth="yes"/>
      <point x="944" y="86" type="line"/>
      <point x="944" y="0" type="line"/>
      <point x="307" y="0" type="line"/>
      <point x="307" y="86" type="line"/>
      <point x="354" y="86" type="line" smooth="yes"/>
      <point x="399" y="86"/>
      <point x="441" y="90"/>
      <point x="472" y="109" type="curve" smooth="yes"/>
      <point x="503" y="128"/>
      <point x="522" y="163"/>
      <point x="522" y="223" type="curve" smooth="yes"/>
      <point x="522" y="1360" type="line"/>
      <point x="326" y="1360" type="line" smooth="yes"/>
      <point x="266" y="1360"/>
      <point x="227" y="1341"/>
      <point x="201" y="1310" type="curve" smooth="yes"/>
      <point x="175" y="1279"/>
      <point x="163" y="1237"/>
      <point x="158" y="1192" type="curve" smooth="yes"/>
      <point x="147" y="1104" type="line"/>
      <point x="41" y="1104" type="line"/>
      <point x="51" y="1462" type="line"/>
      <point x="1204" y="1462" type="line"/>
      <point x="1214" y="1104" type="line"/>
      <point x="1108" y="1104" type="line"/>
      <point x="1098" y="1192" type="line" smooth="yes"/>
      <point x="1093" y="1237"/>
      <point x="1080" y="1279"/>
      <point x="1055" y="1310" type="curve" smooth="yes"/>
      <point x="1030" y="1341"/>
      <point x="989" y="1360"/>
      <point x="928" y="1360" type="curve" smooth="yes"/>
      <point x="729" y="1360" type="line"/>
    </contour>
  </outline>
</glyph>
<glyph name="V" format="1">
  <advance width="1382"/>
  <unicode hex="0056"/>
  <outline>
    <contour>
      <point x="614" y="0" type="line"/>
      <point x="172" y="1268" type="line" smooth="yes"/>
      <point x="157" y="1311"/>
      <point x="141" y="1338"/>
      <point x="118" y="1354" type="curve" smooth="yes"/>
      <point x="95" y="1370"/>
      <point x="67" y="1376"/>
      <point x="27" y="1376" type="curve" smooth="yes"/>
      <point x="0" y="1376" type="line"/>
      <point x="0" y="1462" type="line"/>
      <point x="563" y="1462" type="line"/>
      <point x="563" y="1376" type="line"/>
      <point x="516" y="1376" type="line" smooth="yes"/>
      <point x="433" y="1376"/>
      <point x="393" y="1346"/>
      <point x="393" y="1278" type="curve" smooth="yes"/>
      <point x="393" y="1255"/>
      <point x="399" y="1233"/>
      <point x="410" y="1202" type="curve" smooth="yes"/>
      <point x="635" y="537" type="line" smooth="yes"/>
      <point x="676" y="416"/>
      <point x="704" y="300"/>
      <point x="727" y="201" type="curve"/>
      <point x="748" y="300"/>
      <point x="776" y="409"/>
      <point x="821" y="537" type="curve" smooth="yes"/>
      <point x="1047" y="1188" type="line" smooth="yes"/>
      <point x="1058" y="1221"/>
      <point x="1065" y="1253"/>
      <point x="1065" y="1276" type="curve" smooth="yes"/>
      <point x="1065" y="1347"/>
      <point x="1021" y="1376"/>
      <point x="930" y="1376" type="curve" smooth="yes"/>
      <point x="883" y="1376" type="line"/>
      <point x="883" y="1462" type="line"/>
      <point x="1382" y="1462" type="line"/>
      <point x="1382" y="1376" type="line"/>
      <point x="1343" y="1376" type="line" smooth="yes"/>
      <point x="1303" y="1376"/>
      <point x="1276" y="1370"/>
      <point x="1253" y="1347" type="curve" smooth="yes"/>
      <point x="1229" y="1323"/>
      <point x="1211" y="1284"/>
      <point x="1188" y="1217" type="curve" smooth="yes"/>
      <point x="764" y="0" type="line"/>
    </contour>
  </outline>
</glyph>
<glyph name="W" format="1">
  <advance width="2144"/>
  <unicode hex="0057"/>
  <outline>
    <contour>
      <point x="1180" y="1448" type="line"/>
      <point x="1436" y="561" type="line" smooth="yes"/>
      <point x="1475" y="425"/>
      <point x="1505" y="296"/>
      <point x="1524" y="201" type="curve"/>
      <point x="1544" y="300"/>
      <point x="1569" y="405"/>
      <point x="1606" y="537" type="curve" smooth="yes"/>
      <point x="1786" y="1169" type="line" smooth="yes"/>
      <point x="1788" y="1177"/>
      <point x="1790" y="1186"/>
      <point x="1793" y="1196" type="curve"/>
      <point x="1798" y="1216"/>
      <point x="1802" y="1237"/>
      <point x="1806" y="1254" type="curve"/>
      <point x="1807" y="1263"/>
      <point x="1808" y="1270"/>
      <point x="1808" y="1276" type="curve" smooth="yes"/>
      <point x="1808" y="1347"/>
      <point x="1764" y="1376"/>
      <point x="1673" y="1376" type="curve" smooth="yes"/>
      <point x="1626" y="1376" type="line"/>
      <point x="1626" y="1462" type="line"/>
      <point x="2126" y="1462" type="line"/>
      <point x="2126" y="1376" type="line"/>
      <point x="2087" y="1376" type="line" smooth="yes"/>
      <point x="2047" y="1376"/>
      <point x="2018" y="1370"/>
      <point x="1994" y="1347" type="curve" smooth="yes"/>
      <point x="1970" y="1324"/>
      <point x="1951" y="1285"/>
      <point x="1931" y="1217" type="curve" smooth="yes"/>
      <point x="1585" y="0" type="line"/>
      <point x="1401" y="0" type="line"/>
      <point x="1067" y="1147" type="line"/>
      <point x="754" y="0" type="line"/>
      <point x="565" y="0" type="line"/>
      <point x="190" y="1268" type="line" smooth="yes"/>
      <point x="177" y="1311"/>
      <point x="161" y="1338"/>
      <point x="138" y="1354" type="curve" smooth="yes"/>
      <point x="115" y="1370"/>
      <point x="85" y="1376"/>
      <point x="45" y="1376" type="curve" smooth="yes"/>
      <point x="18" y="1376" type="line"/>
      <point x="18" y="1462" type="line"/>
      <point x="582" y="1462" type="line"/>
      <point x="582" y="1376" type="line"/>
      <point x="535" y="1376" type="line" smooth="yes"/>
      <point x="452" y="1376"/>
      <point x="412" y="1346"/>
      <point x="412" y="1278" type="curve" smooth="yes"/>
      <point x="412" y="1267"/>
      <point x="414" y="1255"/>
      <point x="417" y="1243" type="curve" smooth="yes"/>
      <point x="420" y="1231"/>
      <point x="424" y="1217"/>
      <point x="428" y="1202" type="curve" smooth="yes"/>
      <point x="616" y="547" type="line" smooth="yes"/>
      <point x="651" y="423"/>
      <point x="682" y="300"/>
      <point x="705" y="201" type="curve"/>
      <point x="725" y="308"/>
      <point x="752" y="437"/>
      <point x="788" y="569" type="curve" smooth="yes"/>
      <point x="1032" y="1448" type="line"/>
    </contour>
  </outline>
</glyph>
<glyph name="X" format="1">
  <advance width="1352"/>
  <unicode hex="0058"/>
  <outline>
    <contour>
      <point x="954" y="1341"/>
      <point x="942" y="1356"/>
      <point x="923" y="1365" type="curve"/>
      <point x="903" y="1373"/>
      <point x="876" y="1376"/>
      <point x="844" y="1376" type="curve" smooth="yes"/>
      <point x="838" y="1376" type="line"/>
      <point x="838" y="1462" type="line"/>
      <point x="1286" y="1462" type="line"/>
      <point x="1286" y="1376" type="line"/>
      <point x="1268" y="1376" type="line" smooth="yes"/>
      <point x="1228" y="1376"/>
      <point x="1197" y="1368"/>
      <point x="1166" y="1345" type="curve" smooth="yes"/>
      <point x="1135" y="1321"/>
      <point x="1104" y="1285"/>
      <point x="1065" y="1229" type="curve" smooth="yes"/>
      <point x="768" y="801" type="line"/>
      <point x="1145" y="195" type="line"/>
      <point x="1205" y="115"/>
      <point x="1257" y="86"/>
      <point x="1309" y="86" type="curve" smooth="yes"/>
      <point x="1335" y="86" type="line"/>
      <point x="1335" y="0" type="line"/>
      <point x="782" y="0" type="line"/>
      <point x="782" y="86" type="line"/>
      <point x="793" y="86" type="line" smooth="yes"/>
      <point x="874" y="86"/>
      <point x="915" y="109"/>
      <point x="915" y="154" type="curve" smooth="yes"/>
      <point x="915" y="169"/>
      <point x="912" y="182"/>
      <point x="903" y="202" type="curve" smooth="yes"/>
      <point x="894" y="222"/>
      <point x="876" y="250"/>
      <point x="848" y="295" type="curve" smooth="yes"/>
      <point x="645" y="621" type="line"/>
      <point x="418" y="285" type="line" smooth="yes"/>
      <point x="406" y="268"/>
      <point x="394" y="245"/>
      <point x="383" y="221" type="curve" smooth="yes"/>
      <point x="372" y="197"/>
      <point x="365" y="171"/>
      <point x="365" y="150" type="curve" smooth="yes"/>
      <point x="365" y="103"/>
      <point x="407" y="86"/>
      <point x="498" y="86" type="curve" smooth="yes"/>
      <point x="504" y="86" type="line"/>
      <point x="504" y="0" type="line"/>
      <point x="16" y="0" type="line"/>
      <point x="16" y="86" type="line"/>
      <point x="29" y="86" type="line" smooth="yes"/>
      <point x="78" y="86"/>
      <point x="113" y="95"/>
      <point x="145" y="118" type="curve" smooth="yes"/>
      <point x="176" y="141"/>
      <point x="205" y="176"/>
      <point x="242" y="229" type="curve" smooth="yes"/>
      <point x="584" y="719" type="line"/>
      <point x="246" y="1268" type="line" smooth="yes"/>
      <point x="197" y="1347"/>
      <point x="131" y="1376"/>
      <point x="70" y="1376" type="curve" smooth="yes"/>
      <point x="43" y="1376" type="line"/>
      <point x="43" y="1462" type="line"/>
      <point x="598" y="1462" type="line"/>
      <point x="598" y="1376" type="line"/>
      <point x="592" y="1376" type="line" smooth="yes"/>
      <point x="545" y="1376"/>
      <point x="515" y="1370"/>
      <point x="498" y="1359" type="curve" smooth="yes"/>
      <point x="481" y="1348"/>
      <point x="475" y="1333"/>
      <point x="475" y="1317" type="curve" smooth="yes"/>
      <point x="475" y="1302"/>
      <point x="476" y="1291"/>
      <point x="483" y="1273" type="curve" smooth="yes"/>
      <point x="490" y="1255"/>
      <point x="501" y="1232"/>
      <point x="524" y="1196" type="curve" smooth="yes"/>
      <point x="709" y="897" type="line"/>
      <point x="903" y="1192" type="line" smooth="yes"/>
      <point x="934" y="1239"/>
      <point x="954" y="1280"/>
      <point x="954" y="1317" type="curve" smooth="yes"/>
    </contour>
  </outline>
</glyph>
<glyph name="Y" format="1">
  <advance width="1280"/>
  <unicode hex="0059"/>
  <outline>
    <contour>
      <point x="326" y="0" type="line"/>
      <point x="326" y="86" type="line"/>
      <point x="373" y="86" type="line" smooth="yes"/>
      <point x="418" y="86"/>
      <point x="460" y="90"/>
      <point x="491" y="109" type="curve" smooth="yes"/>
      <point x="522" y="128"/>
      <point x="541" y="163"/>
      <point x="541" y="223" type="curve" smooth="yes"/>
      <point x="541" y="610" type="line"/>
      <point x="162" y="1268" type="line" smooth="yes"/>
      <point x="139" y="1307"/>
      <point x="121" y="1334"/>
      <point x="99" y="1351" type="curve" smooth="yes"/>
      <point x="77" y="1368"/>
      <point x="51" y="1376"/>
      <point x="16" y="1376" type="curve" smooth="yes"/>
      <point x="-10" y="1376" type="line"/>
      <point x="-10" y="1462" type="line"/>
      <point x="553" y="1462" type="line"/>
      <point x="553" y="1376" type="line"/>
      <point x="477" y="1376" type="line" smooth="yes"/>
      <point x="440" y="1376"/>
      <point x="417" y="1369"/>
      <point x="404" y="1357" type="curve" smooth="yes"/>
      <point x="391" y="1345"/>
      <point x="387" y="1328"/>
      <point x="387" y="1311" type="curve" smooth="yes"/>
      <point x="387" y="1272"/>
      <point x="408" y="1231"/>
      <point x="424" y="1202" type="curve" smooth="yes"/>
      <point x="575" y="928" type="line" smooth="yes"/>
      <point x="623" y="844"/>
      <point x="655" y="758"/>
      <point x="678" y="694" type="curve"/>
      <point x="690" y="723"/>
      <point x="709" y="760"/>
      <point x="731" y="801" type="curve" smooth="yes"/>
      <point x="753" y="841"/>
      <point x="777" y="885"/>
      <point x="801" y="928" type="curve" smooth="yes"/>
      <point x="932" y="1163" type="line" smooth="yes"/>
      <point x="959" y="1210"/>
      <point x="969" y="1253"/>
      <point x="969" y="1286" type="curve" smooth="yes"/>
      <point x="969" y="1346"/>
      <point x="925" y="1376"/>
      <point x="846" y="1376" type="curve" smooth="yes"/>
      <point x="786" y="1376" type="line"/>
      <point x="786" y="1462" type="line"/>
      <point x="1286" y="1462" type="line"/>
      <point x="1286" y="1376" type="line"/>
      <point x="1262" y="1376" type="line" smooth="yes"/>
      <point x="1233" y="1376"/>
      <point x="1208" y="1367"/>
      <point x="1181" y="1343" type="curve" smooth="yes"/>
      <point x="1154" y="1318"/>
      <point x="1127" y="1278"/>
      <point x="1092" y="1217" type="curve" smooth="yes"/>
      <point x="748" y="610" type="line"/>
      <point x="748" y="233" type="line" smooth="yes"/>
      <point x="748" y="169"/>
      <point x="766" y="132"/>
      <point x="797" y="112" type="curve" smooth="yes"/>
      <point x="828" y="91"/>
      <point x="870" y="86"/>
      <point x="915" y="86" type="curve" smooth="yes"/>
      <point x="963" y="86" type="line"/>
      <point x="963" y="0" type="line"/>
    </contour>
  </outline>
</glyph>
<glyph name="Z" format="1">
  <advance width="1212"/>
  <unicode hex="005A"/>
  <outline>
    <contour>
      <point x="1094" y="1378" type="line"/>
      <point x="324" y="102" type="line"/>
      <point x="840" y="102" type="line" smooth="yes"/>
      <point x="901" y="102"/>
      <point x="942" y="121"/>
      <point x="967" y="152" type="curve" smooth="yes"/>
      <point x="992" y="183"/>
      <point x="1005" y="225"/>
      <point x="1010" y="270" type="curve" smooth="yes"/>
      <point x="1020" y="358" type="line"/>
      <point x="1126" y="358" type="line"/>
      <point x="1116" y="0" type="line"/>
      <point x="74" y="0" type="line"/>
      <point x="74" y="82" type="line"/>
      <point x="842" y="1360" type="line"/>
      <point x="397" y="1360" type="line" smooth="yes"/>
      <point x="337" y="1360"/>
      <point x="297" y="1341"/>
      <point x="272" y="1310" type="curve" smooth="yes"/>
      <point x="247" y="1279"/>
      <point x="234" y="1237"/>
      <point x="229" y="1192" type="curve" smooth="yes"/>
      <point x="219" y="1104" type="line"/>
      <point x="113" y="1104" type="line"/>
      <point x="123" y="1462" type="line"/>
      <point x="1094" y="1462" type="line"/>
    </contour>
  </outline>
</glyph>
<glyph name="b" format="1">
  <advance width="1257"/>
  <unicode hex="0062"/>
  <outline>
    <contour>
      <point x="1145" y="354"/>
      <point x="1108" y="210"/>
      <point x="1037" y="117" type="curve" smooth="yes"/>
      <point x="966" y="24"/>
      <point x="862" y="-20"/>
      <point x="727" y="-20" type="curve" smooth="yes"/>
      <point x="648" y="-20"/>
      <point x="585" y="-2"/>
      <point x="534" y="30" type="curve" smooth="yes"/>
      <point x="482" y="62"/>
      <point x="443" y="107"/>
      <point x="414" y="160" type="curve"/>
      <point x="401" y="160" type="line"/>
      <point x="365" y="0" type="line"/>
      <point x="37" y="0" type="line"/>
      <point x="37" y="86" type="line"/>
      <point x="53" y="86" type="line" smooth="yes"/>
      <point x="100" y="86"/>
      <point x="142" y="91"/>
      <point x="172" y="112" type="curve" smooth="yes"/>
      <point x="202" y="132"/>
      <point x="221" y="169"/>
      <point x="221" y="233" type="curve" smooth="yes"/>
      <point x="221" y="1331" type="line" smooth="yes"/>
      <point x="221" y="1391"/>
      <point x="202" y="1426"/>
      <point x="171" y="1446" type="curve" smooth="yes"/>
      <point x="140" y="1466"/>
      <point x="98" y="1470"/>
      <point x="53" y="1470" type="curve" smooth="yes"/>
      <point x="37" y="1470" type="line"/>
      <point x="37" y="1556" type="line"/>
      <point x="414" y="1556" type="line"/>
      <point x="414" y="1180" type="line" smooth="yes"/>
      <point x="414" y="1133"/>
      <point x="413" y="1068"/>
      <point x="410" y="1012" type="curve" smooth="yes"/>
      <point x="409" y="980"/>
      <point x="407" y="947"/>
      <point x="406" y="913" type="curve"/>
      <point x="414" y="913" type="line"/>
      <point x="445" y="976"/>
      <point x="482" y="1027"/>
      <point x="533" y="1063" type="curve" smooth="yes"/>
      <point x="584" y="1098"/>
      <point x="647" y="1118"/>
      <point x="727" y="1118" type="curve" smooth="yes"/>
      <point x="862" y="1118"/>
      <point x="966" y="1074"/>
      <point x="1037" y="982" type="curve" smooth="yes"/>
      <point x="1108" y="889"/>
      <point x="1145" y="747"/>
      <point x="1145" y="551" type="curve" smooth="yes"/>
    </contour>
    <contour>
      <point x="585" y="987"/>
      <point x="516" y="952"/>
      <point x="473" y="880" type="curve" smooth="yes"/>
      <point x="430" y="808"/>
      <point x="414" y="699"/>
      <point x="414" y="551" type="curve" smooth="yes"/>
      <point x="414" y="408"/>
      <point x="430" y="299"/>
      <point x="474" y="224" type="curve" smooth="yes"/>
      <point x="517" y="149"/>
      <point x="586" y="111"/>
      <point x="694" y="111" type="curve" smooth="yes"/>
      <point x="785" y="111"/>
      <point x="847" y="149"/>
      <point x="888" y="224" type="curve" smooth="yes"/>
      <point x="928" y="299"/>
      <point x="946" y="409"/>
      <point x="946" y="553" type="curve" smooth="yes"/>
      <point x="946" y="698"/>
      <point x="928" y="807"/>
      <point x="888" y="879" type="curve" smooth="yes"/>
      <point x="847" y="951"/>
      <point x="783" y="987"/>
      <point x="692" y="987" type="curve" smooth="yes"/>
    </contour>
  </outline>
</glyph>
<glyph name="c" format="1">
  <advance width="1008"/>
  <unicode hex="0063"/>
  <outline>
    <contour>
      <point x="444" y="-20"/>
      <point x="327" y="20"/>
      <point x="244" y="111" type="curve" smooth="yes"/>
      <point x="161" y="202"/>
      <point x="113" y="342"/>
      <point x="113" y="543" type="curve" smooth="yes"/>
      <point x="113" y="762"/>
      <point x="162" y="906"/>
      <point x="244" y="995" type="curve" smooth="yes"/>
      <point x="326" y="1084"/>
      <point x="440" y="1118"/>
      <point x="569" y="1118" type="curve" smooth="yes"/>
      <point x="654" y="1118"/>
      <point x="743" y="1102"/>
      <point x="811" y="1067" type="curve" smooth="yes"/>
      <point x="879" y="1032"/>
      <point x="926" y="980"/>
      <point x="926" y="909" type="curve" smooth="yes"/>
      <point x="926" y="814"/>
      <point x="864" y="780"/>
      <point x="743" y="780" type="curve"/>
      <point x="743" y="844"/>
      <point x="734" y="903"/>
      <point x="708" y="947" type="curve" smooth="yes"/>
      <point x="682" y="990"/>
      <point x="638" y="1016"/>
      <point x="569" y="1016" type="curve" smooth="yes"/>
      <point x="490" y="1016"/>
      <point x="426" y="990"/>
      <point x="381" y="918" type="curve" smooth="yes"/>
      <point x="336" y="846"/>
      <point x="311" y="728"/>
      <point x="311" y="545" type="curve" smooth="yes"/>
      <point x="311" y="254"/>
      <point x="401" y="113"/>
      <point x="621" y="113" type="curve" smooth="yes"/>
      <point x="748" y="113"/>
      <point x="846" y="172"/>
      <point x="893" y="256" type="curve"/>
      <point x="913" y="240"/>
      <point x="928" y="213"/>
      <point x="928" y="176" type="curve" smooth="yes"/>
      <point x="928" y="129"/>
      <point x="899" y="80"/>
      <point x="841" y="43" type="curve" smooth="yes"/>
      <point x="783" y="6"/>
      <point x="696" y="-20"/>
      <point x="580" y="-20" type="curve" smooth="yes"/>
    </contour>
  </outline>
</glyph>
<glyph name="d" format="1">
  <advance width="1257"/>
  <unicode hex="0064"/>
  <outline>
    <contour>
      <point x="1036" y="225" type="line" smooth="yes"/>
      <point x="1036" y="165"/>
      <point x="1055" y="130"/>
      <point x="1086" y="110" type="curve" smooth="yes"/>
      <point x="1117" y="90"/>
      <point x="1159" y="86"/>
      <point x="1204" y="86" type="curve" smooth="yes"/>
      <point x="1221" y="86" type="line"/>
      <point x="1221" y="0" type="line"/>
      <point x="874" y="0" type="line"/>
      <point x="852" y="184" type="line"/>
      <point x="844" y="184" type="line"/>
      <point x="813" y="121"/>
      <point x="775" y="71"/>
      <point x="724" y="36" type="curve" smooth="yes"/>
      <point x="673" y="0"/>
      <point x="610" y="-20"/>
      <point x="530" y="-20" type="curve" smooth="yes"/>
      <point x="395" y="-20"/>
      <point x="291" y="24"/>
      <point x="220" y="117" type="curve" smooth="yes"/>
      <point x="149" y="209"/>
      <point x="113" y="351"/>
      <point x="113" y="547" type="curve" smooth="yes"/>
      <point x="113" y="744"/>
      <point x="149" y="888"/>
      <point x="220" y="981" type="curve" smooth="yes"/>
      <point x="291" y="1074"/>
      <point x="395" y="1118"/>
      <point x="530" y="1118" type="curve" smooth="yes"/>
      <point x="609" y="1118"/>
      <point x="672" y="1100"/>
      <point x="724" y="1068" type="curve" smooth="yes"/>
      <point x="775" y="1036"/>
      <point x="815" y="991"/>
      <point x="844" y="938" type="curve"/>
      <point x="856" y="938" type="line"/>
      <point x="854" y="971"/>
      <point x="852" y="1003"/>
      <point x="850" y="1032" type="curve" smooth="yes"/>
      <point x="849" y="1057"/>
      <point x="847" y="1083"/>
      <point x="846" y="1108" type="curve" smooth="yes"/>
      <point x="845" y="1133"/>
      <point x="844" y="1151"/>
      <point x="844" y="1163" type="curve" smooth="yes"/>
      <point x="844" y="1331" type="line" smooth="yes"/>
      <point x="844" y="1391"/>
      <point x="825" y="1426"/>
      <point x="794" y="1446" type="curve" smooth="yes"/>
      <point x="763" y="1466"/>
      <point x="721" y="1470"/>
      <point x="676" y="1470" type="curve" smooth="yes"/>
      <point x="659" y="1470" type="line"/>
      <point x="659" y="1556" type="line"/>
      <point x="1036" y="1556" type="line"/>
    </contour>
    <contour>
      <point x="672" y="111"/>
      <point x="741" y="146"/>
      <point x="785" y="218" type="curve" smooth="yes"/>
      <point x="828" y="290"/>
      <point x="844" y="399"/>
      <point x="844" y="547" type="curve" smooth="yes"/>
      <point x="844" y="690"/>
      <point x="828" y="800"/>
      <point x="785" y="874" type="curve" smooth="yes"/>
      <point x="741" y="948"/>
      <point x="671" y="987"/>
      <point x="563" y="987" type="curve" smooth="yes"/>
      <point x="474" y="987"/>
      <point x="410" y="948"/>
      <point x="370" y="873" type="curve" smooth="yes"/>
      <point x="329" y="798"/>
      <point x="311" y="688"/>
      <point x="311" y="545" type="curve" smooth="yes"/>
      <point x="311" y="254"/>
      <point x="384" y="111"/>
      <point x="565" y="111" type="curve" smooth="yes"/>
    </contour>
  </outline>
</glyph>
<glyph name="f" format="1">
  <advance width="756"/>
  <unicode hex="0066"/>
  <outline>
    <contour>
      <point x="688" y="86" type="line"/>
      <point x="688" y="0" type="line"/>
      <point x="55" y="0" type="line"/>
      <point x="55" y="86" type="line"/>
      <point x="82" y="86" type="line" smooth="yes"/>
      <point x="129" y="86"/>
      <point x="171" y="91"/>
      <point x="201" y="112" type="curve" smooth="yes"/>
      <point x="231" y="132"/>
      <point x="250" y="169"/>
      <point x="250" y="233" type="curve" smooth="yes"/>
      <point x="250" y="1001" type="line"/>
      <point x="63" y="1001" type="line"/>
      <point x="63" y="1098" type="line"/>
      <point x="250" y="1098" type="line"/>
      <point x="250" y="1200" type="line" smooth="yes"/>
      <point x="250" y="1323"/>
      <point x="284" y="1416"/>
      <point x="347" y="1480" type="curve" smooth="yes"/>
      <point x="410" y="1544"/>
      <point x="500" y="1577"/>
      <point x="612" y="1577" type="curve" smooth="yes"/>
      <point x="719" y="1577"/>
      <point x="791" y="1562"/>
      <point x="836" y="1537" type="curve" smooth="yes"/>
      <point x="880" y="1512"/>
      <point x="899" y="1477"/>
      <point x="899" y="1434" type="curve" smooth="yes"/>
      <point x="899" y="1397"/>
      <point x="882" y="1368"/>
      <point x="852" y="1349" type="curve" smooth="yes"/>
      <point x="822" y="1329"/>
      <point x="780" y="1319"/>
      <point x="731" y="1319" type="curve"/>
      <point x="731" y="1360"/>
      <point x="723" y="1401"/>
      <point x="703" y="1432" type="curve" smooth="yes"/>
      <point x="682" y="1463"/>
      <point x="648" y="1483"/>
      <point x="596" y="1483" type="curve" smooth="yes"/>
      <point x="537" y="1483"/>
      <point x="499" y="1460"/>
      <point x="475" y="1416" type="curve" smooth="yes"/>
      <point x="451" y="1371"/>
      <point x="442" y="1306"/>
      <point x="442" y="1219" type="curve" smooth="yes"/>
      <point x="442" y="1098" type="line"/>
      <point x="731" y="1098" type="line"/>
      <point x="731" y="1001" type="line"/>
      <point x="442" y="1001" type="line"/>
      <point x="442" y="233" type="line" smooth="yes"/>
      <point x="442" y="169"/>
      <point x="462" y="132"/>
      <point x="492" y="112" type="curve" smooth="yes"/>
      <point x="522" y="91"/>
      <point x="565" y="86"/>
      <point x="610" y="86" type="curve" smooth="yes"/>
    </contour>
  </outline>
</glyph>
<glyph name="g" format="1">
  <advance width="1102"/>
  <unicode hex="0067"/>
  <outline>
    <contour>
      <point x="1077" y="1026"/>
      <point x="1068" y="999"/>
      <point x="1051" y="980" type="curve" smooth="yes"/>
      <point x="1034" y="960"/>
      <point x="1006" y="948"/>
      <point x="969" y="948" type="curve"/>
      <point x="969" y="964"/>
      <point x="966" y="981"/>
      <point x="956" y="995" type="curve" smooth="yes"/>
      <point x="946" y="1009"/>
      <point x="929" y="1018"/>
      <point x="901" y="1018" type="curve" smooth="yes"/>
      <point x="866" y="1018"/>
      <point x="840" y="1010"/>
      <point x="813" y="993" type="curve"/>
      <point x="860" y="936"/>
      <point x="893" y="862"/>
      <point x="893" y="745" type="curve" smooth="yes"/>
      <point x="893" y="644"/>
      <point x="862" y="556"/>
      <point x="802" y="493" type="curve" smooth="yes"/>
      <point x="741" y="430"/>
      <point x="648" y="393"/>
      <point x="524" y="393" type="curve" smooth="yes"/>
      <point x="508" y="393"/>
      <point x="487" y="394"/>
      <point x="467" y="395" type="curve"/>
      <point x="447" y="395"/>
      <point x="429" y="398"/>
      <point x="418" y="399" type="curve"/>
      <point x="391" y="386"/>
      <point x="367" y="370"/>
      <point x="349" y="350" type="curve" smooth="yes"/>
      <point x="331" y="330"/>
      <point x="319" y="305"/>
      <point x="319" y="274" type="curve" smooth="yes"/>
      <point x="319" y="241"/>
      <point x="332" y="222"/>
      <point x="355" y="211" type="curve" smooth="yes"/>
      <point x="378" y="199"/>
      <point x="410" y="197"/>
      <point x="446" y="197" type="curve" smooth="yes"/>
      <point x="678" y="197" type="line" smooth="yes"/>
      <point x="801" y="197"/>
      <point x="885" y="165"/>
      <point x="939" y="111" type="curve" smooth="yes"/>
      <point x="993" y="57"/>
      <point x="1016" y="-21"/>
      <point x="1016" y="-109" type="curve" smooth="yes"/>
      <point x="1016" y="-226"/>
      <point x="973" y="-322"/>
      <point x="884" y="-388" type="curve" smooth="yes"/>
      <point x="795" y="-454"/>
      <point x="658" y="-492"/>
      <point x="473" y="-492" type="curve" smooth="yes"/>
      <point x="188" y="-492"/>
      <point x="47" y="-381"/>
      <point x="47" y="-193" type="curve" smooth="yes"/>
      <point x="47" y="-113"/>
      <point x="77" y="-54"/>
      <point x="125" y="-11" type="curve" smooth="yes"/>
      <point x="172" y="32"/>
      <point x="235" y="58"/>
      <point x="303" y="70" type="curve"/>
      <point x="275" y="82"/>
      <point x="247" y="102"/>
      <point x="226" y="130" type="curve" smooth="yes"/>
      <point x="205" y="158"/>
      <point x="190" y="194"/>
      <point x="190" y="238" type="curve" smooth="yes"/>
      <point x="190" y="319"/>
      <point x="231" y="374"/>
      <point x="324" y="430" type="curve"/>
      <point x="265" y="454"/>
      <point x="219" y="498"/>
      <point x="188" y="552" type="curve" smooth="yes"/>
      <point x="156" y="606"/>
      <point x="139" y="671"/>
      <point x="139" y="739" type="curve" smooth="yes"/>
      <point x="139" y="858"/>
      <point x="171" y="952"/>
      <point x="235" y="1017" type="curve" smooth="yes"/>
      <point x="299" y="1082"/>
      <point x="395" y="1118"/>
      <point x="524" y="1118" type="curve" smooth="yes"/>
      <point x="573" y="1118"/>
      <point x="623" y="1110"/>
      <point x="664" y="1098" type="curve" smooth="yes"/>
      <point x="704" y="1085"/>
      <point x="738" y="1068"/>
      <point x="758" y="1051" type="curve"/>
      <point x="778" y="1072"/>
      <point x="805" y="1101"/>
      <point x="838" y="1123" type="curve" smooth="yes"/>
      <point x="871" y="1145"/>
      <point x="911" y="1161"/>
      <point x="956" y="1161" type="curve" smooth="yes"/>
      <point x="997" y="1161"/>
      <point x="1027" y="1149"/>
      <point x="1047" y="1130" type="curve" smooth="yes"/>
      <point x="1067" y="1110"/>
      <point x="1077" y="1083"/>
      <point x="1077" y="1055" type="curve" smooth="yes"/>
    </contour>
    <contour>
      <point x="213" y="-240"/>
      <point x="227" y="-294"/>
      <point x="267" y="-331" type="curve" smooth="yes"/>
      <point x="307" y="-368"/>
      <point x="373" y="-391"/>
      <point x="477" y="-391" type="curve" smooth="yes"/>
      <point x="624" y="-391"/>
      <point x="716" y="-365"/>
      <point x="772" y="-321" type="curve" smooth="yes"/>
      <point x="828" y="-277"/>
      <point x="848" y="-215"/>
      <point x="848" y="-143" type="curve" smooth="yes"/>
      <point x="848" y="-80"/>
      <point x="830" y="-41"/>
      <point x="795" y="-17" type="curve" smooth="yes"/>
      <point x="759" y="6"/>
      <point x="707" y="14"/>
      <point x="639" y="14" type="curve" smooth="yes"/>
      <point x="438" y="14" type="line" smooth="yes"/>
      <point x="381" y="14"/>
      <point x="325" y="6"/>
      <point x="283" y="-22" type="curve" smooth="yes"/>
      <point x="241" y="-50"/>
      <point x="213" y="-99"/>
      <point x="213" y="-180" type="curve" smooth="yes"/>
    </contour>
    <contour>
      <point x="332" y="570"/>
      <point x="386" y="492"/>
      <point x="518" y="492" type="curve" smooth="yes"/>
      <point x="585" y="492"/>
      <point x="630" y="512"/>
      <point x="659" y="553" type="curve" smooth="yes"/>
      <point x="688" y="594"/>
      <point x="700" y="659"/>
      <point x="700" y="748" type="curve" smooth="yes"/>
      <point x="700" y="932"/>
      <point x="649" y="1018"/>
      <point x="516" y="1018" type="curve" smooth="yes"/>
      <point x="384" y="1018"/>
      <point x="332" y="929"/>
      <point x="332" y="745" type="curve" smooth="yes"/>
    </contour>
  </outline>
</glyph>
<glyph name="h" format="1">
  <advance width="1300"/>
  <unicode hex="0068"/>
  <outline>
    <contour>
      <point x="588" y="86" type="line"/>
      <point x="588" y="0" type="line"/>
      <point x="37" y="0" type="line"/>
      <point x="37" y="86" type="line"/>
      <point x="53" y="86" type="line" smooth="yes"/>
      <point x="100" y="86"/>
      <point x="142" y="91"/>
      <point x="172" y="112" type="curve" smooth="yes"/>
      <point x="202" y="132"/>
      <point x="221" y="169"/>
      <point x="221" y="233" type="curve" smooth="yes"/>
      <point x="221" y="1331" type="line" smooth="yes"/>
      <point x="221" y="1391"/>
      <point x="202" y="1426"/>
      <point x="171" y="1446" type="curve" smooth="yes"/>
      <point x="140" y="1466"/>
      <point x="98" y="1470"/>
      <point x="53" y="1470" type="curve" smooth="yes"/>
      <point x="37" y="1470" type="line"/>
      <point x="37" y="1556" type="line"/>
      <point x="414" y="1556" type="line"/>
      <point x="414" y="1106" type="line" smooth="yes"/>
      <point x="414" y="1069"/>
      <point x="413" y="1026"/>
      <point x="410" y="991" type="curve"/>
      <point x="409" y="971"/>
      <point x="407" y="951"/>
      <point x="406" y="932" type="curve"/>
      <point x="416" y="932" type="line"/>
      <point x="477" y="1056"/>
      <point x="578" y="1118"/>
      <point x="717" y="1118" type="curve" smooth="yes"/>
      <point x="833" y="1118"/>
      <point x="924" y="1087"/>
      <point x="985" y="1023" type="curve" smooth="yes"/>
      <point x="1046" y="958"/>
      <point x="1079" y="857"/>
      <point x="1079" y="717" type="curve" smooth="yes"/>
      <point x="1079" y="233" type="line" smooth="yes"/>
      <point x="1079" y="169"/>
      <point x="1096" y="132"/>
      <point x="1124" y="112" type="curve" smooth="yes"/>
      <point x="1152" y="91"/>
      <point x="1192" y="86"/>
      <point x="1237" y="86" type="curve" smooth="yes"/>
      <point x="1243" y="86" type="line"/>
      <point x="1243" y="0" type="line"/>
      <point x="887" y="0" type="line"/>
      <point x="887" y="707" type="line" smooth="yes"/>
      <point x="887" y="796"/>
      <point x="872" y="866"/>
      <point x="837" y="914" type="curve" smooth="yes"/>
      <point x="801" y="962"/>
      <point x="745" y="987"/>
      <point x="662" y="987" type="curve" smooth="yes"/>
      <point x="577" y="987"/>
      <point x="515" y="955"/>
      <point x="475" y="897" type="curve" smooth="yes"/>
      <point x="434" y="839"/>
      <point x="414" y="755"/>
      <point x="414" y="655" type="curve" smooth="yes"/>
      <point x="414" y="223" type="line" smooth="yes"/>
      <point x="414" y="163"/>
      <point x="433" y="128"/>
      <point x="464" y="109" type="curve" smooth="yes"/>
      <point x="495" y="90"/>
      <point x="537" y="86"/>
      <point x="582" y="86" type="curve" smooth="yes"/>
    </contour>
  </outline>
</glyph>
<glyph name="i" format="1">
  <advance width="655"/>
  <unicode hex="0069"/>
  <outline>
    <contour>
      <point x="74" y="86" type="line" smooth="yes"/>
      <point x="119" y="86"/>
      <point x="161" y="90"/>
      <point x="192" y="109" type="curve" smooth="yes"/>
      <point x="223" y="128"/>
      <point x="242" y="163"/>
      <point x="242" y="223" type="curve" smooth="yes"/>
      <point x="242" y="872" type="line" smooth="yes"/>
      <point x="242" y="932"/>
      <point x="223" y="967"/>
      <point x="192" y="987" type="curve" smooth="yes"/>
      <point x="161" y="1007"/>
      <point x="119" y="1012"/>
      <point x="74" y="1012" type="curve" smooth="yes"/>
      <point x="68" y="1012" type="line"/>
      <point x="68" y="1098" type="line"/>
      <point x="434" y="1098" type="line"/>
      <point x="434" y="233" type="line" smooth="yes"/>
      <point x="434" y="169"/>
      <point x="454" y="132"/>
      <point x="484" y="112" type="curve" smooth="yes"/>
      <point x="514" y="91"/>
      <point x="557" y="86"/>
      <point x="602" y="86" type="curve" smooth="yes"/>
      <point x="629" y="86" type="line"/>
      <point x="629" y="0" type="line"/>
      <point x="47" y="0" type="line"/>
      <point x="47" y="86" type="line"/>
    </contour>
    <contour>
      <point x="213" y="1478"/>
      <point x="226" y="1509"/>
      <point x="247" y="1529" type="curve" smooth="yes"/>
      <point x="268" y="1549"/>
      <point x="297" y="1556"/>
      <point x="330" y="1556" type="curve" smooth="yes"/>
      <point x="362" y="1556"/>
      <point x="391" y="1549"/>
      <point x="412" y="1529" type="curve" smooth="yes"/>
      <point x="432" y="1509"/>
      <point x="446" y="1478"/>
      <point x="446" y="1430" type="curve" smooth="yes"/>
      <point x="446" y="1382"/>
      <point x="432" y="1351"/>
      <point x="412" y="1331" type="curve" smooth="yes"/>
      <point x="391" y="1311"/>
      <point x="362" y="1303"/>
      <point x="330" y="1303" type="curve" smooth="yes"/>
      <point x="297" y="1303"/>
      <point x="268" y="1311"/>
      <point x="247" y="1331" type="curve" smooth="yes"/>
      <point x="226" y="1351"/>
      <point x="213" y="1382"/>
      <point x="213" y="1430" type="curve" smooth="yes"/>
    </contour>
  </outline>
</glyph>
<glyph name="j" format="1">
  <advance width="614"/>
  <unicode hex="006A"/>
  <outline>
    <contour>
      <point x="414" y="1098" type="line"/>
      <point x="414" y="-16" type="line" smooth="yes"/>
      <point x="414" y="-200"/>
      <point x="372" y="-319"/>
      <point x="300" y="-391" type="curve" smooth="yes"/>
      <point x="228" y="-464"/>
      <point x="127" y="-492"/>
      <point x="8" y="-492" type="curve" smooth="yes"/>
      <point x="-25" y="-492" type="line"/>
      <point x="-25" y="-395" type="line"/>
      <point x="-10" y="-395" type="line" smooth="yes"/>
      <point x="63" y="-395"/>
      <point x="121" y="-372"/>
      <point x="161" y="-314" type="curve" smooth="yes"/>
      <point x="200" y="-256"/>
      <point x="221" y="-162"/>
      <point x="221" y="-18" type="curve" smooth="yes"/>
      <point x="221" y="872" type="line" smooth="yes"/>
      <point x="221" y="932"/>
      <point x="202" y="967"/>
      <point x="171" y="987" type="curve" smooth="yes"/>
      <point x="140" y="1007"/>
      <point x="98" y="1012"/>
      <point x="53" y="1012" type="curve" smooth="yes"/>
      <point x="47" y="1012" type="line"/>
      <point x="47" y="1098" type="line"/>
    </contour>
    <contour>
      <point x="193" y="1478"/>
      <point x="206" y="1509"/>
      <point x="227" y="1529" type="curve" smooth="yes"/>
      <point x="247" y="1549"/>
      <point x="277" y="1556"/>
      <point x="309" y="1556" type="curve" smooth="yes"/>
      <point x="341" y="1556"/>
      <point x="371" y="1549"/>
      <point x="392" y="1529" type="curve" smooth="yes"/>
      <point x="412" y="1509"/>
      <point x="426" y="1478"/>
      <point x="426" y="1430" type="curve" smooth="yes"/>
      <point x="426" y="1382"/>
      <point x="412" y="1351"/>
      <point x="392" y="1331" type="curve" smooth="yes"/>
      <point x="371" y="1311"/>
      <point x="341" y="1303"/>
      <point x="309" y="1303" type="curve" smooth="yes"/>
      <point x="277" y="1303"/>
      <point x="247" y="1311"/>
      <point x="227" y="1331" type="curve" smooth="yes"/>
      <point x="206" y="1351"/>
      <point x="193" y="1382"/>
      <point x="193" y="1430" type="curve" smooth="yes"/>
    </contour>
  </outline>
</glyph>
<glyph name="k" format="1">
  <advance width="1198"/>
  <unicode hex="006B"/>
  <outline>
    <contour>
      <point x="694" y="659" type="line"/>
      <point x="967" y="254" type="line" smooth="yes"/>
      <point x="1038" y="145"/>
      <point x="1102" y="86"/>
      <point x="1194" y="86" type="curve" smooth="yes"/>
      <point x="1200" y="86" type="line"/>
      <point x="1200" y="0" type="line"/>
      <point x="1171" y="0" type="line" smooth="yes"/>
      <point x="1052" y="0"/>
      <point x="981" y="4"/>
      <point x="925" y="32" type="curve" smooth="yes"/>
      <point x="869" y="59"/>
      <point x="827" y="108"/>
      <point x="770" y="199" type="curve" smooth="yes"/>
      <point x="565" y="520" type="line"/>
      <point x="414" y="408" type="line"/>
      <point x="414" y="223" type="line" smooth="yes"/>
      <point x="414" y="163"/>
      <point x="433" y="128"/>
      <point x="464" y="109" type="curve" smooth="yes"/>
      <point x="495" y="90"/>
      <point x="537" y="86"/>
      <point x="582" y="86" type="curve" smooth="yes"/>
      <point x="588" y="86" type="line"/>
      <point x="588" y="0" type="line"/>
      <point x="37" y="0" type="line"/>
      <point x="37" y="86" type="line"/>
      <point x="53" y="86" type="line" smooth="yes"/>
      <point x="100" y="86"/>
      <point x="142" y="91"/>
      <point x="172" y="112" type="curve" smooth="yes"/>
      <point x="202" y="132"/>
      <point x="221" y="169"/>
      <point x="221" y="233" type="curve" smooth="yes"/>
      <point x="221" y="1331" type="line" smooth="yes"/>
      <point x="221" y="1391"/>
      <point x="202" y="1426"/>
      <point x="171" y="1446" type="curve" smooth="yes"/>
      <point x="140" y="1466"/>
      <point x="98" y="1470"/>
      <point x="53" y="1470" type="curve" smooth="yes"/>
      <point x="37" y="1470" type="line"/>
      <point x="37" y="1556" type="line"/>
      <point x="414" y="1556" type="line"/>
      <point x="414" y="766" type="line" smooth="yes"/>
      <point x="414" y="729"/>
      <point x="413" y="665"/>
      <point x="410" y="609" type="curve" smooth="yes"/>
      <point x="409" y="577"/>
      <point x="407" y="543"/>
      <point x="406" y="508" type="curve"/>
      <point x="662" y="788" type="line" smooth="yes"/>
      <point x="706" y="837"/>
      <point x="734" y="874"/>
      <point x="751" y="902" type="curve" smooth="yes"/>
      <point x="768" y="930"/>
      <point x="774" y="951"/>
      <point x="774" y="971" type="curve" smooth="yes"/>
      <point x="774" y="988"/>
      <point x="766" y="1000"/>
      <point x="750" y="1005" type="curve" smooth="yes"/>
      <point x="733" y="1010"/>
      <point x="708" y="1012"/>
      <point x="674" y="1012" type="curve"/>
      <point x="674" y="1098" type="line"/>
      <point x="1126" y="1098" type="line"/>
      <point x="1126" y="1012" type="line"/>
      <point x="1031" y="1012"/>
      <point x="945" y="942"/>
      <point x="838" y="821" type="curve" smooth="yes"/>
    </contour>
  </outline>
</glyph>
<glyph name="l" format="1">
  <advance width="635"/>
  <unicode hex="006C"/>
  <outline>
    <contour>
      <point x="53" y="86" type="line" smooth="yes"/>
      <point x="100" y="86"/>
      <point x="142" y="91"/>
      <point x="172" y="112" type="curve" smooth="yes"/>
      <point x="202" y="132"/>
      <point x="221" y="169"/>
      <point x="221" y="233" type="curve" smooth="yes"/>
      <point x="221" y="1331" type="line" smooth="yes"/>
      <point x="221" y="1391"/>
      <point x="202" y="1426"/>
      <point x="171" y="1446" type="curve" smooth="yes"/>
      <point x="140" y="1466"/>
      <point x="98" y="1470"/>
      <point x="53" y="1470" type="curve" smooth="yes"/>
      <point x="27" y="1470" type="line"/>
      <point x="27" y="1556" type="line"/>
      <point x="414" y="1556" type="line"/>
      <point x="414" y="233" type="line" smooth="yes"/>
      <point x="414" y="169"/>
      <point x="432" y="132"/>
      <point x="463" y="112" type="curve" smooth="yes"/>
      <point x="494" y="91"/>
      <point x="535" y="86"/>
      <point x="582" y="86" type="curve" smooth="yes"/>
      <point x="608" y="86" type="line"/>
      <point x="608" y="0" type="line"/>
      <point x="27" y="0" type="line"/>
      <point x="27" y="86" type="line"/>
    </contour>
  </outline>
</glyph>
<glyph name="m" format="1">
  <advance width="1935"/>
  <unicode hex="006D"/>
  <outline>
    <contour>
      <point x="608" y="86" type="line"/>
      <point x="608" y="0" type="line"/>
      <point x="57" y="0" type="line"/>
      <point x="57" y="86" type="line"/>
      <point x="84" y="86" type="line" smooth="yes"/>
      <point x="131" y="86"/>
      <point x="170" y="91"/>
      <point x="198" y="112" type="curve" smooth="yes"/>
      <point x="226" y="132"/>
      <point x="242" y="169"/>
      <point x="242" y="233" type="curve" smooth="yes"/>
      <point x="242" y="872" type="line" smooth="yes"/>
      <point x="242" y="932"/>
      <point x="225" y="967"/>
      <point x="197" y="987" type="curve" smooth="yes"/>
      <point x="169" y="1007"/>
      <point x="129" y="1012"/>
      <point x="84" y="1012" type="curve" smooth="yes"/>
      <point x="78" y="1012" type="line"/>
      <point x="78" y="1098" type="line"/>
      <point x="399" y="1098" type="line"/>
      <point x="426" y="932" type="line"/>
      <point x="436" y="932" type="line"/>
      <point x="477" y="1008"/>
      <point x="522" y="1055"/>
      <point x="574" y="1083" type="curve" smooth="yes"/>
      <point x="625" y="1110"/>
      <point x="681" y="1118"/>
      <point x="745" y="1118" type="curve" smooth="yes"/>
      <point x="812" y="1118"/>
      <point x="872" y="1105"/>
      <point x="924" y="1076" type="curve" smooth="yes"/>
      <point x="975" y="1047"/>
      <point x="1017" y="1000"/>
      <point x="1042" y="932" type="curve"/>
      <point x="1059" y="932" type="line"/>
      <point x="1100" y="1008"/>
      <point x="1149" y="1055"/>
      <point x="1203" y="1083" type="curve" smooth="yes"/>
      <point x="1257" y="1110"/>
      <point x="1316" y="1118"/>
      <point x="1380" y="1118" type="curve" smooth="yes"/>
      <point x="1484" y="1118"/>
      <point x="1568" y="1087"/>
      <point x="1625" y="1023" type="curve" smooth="yes"/>
      <point x="1682" y="958"/>
      <point x="1714" y="857"/>
      <point x="1714" y="717" type="curve" smooth="yes"/>
      <point x="1714" y="233" type="line" smooth="yes"/>
      <point x="1714" y="169"/>
      <point x="1731" y="132"/>
      <point x="1759" y="112" type="curve" smooth="yes"/>
      <point x="1787" y="91"/>
      <point x="1827" y="86"/>
      <point x="1872" y="86" type="curve" smooth="yes"/>
      <point x="1878" y="86" type="line"/>
      <point x="1878" y="0" type="line"/>
      <point x="1522" y="0" type="line"/>
      <point x="1522" y="707" type="line" smooth="yes"/>
      <point x="1522" y="796"/>
      <point x="1508" y="866"/>
      <point x="1474" y="914" type="curve" smooth="yes"/>
      <point x="1440" y="962"/>
      <point x="1386" y="987"/>
      <point x="1307" y="987" type="curve" smooth="yes"/>
      <point x="1222" y="987"/>
      <point x="1165" y="952"/>
      <point x="1129" y="896" type="curve" smooth="yes"/>
      <point x="1093" y="840"/>
      <point x="1079" y="765"/>
      <point x="1079" y="682" type="curve" smooth="yes"/>
      <point x="1079" y="233" type="line" smooth="yes"/>
      <point x="1079" y="169"/>
      <point x="1096" y="132"/>
      <point x="1124" y="112" type="curve" smooth="yes"/>
      <point x="1152" y="91"/>
      <point x="1192" y="86"/>
      <point x="1237" y="86" type="curve" smooth="yes"/>
      <point x="1243" y="86" type="line"/>
      <point x="1243" y="0" type="line"/>
      <point x="887" y="0" type="line"/>
      <point x="887" y="707" type="line" smooth="yes"/>
      <point x="887" y="796"/>
      <point x="873" y="866"/>
      <point x="839" y="914" type="curve" smooth="yes"/>
      <point x="805" y="962"/>
      <point x="751" y="987"/>
      <point x="672" y="987" type="curve" smooth="yes"/>
      <point x="583" y="987"/>
      <point x="523" y="948"/>
      <point x="486" y="887" type="curve" smooth="yes"/>
      <point x="449" y="826"/>
      <point x="434" y="743"/>
      <point x="434" y="655" type="curve" smooth="yes"/>
      <point x="434" y="223" type="line" smooth="yes"/>
      <point x="434" y="163"/>
      <point x="453" y="128"/>
      <point x="484" y="109" type="curve" smooth="yes"/>
      <point x="515" y="90"/>
      <point x="557" y="86"/>
      <point x="602" y="86" type="curve" smooth="yes"/>
    </contour>
  </outline>
</glyph>
<glyph name="n" format="1">
  <advance width="1321"/>
  <unicode hex="006E"/>
  <outline>
    <contour>
      <point x="608" y="86" type="line"/>
      <point x="608" y="0" type="line"/>
      <point x="57" y="0" type="line"/>
      <point x="57" y="86" type="line"/>
      <point x="74" y="86" type="line" smooth="yes"/>
      <point x="121" y="86"/>
      <point x="163" y="91"/>
      <point x="193" y="112" type="curve" smooth="yes"/>
      <point x="223" y="132"/>
      <point x="242" y="169"/>
      <point x="242" y="233" type="curve" smooth="yes"/>
      <point x="242" y="872" type="line" smooth="yes"/>
      <point x="242" y="932"/>
      <point x="223" y="967"/>
      <point x="192" y="987" type="curve" smooth="yes"/>
      <point x="161" y="1007"/>
      <point x="119" y="1012"/>
      <point x="74" y="1012" type="curve" smooth="yes"/>
      <point x="68" y="1012" type="line"/>
      <point x="68" y="1098" type="line"/>
      <point x="399" y="1098" type="line"/>
      <point x="426" y="932" type="line"/>
      <point x="436" y="932" type="line"/>
      <point x="479" y="1008"/>
      <point x="526" y="1055"/>
      <point x="579" y="1083" type="curve" smooth="yes"/>
      <point x="631" y="1110"/>
      <point x="691" y="1118"/>
      <point x="756" y="1118" type="curve" smooth="yes"/>
      <point x="864" y="1118"/>
      <point x="949" y="1087"/>
      <point x="1009" y="1023" type="curve" smooth="yes"/>
      <point x="1068" y="958"/>
      <point x="1100" y="857"/>
      <point x="1100" y="717" type="curve" smooth="yes"/>
      <point x="1100" y="233" type="line" smooth="yes"/>
      <point x="1100" y="169"/>
      <point x="1116" y="132"/>
      <point x="1144" y="112" type="curve" smooth="yes"/>
      <point x="1172" y="91"/>
      <point x="1212" y="86"/>
      <point x="1257" y="86" type="curve" smooth="yes"/>
      <point x="1264" y="86" type="line"/>
      <point x="1264" y="0" type="line"/>
      <point x="907" y="0" type="line"/>
      <point x="907" y="707" type="line" smooth="yes"/>
      <point x="907" y="796"/>
      <point x="892" y="866"/>
      <point x="857" y="914" type="curve" smooth="yes"/>
      <point x="821" y="962"/>
      <point x="765" y="987"/>
      <point x="682" y="987" type="curve" smooth="yes"/>
      <point x="589" y="987"/>
      <point x="527" y="948"/>
      <point x="488" y="887" type="curve" smooth="yes"/>
      <point x="449" y="826"/>
      <point x="434" y="743"/>
      <point x="434" y="655" type="curve" smooth="yes"/>
      <point x="434" y="223" type="line" smooth="yes"/>
      <point x="434" y="163"/>
      <point x="453" y="128"/>
      <point x="484" y="109" type="curve" smooth="yes"/>
      <point x="515" y="90"/>
      <point x="557" y="86"/>
      <point x="602" y="86" type="curve" smooth="yes"/>
    </contour>
  </outline>
</glyph>
<glyph name="o" format="1">
  <advance width="1182"/>
  <unicode hex="006F"/>
  <outline>
    <contour>
      <point x="1069" y="166"/>
      <point x="903" y="-20"/>
      <point x="588" y="-20" type="curve" smooth="yes"/>
      <point x="440" y="-20"/>
      <point x="322" y="26"/>
      <point x="240" y="121" type="curve" smooth="yes"/>
      <point x="158" y="216"/>
      <point x="113" y="359"/>
      <point x="113" y="551" type="curve" smooth="yes"/>
      <point x="113" y="934"/>
      <point x="277" y="1118"/>
      <point x="594" y="1118" type="curve" smooth="yes"/>
      <point x="742" y="1118"/>
      <point x="861" y="1073"/>
      <point x="943" y="979" type="curve" smooth="yes"/>
      <point x="1025" y="885"/>
      <point x="1069" y="743"/>
      <point x="1069" y="551" type="curve" smooth="yes"/>
    </contour>
    <contour>
      <point x="311" y="399"/>
      <point x="330" y="283"/>
      <point x="375" y="205" type="curve" smooth="yes"/>
      <point x="419" y="127"/>
      <point x="489" y="86"/>
      <point x="592" y="86" type="curve" smooth="yes"/>
      <point x="695" y="86"/>
      <point x="764" y="127"/>
      <point x="808" y="205" type="curve" smooth="yes"/>
      <point x="852" y="283"/>
      <point x="870" y="399"/>
      <point x="870" y="551" type="curve" smooth="yes"/>
      <point x="870" y="703"/>
      <point x="851" y="818"/>
      <point x="807" y="895" type="curve" smooth="yes"/>
      <point x="763" y="971"/>
      <point x="693" y="1010"/>
      <point x="590" y="1010" type="curve" smooth="yes"/>
      <point x="487" y="1010"/>
      <point x="418" y="971"/>
      <point x="374" y="895" type="curve" smooth="yes"/>
      <point x="330" y="818"/>
      <point x="311" y="703"/>
      <point x="311" y="551" type="curve" smooth="yes"/>
    </contour>
  </outline>
</glyph>
<glyph name="q" format="1">
  <advance width="1257"/>
  <unicode hex="0071"/>
  <outline>
    <contour>
      <point x="1221" y="-492" type="line"/>
      <point x="608" y="-492" type="line"/>
      <point x="608" y="-406" type="line"/>
      <point x="676" y="-406" type="line" smooth="yes"/>
      <point x="723" y="-406"/>
      <point x="765" y="-401"/>
      <point x="795" y="-380" type="curve" smooth="yes"/>
      <point x="825" y="-360"/>
      <point x="844" y="-322"/>
      <point x="844" y="-258" type="curve" smooth="yes"/>
      <point x="844" y="-82" type="line" smooth="yes"/>
      <point x="844" y="-35"/>
      <point x="845" y="30"/>
      <point x="848" y="86" type="curve" smooth="yes"/>
      <point x="849" y="118"/>
      <point x="851" y="151"/>
      <point x="852" y="184" type="curve"/>
      <point x="844" y="184" type="line"/>
      <point x="813" y="121"/>
      <point x="775" y="71"/>
      <point x="724" y="36" type="curve" smooth="yes"/>
      <point x="673" y="0"/>
      <point x="610" y="-20"/>
      <point x="530" y="-20" type="curve" smooth="yes"/>
      <point x="395" y="-20"/>
      <point x="291" y="24"/>
      <point x="220" y="117" type="curve" smooth="yes"/>
      <point x="149" y="209"/>
      <point x="113" y="351"/>
      <point x="113" y="547" type="curve" smooth="yes"/>
      <point x="113" y="744"/>
      <point x="149" y="888"/>
      <point x="220" y="981" type="curve" smooth="yes"/>
      <point x="291" y="1074"/>
      <point x="395" y="1118"/>
      <point x="530" y="1118" type="curve" smooth="yes"/>
      <point x="609" y="1118"/>
      <point x="672" y="1100"/>
      <point x="724" y="1068" type="curve" smooth="yes"/>
      <point x="775" y="1036"/>
      <point x="815" y="991"/>
      <point x="844" y="938" type="curve"/>
      <point x="856" y="938" type="line"/>
      <point x="893" y="1098" type="line"/>
      <point x="1221" y="1098" type="line"/>
      <point x="1221" y="1012" type="line"/>
      <point x="1204" y="1012" type="line" smooth="yes"/>
      <point x="1159" y="1012"/>
      <point x="1116" y="1007"/>
      <point x="1086" y="987" type="curve" smooth="yes"/>
      <point x="1056" y="966"/>
      <point x="1036" y="928"/>
      <point x="1036" y="864" type="curve" smooth="yes"/>
      <point x="1036" y="-266" type="line" smooth="yes"/>
      <point x="1036" y="-326"/>
      <point x="1055" y="-361"/>
      <point x="1086" y="-381" type="curve" smooth="yes"/>
      <point x="1117" y="-401"/>
      <point x="1159" y="-406"/>
      <point x="1204" y="-406" type="curve" smooth="yes"/>
      <point x="1221" y="-406" type="line"/>
    </contour>
    <contour>
      <point x="672" y="111"/>
      <point x="741" y="146"/>
      <point x="785" y="218" type="curve" smooth="yes"/>
      <point x="828" y="290"/>
      <point x="844" y="399"/>
      <point x="844" y="547" type="curve" smooth="yes"/>
      <point x="844" y="690"/>
      <point x="828" y="800"/>
      <point x="785" y="874" type="curve" smooth="yes"/>
      <point x="741" y="948"/>
      <point x="671" y="987"/>
      <point x="563" y="987" type="curve" smooth="yes"/>
      <point x="474" y="987"/>
      <point x="410" y="948"/>
      <point x="370" y="873" type="curve" smooth="yes"/>
      <point x="329" y="798"/>
      <point x="311" y="688"/>
      <point x="311" y="545" type="curve" smooth="yes"/>
      <point x="311" y="254"/>
      <point x="384" y="111"/>
      <point x="565" y="111" type="curve" smooth="yes"/>
    </contour>
  </outline>
</glyph>
<glyph name="r" format="1">
  <advance width="965"/>
  <unicode hex="0072"/>
  <outline>
    <contour>
      <point x="659" y="0" type="line"/>
      <point x="68" y="0" type="line"/>
      <point x="68" y="86" type="line"/>
      <point x="74" y="86" type="line" smooth="yes"/>
      <point x="121" y="86"/>
      <point x="163" y="91"/>
      <point x="193" y="112" type="curve" smooth="yes"/>
      <point x="223" y="132"/>
      <point x="242" y="169"/>
      <point x="242" y="233" type="curve" smooth="yes"/>
      <point x="242" y="872" type="line" smooth="yes"/>
      <point x="242" y="932"/>
      <point x="223" y="967"/>
      <point x="192" y="987" type="curve" smooth="yes"/>
      <point x="161" y="1007"/>
      <point x="119" y="1012"/>
      <point x="74" y="1012" type="curve" smooth="yes"/>
      <point x="68" y="1012" type="line"/>
      <point x="68" y="1098" type="line"/>
      <point x="383" y="1098" type="line"/>
      <point x="422" y="895" type="line"/>
      <point x="432" y="895" type="line"/>
      <point x="459" y="956"/>
      <point x="484" y="1012"/>
      <point x="525" y="1053" type="curve" smooth="yes"/>
      <point x="565" y="1093"/>
      <point x="622" y="1118"/>
      <point x="713" y="1118" type="curve" smooth="yes"/>
      <point x="862" y="1118"/>
      <point x="934" y="1064"/>
      <point x="934" y="969" type="curve" smooth="yes"/>
      <point x="934" y="926"/>
      <point x="921" y="890"/>
      <point x="890" y="864" type="curve" smooth="yes"/>
      <point x="859" y="838"/>
      <point x="812" y="823"/>
      <point x="743" y="823" type="curve"/>
      <point x="743" y="936"/>
      <point x="715" y="983"/>
      <point x="635" y="983" type="curve" smooth="yes"/>
      <point x="584" y="983"/>
      <point x="545" y="952"/>
      <point x="515" y="905" type="curve" smooth="yes"/>
      <point x="485" y="857"/>
      <point x="464" y="793"/>
      <point x="452" y="729" type="curve" smooth="yes"/>
      <point x="439" y="664"/>
      <point x="434" y="597"/>
      <point x="434" y="545" type="curve" smooth="yes"/>
      <point x="434" y="223" type="line" smooth="yes"/>
      <point x="434" y="163"/>
      <point x="453" y="128"/>
      <point x="484" y="109" type="curve" smooth="yes"/>
      <point x="515" y="90"/>
      <point x="557" y="86"/>
      <point x="602" y="86" type="curve" smooth="yes"/>
      <point x="659" y="86" type="line"/>
    </contour>
  </outline>
</glyph>
<glyph name="s" format="1">
  <advance width="924"/>
  <unicode hex="0073"/>
  <outline>
    <contour>
      <point x="327" y="-20"/>
      <point x="243" y="-2"/>
      <point x="184" y="35" type="curve" smooth="yes"/>
      <point x="125" y="71"/>
      <point x="92" y="125"/>
      <point x="92" y="197" type="curve" smooth="yes"/>
      <point x="92" y="252"/>
      <point x="113" y="288"/>
      <point x="139" y="309" type="curve" smooth="yes"/>
      <point x="165" y="330"/>
      <point x="197" y="338"/>
      <point x="221" y="338" type="curve"/>
      <point x="221" y="266"/>
      <point x="234" y="202"/>
      <point x="269" y="155" type="curve" smooth="yes"/>
      <point x="304" y="107"/>
      <point x="359" y="78"/>
      <point x="442" y="78" type="curve" smooth="yes"/>
      <point x="515" y="78"/>
      <point x="572" y="97"/>
      <point x="610" y="130" type="curve" smooth="yes"/>
      <point x="648" y="162"/>
      <point x="668" y="209"/>
      <point x="668" y="264" type="curve" smooth="yes"/>
      <point x="668" y="315"/>
      <point x="655" y="349"/>
      <point x="617" y="381" type="curve" smooth="yes"/>
      <point x="579" y="413"/>
      <point x="515" y="444"/>
      <point x="416" y="487" type="curve" smooth="yes"/>
      <point x="311" y="534"/>
      <point x="233" y="574"/>
      <point x="182" y="625" type="curve" smooth="yes"/>
      <point x="131" y="676"/>
      <point x="106" y="738"/>
      <point x="106" y="827" type="curve" smooth="yes"/>
      <point x="106" y="920"/>
      <point x="144" y="993"/>
      <point x="212" y="1042" type="curve" smooth="yes"/>
      <point x="280" y="1090"/>
      <point x="376" y="1116"/>
      <point x="492" y="1116" type="curve" smooth="yes"/>
      <point x="589" y="1116"/>
      <point x="664" y="1095"/>
      <point x="715" y="1061" type="curve" smooth="yes"/>
      <point x="766" y="1027"/>
      <point x="791" y="979"/>
      <point x="791" y="928" type="curve" smooth="yes"/>
      <point x="791" y="853"/>
      <point x="738" y="805"/>
      <point x="643" y="805" type="curve"/>
      <point x="643" y="942"/>
      <point x="588" y="1022"/>
      <point x="467" y="1022" type="curve" smooth="yes"/>
      <point x="398" y="1022"/>
      <point x="349" y="1005"/>
      <point x="318" y="976" type="curve" smooth="yes"/>
      <point x="286" y="947"/>
      <point x="272" y="906"/>
      <point x="272" y="858" type="curve" smooth="yes"/>
      <point x="272" y="806"/>
      <point x="290" y="770"/>
      <point x="331" y="738" type="curve" smooth="yes"/>
      <point x="371" y="706"/>
      <point x="435" y="678"/>
      <point x="526" y="641" type="curve" smooth="yes"/>
      <point x="634" y="596"/>
      <point x="711" y="554"/>
      <point x="761" y="502" type="curve" smooth="yes"/>
      <point x="811" y="450"/>
      <point x="834" y="386"/>
      <point x="834" y="301" type="curve" smooth="yes"/>
      <point x="834" y="194"/>
      <point x="794" y="115"/>
      <point x="723" y="61" type="curve" smooth="yes"/>
      <point x="652" y="7"/>
      <point x="551" y="-20"/>
      <point x="430" y="-20" type="curve" smooth="yes"/>
    </contour>
  </outline>
</glyph>
<glyph name="t" format="1">
  <advance width="721"/>
  <unicode hex="0074"/>
  <outline>
    <contour>
      <point x="592" y="88"/>
      <point x="631" y="94"/>
      <point x="674" y="102" type="curve"/>
      <point x="674" y="12" type="line"/>
      <point x="657" y="4"/>
      <point x="627" y="-4"/>
      <point x="595" y="-10" type="curve" smooth="yes"/>
      <point x="562" y="-16"/>
      <point x="524" y="-20"/>
      <point x="492" y="-20" type="curve" smooth="yes"/>
      <point x="388" y="-20"/>
      <point x="314" y="1"/>
      <point x="266" y="50" type="curve" smooth="yes"/>
      <point x="218" y="99"/>
      <point x="195" y="180"/>
      <point x="195" y="297" type="curve" smooth="yes"/>
      <point x="195" y="981" type="line"/>
      <point x="39" y="981" type="line"/>
      <point x="39" y="1063" type="line"/>
      <point x="88" y="1063"/>
      <point x="154" y="1081"/>
      <point x="199" y="1128" type="curve" smooth="yes"/>
      <point x="246" y="1179"/>
      <point x="272" y="1245"/>
      <point x="293" y="1350" type="curve"/>
      <point x="387" y="1350" type="line"/>
      <point x="387" y="1098" type="line"/>
      <point x="655" y="1098" type="line"/>
      <point x="655" y="981" type="line"/>
      <point x="387" y="981" type="line"/>
      <point x="387" y="291" type="line" smooth="yes"/>
      <point x="387" y="151"/>
      <point x="448" y="88"/>
      <point x="543" y="88" type="curve" smooth="yes"/>
    </contour>
  </outline>
</glyph>
<glyph name="v" format="1">
  <advance width="1186"/>
  <unicode hex="0076"/>
  <outline>
    <contour>
      <point x="8" y="1012" type="line"/>
      <point x="8" y="1098" type="line"/>
      <point x="520" y="1098" type="line"/>
      <point x="520" y="1012" type="line"/>
      <point x="494" y="1012" type="line" smooth="yes"/>
      <point x="411" y="1012"/>
      <point x="371" y="981"/>
      <point x="371" y="913" type="curve" smooth="yes"/>
      <point x="371" y="890"/>
      <point x="376" y="869"/>
      <point x="387" y="838" type="curve" smooth="yes"/>
      <point x="526" y="451" type="line" smooth="yes"/>
      <point x="543" y="403"/>
      <point x="563" y="342"/>
      <point x="580" y="286" type="curve" smooth="yes"/>
      <point x="596" y="230"/>
      <point x="611" y="178"/>
      <point x="616" y="143" type="curve"/>
      <point x="623" y="143" type="line"/>
      <point x="630" y="172"/>
      <point x="646" y="217"/>
      <point x="666" y="269" type="curve" smooth="yes"/>
      <point x="675" y="294"/>
      <point x="685" y="320"/>
      <point x="696" y="347" type="curve" smooth="yes"/>
      <point x="706" y="374"/>
      <point x="716" y="399"/>
      <point x="725" y="424" type="curve" smooth="yes"/>
      <point x="872" y="823" type="line" smooth="yes"/>
      <point x="885" y="856"/>
      <point x="891" y="888"/>
      <point x="891" y="911" type="curve" smooth="yes"/>
      <point x="891" y="982"/>
      <point x="847" y="1012"/>
      <point x="756" y="1012" type="curve" smooth="yes"/>
      <point x="741" y="1012" type="line"/>
      <point x="741" y="1098" type="line"/>
      <point x="1180" y="1098" type="line"/>
      <point x="1180" y="1012" type="line"/>
      <point x="1155" y="1012" type="line" smooth="yes"/>
      <point x="1115" y="1012"/>
      <point x="1089" y="1005"/>
      <point x="1066" y="981" type="curve" smooth="yes"/>
      <point x="1043" y="957"/>
      <point x="1024" y="917"/>
      <point x="999" y="852" type="curve" smooth="yes"/>
      <point x="676" y="0" type="line"/>
      <point x="489" y="0" type="line"/>
      <point x="160" y="903" type="line" smooth="yes"/>
      <point x="144" y="946"/>
      <point x="128" y="973"/>
      <point x="105" y="990" type="curve" smooth="yes"/>
      <point x="82" y="1006"/>
      <point x="54" y="1012"/>
      <point x="14" y="1012" type="curve" smooth="yes"/>
    </contour>
  </outline>
</glyph>
<glyph name="w" format="1">
  <advance width="1765"/>
  <unicode hex="0077"/>
  <outline>
    <contour>
      <point x="975" y="1092" type="line"/>
      <point x="1180" y="485" type="line" smooth="yes"/>
      <point x="1196" y="436"/>
      <point x="1215" y="377"/>
      <point x="1231" y="322" type="curve" smooth="yes"/>
      <point x="1247" y="266"/>
      <point x="1261" y="215"/>
      <point x="1268" y="180" type="curve"/>
      <point x="1274" y="180" type="line"/>
      <point x="1286" y="248"/>
      <point x="1313" y="347"/>
      <point x="1354" y="479" type="curve" smooth="yes"/>
      <point x="1456" y="809" type="line" smooth="yes"/>
      <point x="1467" y="844"/>
      <point x="1475" y="888"/>
      <point x="1475" y="911" type="curve" smooth="yes"/>
      <point x="1475" y="982"/>
      <point x="1431" y="1012"/>
      <point x="1339" y="1012" type="curve" smooth="yes"/>
      <point x="1325" y="1012" type="line"/>
      <point x="1325" y="1098" type="line"/>
      <point x="1763" y="1098" type="line"/>
      <point x="1763" y="1012" type="line"/>
      <point x="1737" y="1012" type="line" smooth="yes"/>
      <point x="1697" y="1012"/>
      <point x="1669" y="1006"/>
      <point x="1646" y="983" type="curve" smooth="yes"/>
      <point x="1622" y="959"/>
      <point x="1603" y="920"/>
      <point x="1583" y="852" type="curve" smooth="yes"/>
      <point x="1319" y="0" type="line"/>
      <point x="1155" y="0" type="line"/>
      <point x="911" y="721" type="line"/>
      <point x="874" y="856" type="line"/>
      <point x="584" y="0" type="line"/>
      <point x="422" y="0" type="line"/>
      <point x="154" y="903" type="line"/>
      <point x="138" y="946"/>
      <point x="122" y="973"/>
      <point x="99" y="990" type="curve" smooth="yes"/>
      <point x="76" y="1006"/>
      <point x="48" y="1012"/>
      <point x="8" y="1012" type="curve" smooth="yes"/>
      <point x="2" y="1012" type="line"/>
      <point x="2" y="1098" type="line"/>
      <point x="508" y="1098" type="line"/>
      <point x="508" y="1012" type="line"/>
      <point x="481" y="1012" type="line" smooth="yes"/>
      <point x="400" y="1012"/>
      <point x="358" y="993"/>
      <point x="358" y="926" type="curve" smooth="yes"/>
      <point x="358" y="903"/>
      <point x="367" y="869"/>
      <point x="375" y="838" type="curve" smooth="yes"/>
      <point x="471" y="494" type="line" smooth="yes"/>
      <point x="484" y="445"/>
      <point x="500" y="384"/>
      <point x="513" y="326" type="curve" smooth="yes"/>
      <point x="525" y="268"/>
      <point x="536" y="215"/>
      <point x="543" y="180" type="curve"/>
      <point x="549" y="180" type="line"/>
      <point x="556" y="215"/>
      <point x="567" y="262"/>
      <point x="583" y="315" type="curve" smooth="yes"/>
      <point x="598" y="367"/>
      <point x="616" y="424"/>
      <point x="633" y="473" type="curve" smooth="yes"/>
      <point x="846" y="1092" type="line"/>
    </contour>
  </outline>
</glyph>
<glyph name="x" format="1">
  <advance width="1184"/>
  <unicode hex="0078"/>
  <outline>
    <contour>
      <point x="786" y="1001"/>
      <point x="739" y="1012"/>
      <point x="676" y="1012" type="curve" smooth="yes"/>
      <point x="670" y="1012" type="line"/>
      <point x="670" y="1098" type="line"/>
      <point x="1118" y="1098" type="line"/>
      <point x="1118" y="1012" type="line"/>
      <point x="1100" y="1012" type="line" smooth="yes"/>
      <point x="1060" y="1012"/>
      <point x="1029" y="1007"/>
      <point x="998" y="988" type="curve" smooth="yes"/>
      <point x="966" y="969"/>
      <point x="934" y="936"/>
      <point x="893" y="881" type="curve" smooth="yes"/>
      <point x="682" y="600" type="line"/>
      <point x="983" y="195" type="line" smooth="yes"/>
      <point x="1043" y="115"/>
      <point x="1096" y="86"/>
      <point x="1147" y="86" type="curve" smooth="yes"/>
      <point x="1174" y="86" type="line"/>
      <point x="1174" y="0" type="line"/>
      <point x="645" y="0" type="line"/>
      <point x="645" y="86" type="line"/>
      <point x="655" y="86" type="line" smooth="yes"/>
      <point x="737" y="86"/>
      <point x="778" y="109"/>
      <point x="778" y="154" type="curve" smooth="yes"/>
      <point x="778" y="169"/>
      <point x="775" y="183"/>
      <point x="763" y="204" type="curve" smooth="yes"/>
      <point x="751" y="224"/>
      <point x="732" y="252"/>
      <point x="700" y="295" type="curve" smooth="yes"/>
      <point x="563" y="479" type="line"/>
      <point x="420" y="279" type="line" smooth="yes"/>
      <point x="408" y="263"/>
      <point x="394" y="241"/>
      <point x="383" y="218" type="curve" smooth="yes"/>
      <point x="372" y="195"/>
      <point x="365" y="171"/>
      <point x="365" y="150" type="curve" smooth="yes"/>
      <point x="365" y="103"/>
      <point x="400" y="86"/>
      <point x="492" y="86" type="curve" smooth="yes"/>
      <point x="498" y="86" type="line"/>
      <point x="498" y="0" type="line"/>
      <point x="10" y="0" type="line"/>
      <point x="10" y="86" type="line"/>
      <point x="29" y="86" type="line" smooth="yes"/>
      <point x="78" y="86"/>
      <point x="114" y="93"/>
      <point x="147" y="113" type="curve" smooth="yes"/>
      <point x="180" y="133"/>
      <point x="212" y="166"/>
      <point x="252" y="217" type="curve" smooth="yes"/>
      <point x="510" y="551" type="line"/>
      <point x="252" y="903" type="line"/>
      <point x="192" y="974"/>
      <point x="137" y="1012"/>
      <point x="76" y="1012" type="curve" smooth="yes"/>
      <point x="49" y="1012" type="line"/>
      <point x="49" y="1098" type="line"/>
      <point x="569" y="1098" type="line"/>
      <point x="569" y="1012" type="line"/>
      <point x="563" y="1012" type="line" smooth="yes"/>
      <point x="516" y="1012"/>
      <point x="486" y="1006"/>
      <point x="469" y="995" type="curve"/>
      <point x="452" y="983"/>
      <point x="446" y="968"/>
      <point x="446" y="952" type="curve" smooth="yes"/>
      <point x="446" y="924"/>
      <point x="463" y="901"/>
      <point x="494" y="858" type="curve" smooth="yes"/>
      <point x="629" y="674" type="line"/>
      <point x="735" y="827" type="line" smooth="yes"/>
      <point x="766" y="874"/>
      <point x="786" y="915"/>
      <point x="786" y="952" type="curve" smooth="yes"/>
    </contour>
  </outline>
</glyph>
<glyph name="y" format="1">
  <advance width="1157"/>
  <unicode hex="0079"/>
  <outline>
    <contour>
      <point x="1157" y="1098" type="line"/>
      <point x="1157" y="1012" type="line"/>
      <point x="1151" y="1012" type="line" smooth="yes"/>
      <point x="1111" y="1012"/>
      <point x="1084" y="1005"/>
      <point x="1061" y="981" type="curve" smooth="yes"/>
      <point x="1037" y="957"/>
      <point x="1019" y="917"/>
      <point x="995" y="852" type="curve" smooth="yes"/>
      <point x="684" y="-8" type="line" smooth="yes"/>
      <point x="636" y="-140"/>
      <point x="596" y="-239"/>
      <point x="549" y="-310" type="curve" smooth="yes"/>
      <point x="502" y="-382"/>
      <point x="449" y="-427"/>
      <point x="378" y="-455" type="curve" smooth="yes"/>
      <point x="307" y="-483"/>
      <point x="217" y="-492"/>
      <point x="96" y="-492" type="curve" smooth="yes"/>
      <point x="78" y="-492" type="line"/>
      <point x="78" y="-395" type="line"/>
      <point x="217" y="-395"/>
      <point x="314" y="-351"/>
      <point x="387" y="-279" type="curve" smooth="yes"/>
      <point x="459" y="-207"/>
      <point x="506" y="-107"/>
      <point x="539" y="8" type="curve"/>
      <point x="160" y="903" type="line" smooth="yes"/>
      <point x="141" y="946"/>
      <point x="126" y="972"/>
      <point x="104" y="989" type="curve" smooth="yes"/>
      <point x="82" y="1006"/>
      <point x="54" y="1012"/>
      <point x="14" y="1012" type="curve" smooth="yes"/>
      <point x="8" y="1012" type="line"/>
      <point x="8" y="1098" type="line"/>
      <point x="500" y="1098" type="line"/>
      <point x="500" y="1012" type="line"/>
      <point x="494" y="1012" type="line" smooth="yes"/>
      <point x="411" y="1012"/>
      <point x="371" y="981"/>
      <point x="371" y="913" type="curve" smooth="yes"/>
      <point x="371" y="890"/>
      <point x="375" y="869"/>
      <point x="387" y="838" type="curve" smooth="yes"/>
      <point x="537" y="473" type="line" smooth="yes"/>
      <point x="556" y="426"/>
      <point x="578" y="369"/>
      <point x="596" y="315" type="curve" smooth="yes"/>
      <point x="614" y="261"/>
      <point x="630" y="211"/>
      <point x="635" y="176" type="curve"/>
      <point x="641" y="176" type="line"/>
      <point x="656" y="236"/>
      <point x="682" y="325"/>
      <point x="717" y="424" type="curve" smooth="yes"/>
      <point x="854" y="823" type="line" smooth="yes"/>
      <point x="866" y="856"/>
      <point x="872" y="888"/>
      <point x="872" y="911" type="curve" smooth="yes"/>
      <point x="872" y="982"/>
      <point x="828" y="1012"/>
      <point x="737" y="1012" type="curve" smooth="yes"/>
      <point x="731" y="1012" type="line"/>
      <point x="731" y="1098" type="line"/>
    </contour>
  </outline>
</glyph>
<glyph name="z" format="1">
  <advance width="1047"/>
  <unicode hex="007A"/>
  <outline>
    <contour>
      <point x="696" y="117" type="line" smooth="yes"/>
      <point x="744" y="117"/>
      <point x="774" y="137"/>
      <point x="795" y="168" type="curve" smooth="yes"/>
      <point x="815" y="199"/>
      <point x="827" y="241"/>
      <point x="836" y="285" type="curve" smooth="yes"/>
      <point x="846" y="332" type="line"/>
      <point x="932" y="332" type="line"/>
      <point x="922" y="0" type="line"/>
      <point x="86" y="0" type="line"/>
      <point x="86" y="82" type="line"/>
      <point x="680" y="981" type="line"/>
      <point x="360" y="981" type="line" smooth="yes"/>
      <point x="307" y="981"/>
      <point x="274" y="967"/>
      <point x="252" y="939" type="curve" smooth="yes"/>
      <point x="230" y="911"/>
      <point x="218" y="870"/>
      <point x="203" y="815" type="curve" smooth="yes"/>
      <point x="201" y="807" type="line"/>
      <point x="115" y="807" type="line"/>
      <point x="135" y="1098" type="line"/>
      <point x="920" y="1098" type="line"/>
      <point x="920" y="1014" type="line"/>
      <point x="324" y="117" type="line"/>
    </contour>
  </outline>
</glyph>
<glyph name="braceleft" format="1">
  <advance width="877"/>
  <unicode hex="007B"/>
  <outline>
    <contour>
      <point x="639" y="-262" type="line" smooth="yes"/>
      <point x="543" y="-262"/>
      <point x="468" y="-233"/>
      <point x="419" y="-182" type="curve" smooth="yes"/>
      <point x="370" y="-131"/>
      <point x="344" y="-58"/>
      <point x="344" y="33" type="curve" smooth="yes"/>
      <point x="344" y="389" type="line" smooth="yes"/>
      <point x="344" y="473"/>
      <point x="318" y="526"/>
      <point x="274" y="559" type="curve" smooth="yes"/>
      <point x="230" y="591"/>
      <point x="170" y="603"/>
      <point x="102" y="606" type="curve"/>
      <point x="102" y="692" type="line"/>
      <point x="170" y="695"/>
      <point x="230" y="706"/>
      <point x="274" y="739" type="curve" smooth="yes"/>
      <point x="318" y="771"/>
      <point x="344" y="824"/>
      <point x="344" y="907" type="curve" smooth="yes"/>
      <point x="344" y="1264" type="line" smooth="yes"/>
      <point x="344" y="1451"/>
      <point x="444" y="1556"/>
      <point x="639" y="1556" type="curve" smooth="yes"/>
      <point x="774" y="1556" type="line"/>
      <point x="774" y="1468" type="line"/>
      <point x="713" y="1468" type="line" smooth="yes"/>
      <point x="592" y="1468"/>
      <point x="545" y="1396"/>
      <point x="545" y="1253" type="curve" smooth="yes"/>
      <point x="545" y="903" type="line" smooth="yes"/>
      <point x="545" y="770"/>
      <point x="470" y="676"/>
      <point x="317" y="651" type="curve"/>
      <point x="317" y="649" type="line"/>
      <point x="474" y="622"/>
      <point x="545" y="531"/>
      <point x="545" y="395" type="curve" smooth="yes"/>
      <point x="545" y="41" type="line" smooth="yes"/>
      <point x="545" y="-99"/>
      <point x="592" y="-174"/>
      <point x="713" y="-174" type="curve" smooth="yes"/>
      <point x="774" y="-174" type="line"/>
      <point x="774" y="-262" type="line"/>
    </contour>
  </outline>
</glyph>
<glyph name="braceright" format="1">
  <advance width="877"/>
  <unicode hex="007D"/>
  <outline>
    <contour>
      <point x="102" y="-174" type="line"/>
      <point x="164" y="-174" type="line" smooth="yes"/>
      <point x="285" y="-174"/>
      <point x="332" y="-99"/>
      <point x="332" y="41" type="curve" smooth="yes"/>
      <point x="332" y="395" type="line" smooth="yes"/>
      <point x="332" y="531"/>
      <point x="402" y="622"/>
      <point x="559" y="649" type="curve"/>
      <point x="559" y="651" type="line"/>
      <point x="407" y="676"/>
      <point x="332" y="770"/>
      <point x="332" y="903" type="curve" smooth="yes"/>
      <point x="332" y="1253" type="line" smooth="yes"/>
      <point x="332" y="1396"/>
      <point x="285" y="1468"/>
      <point x="164" y="1468" type="curve" smooth="yes"/>
      <point x="102" y="1468" type="line"/>
      <point x="102" y="1556" type="line"/>
      <point x="238" y="1556" type="line" smooth="yes"/>
      <point x="431" y="1556"/>
      <point x="532" y="1451"/>
      <point x="532" y="1264" type="curve" smooth="yes"/>
      <point x="532" y="907" type="line" smooth="yes"/>
      <point x="532" y="824"/>
      <point x="559" y="771"/>
      <point x="603" y="739" type="curve" smooth="yes"/>
      <point x="646" y="706"/>
      <point x="706" y="695"/>
      <point x="774" y="692" type="curve"/>
      <point x="774" y="606" type="line"/>
      <point x="706" y="603"/>
      <point x="646" y="591"/>
      <point x="603" y="559" type="curve" smooth="yes"/>
      <point x="559" y="526"/>
      <point x="532" y="473"/>
      <point x="532" y="389" type="curve" smooth="yes"/>
      <point x="532" y="33" type="line" smooth="yes"/>
      <point x="532" y="-58"/>
      <point x="506" y="-131"/>
      <point x="457" y="-182" type="curve" smooth="yes"/>
      <point x="408" y="-233"/>
      <point x="334" y="-262"/>
      <point x="238" y="-262" type="curve" smooth="yes"/>
      <point x="102" y="-262" type="line"/>
    </contour>
  </outline>
</glyph>
<glyph name="exclamdown" format="1">
  <advance width="682"/>
  <unicode hex="00A1"/>
  <outline>
    <contour>
      <point x="459" y="-367" type="line"/>
      <point x="221" y="-367" type="line"/>
      <point x="293" y="684" type="line"/>
      <point x="387" y="684" type="line"/>
    </contour>
    <contour>
      <point x="469" y="918"/>
      <point x="455" y="882"/>
      <point x="432" y="861" type="curve" smooth="yes"/>
      <point x="408" y="840"/>
      <point x="376" y="831"/>
      <point x="340" y="831" type="curve" smooth="yes"/>
      <point x="305" y="831"/>
      <point x="273" y="840"/>
      <point x="250" y="861" type="curve" smooth="yes"/>
      <point x="226" y="882"/>
      <point x="211" y="918"/>
      <point x="211" y="971" type="curve" smooth="yes"/>
      <point x="211" y="1023"/>
      <point x="226" y="1058"/>
      <point x="250" y="1080" type="curve" smooth="yes"/>
      <point x="273" y="1102"/>
      <point x="305" y="1110"/>
      <point x="340" y="1110" type="curve" smooth="yes"/>
      <point x="376" y="1110"/>
      <point x="408" y="1102"/>
      <point x="432" y="1080" type="curve" smooth="yes"/>
      <point x="455" y="1058"/>
      <point x="469" y="1023"/>
      <point x="469" y="971" type="curve" smooth="yes"/>
    </contour>
  </outline>
</glyph>
<glyph name="cent" format="1">
  <advance width="1145"/>
  <unicode hex="00A2"/>
  <outline>
    <contour>
      <point x="584" y="180" type="line"/>
      <point x="460" y="193"/>
      <point x="355" y="239"/>
      <point x="280" y="328" type="curve" smooth="yes"/>
      <point x="205" y="416"/>
      <point x="162" y="550"/>
      <point x="162" y="739" type="curve" smooth="yes"/>
      <point x="162" y="942"/>
      <point x="209" y="1081"/>
      <point x="285" y="1171" type="curve" smooth="yes"/>
      <point x="361" y="1261"/>
      <point x="467" y="1302"/>
      <point x="584" y="1313" type="curve"/>
      <point x="584" y="1462" type="line"/>
      <point x="686" y="1462" type="line"/>
      <point x="686" y="1313" type="line"/>
      <point x="765" y="1306"/>
      <point x="847" y="1288"/>
      <point x="910" y="1254" type="curve" smooth="yes"/>
      <point x="973" y="1220"/>
      <point x="1016" y="1170"/>
      <point x="1016" y="1106" type="curve" smooth="yes"/>
      <point x="1016" y="1011"/>
      <point x="955" y="977"/>
      <point x="834" y="977" type="curve"/>
      <point x="834" y="1033"/>
      <point x="822" y="1086"/>
      <point x="798" y="1127" type="curve" smooth="yes"/>
      <point x="774" y="1167"/>
      <point x="737" y="1197"/>
      <point x="686" y="1206" type="curve"/>
      <point x="686" y="297" type="line"/>
      <point x="742" y="297"/>
      <point x="800" y="306"/>
      <point x="852" y="319" type="curve" smooth="yes"/>
      <point x="904" y="331"/>
      <point x="951" y="347"/>
      <point x="983" y="362" type="curve"/>
      <point x="983" y="250" type="line"/>
      <point x="912" y="213"/>
      <point x="807" y="179"/>
      <point x="686" y="176" type="curve"/>
      <point x="686" y="0" type="line"/>
      <point x="584" y="0" type="line"/>
    </contour>
    <contour>
      <point x="360" y="497"/>
      <point x="431" y="350"/>
      <point x="584" y="309" type="curve"/>
      <point x="584" y="1206" type="line"/>
      <point x="519" y="1194"/>
      <point x="463" y="1158"/>
      <point x="423" y="1086" type="curve" smooth="yes"/>
      <point x="383" y="1013"/>
      <point x="360" y="902"/>
      <point x="360" y="741" type="curve" smooth="yes"/>
    </contour>
  </outline>
</glyph>
<glyph name="sterling" format="1">
  <advance width="1145"/>
  <unicode hex="00A3"/>
  <outline>
    <contour>
      <point x="500" y="690" type="line"/>
      <point x="520" y="622"/>
      <point x="541" y="554"/>
      <point x="541" y="471" type="curve" smooth="yes"/>
      <point x="541" y="354"/>
      <point x="469" y="266"/>
      <point x="360" y="193" type="curve"/>
      <point x="365" y="184" type="line"/>
      <point x="421" y="211"/>
      <point x="469" y="221"/>
      <point x="514" y="221" type="curve" smooth="yes"/>
      <point x="569" y="221"/>
      <point x="637" y="202"/>
      <point x="702" y="182" type="curve" smooth="yes"/>
      <point x="766" y="162"/>
      <point x="829" y="143"/>
      <point x="870" y="143" type="curve" smooth="yes"/>
      <point x="918" y="143"/>
      <point x="958" y="158"/>
      <point x="994" y="181" type="curve" smooth="yes"/>
      <point x="1030" y="204"/>
      <point x="1060" y="233"/>
      <point x="1085" y="264" type="curve"/>
      <point x="1085" y="131" type="line"/>
      <point x="1061" y="98"/>
      <point x="1028" y="59"/>
      <point x="984" y="30" type="curve" smooth="yes"/>
      <point x="940" y="1"/>
      <point x="885" y="-20"/>
      <point x="817" y="-20" type="curve" smooth="yes"/>
      <point x="749" y="-20"/>
      <point x="685" y="3"/>
      <point x="618" y="26" type="curve" smooth="yes"/>
      <point x="551" y="49"/>
      <point x="483" y="72"/>
      <point x="410" y="72" type="curve" smooth="yes"/>
      <point x="319" y="72"/>
      <point x="246" y="43"/>
      <point x="158" y="2" type="curve" smooth="yes"/>
      <point x="131" y="-10" type="line"/>
      <point x="131" y="98" type="line"/>
      <point x="168" y="121" type="line" smooth="yes"/>
      <point x="219" y="152"/>
      <point x="271" y="195"/>
      <point x="311" y="252" type="curve" smooth="yes"/>
      <point x="351" y="308"/>
      <point x="379" y="378"/>
      <point x="379" y="459" type="curve" smooth="yes"/>
      <point x="379" y="539"/>
      <point x="356" y="615"/>
      <point x="328" y="690" type="curve"/>
      <point x="100" y="690" type="line"/>
      <point x="100" y="786" type="line"/>
      <point x="289" y="786" type="line"/>
      <point x="270" y="829"/>
      <point x="251" y="882"/>
      <point x="236" y="939" type="curve" smooth="yes"/>
      <point x="221" y="995"/>
      <point x="211" y="1056"/>
      <point x="211" y="1112" type="curve" smooth="yes"/>
      <point x="211" y="1229"/>
      <point x="251" y="1322"/>
      <point x="323" y="1386" type="curve" smooth="yes"/>
      <point x="395" y="1449"/>
      <point x="500" y="1483"/>
      <point x="629" y="1483" type="curve" smooth="yes"/>
      <point x="761" y="1483"/>
      <point x="852" y="1458"/>
      <point x="909" y="1417" type="curve" smooth="yes"/>
      <point x="966" y="1376"/>
      <point x="991" y="1318"/>
      <point x="991" y="1253" type="curve" smooth="yes"/>
      <point x="991" y="1165"/>
      <point x="929" y="1120"/>
      <point x="829" y="1120" type="curve"/>
      <point x="829" y="1184"/>
      <point x="820" y="1249"/>
      <point x="790" y="1298" type="curve" smooth="yes"/>
      <point x="760" y="1346"/>
      <point x="708" y="1380"/>
      <point x="621" y="1380" type="curve" smooth="yes"/>
      <point x="462" y="1380"/>
      <point x="391" y="1287"/>
      <point x="391" y="1116" type="curve" smooth="yes"/>
      <point x="391" y="1052"/>
      <point x="403" y="990"/>
      <point x="419" y="934" type="curve" smooth="yes"/>
      <point x="435" y="877"/>
      <point x="455" y="826"/>
      <point x="471" y="786" type="curve"/>
      <point x="819" y="786" type="line"/>
      <point x="819" y="690" type="line"/>
    </contour>
  </outline>
</glyph>
<glyph name="currency" format="1">
  <advance width="1145"/>
  <unicode hex="00A4"/>
  <outline>
    <contour>
      <point x="197" y="816"/>
      <point x="221" y="891"/>
      <point x="266" y="952" type="curve"/>
      <point x="131" y="1087" type="line"/>
      <point x="217" y="1174" type="line"/>
      <point x="350" y="1038" type="line"/>
      <point x="413" y="1083"/>
      <point x="487" y="1110"/>
      <point x="571" y="1110" type="curve" smooth="yes"/>
      <point x="651" y="1110"/>
      <point x="727" y="1083"/>
      <point x="788" y="1038" type="curve"/>
      <point x="926" y="1176" type="line"/>
      <point x="1012" y="1087" type="line"/>
      <point x="877" y="952" type="line"/>
      <point x="922" y="891"/>
      <point x="948" y="816"/>
      <point x="948" y="733" type="curve" smooth="yes"/>
      <point x="948" y="650"/>
      <point x="922" y="575"/>
      <point x="877" y="514" type="curve"/>
      <point x="1012" y="379" type="line"/>
      <point x="928" y="293" type="line"/>
      <point x="791" y="428" type="line"/>
      <point x="728" y="385"/>
      <point x="654" y="358"/>
      <point x="571" y="358" type="curve" smooth="yes"/>
      <point x="488" y="358"/>
      <point x="415" y="383"/>
      <point x="352" y="428" type="curve"/>
      <point x="217" y="293" type="line"/>
      <point x="131" y="379" type="line"/>
      <point x="264" y="514" type="line"/>
      <point x="221" y="575"/>
      <point x="197" y="650"/>
      <point x="197" y="733" type="curve" smooth="yes"/>
    </contour>
    <contour>
      <point x="311" y="661"/>
      <point x="340" y="596"/>
      <point x="388" y="549" type="curve" smooth="yes"/>
      <point x="435" y="501"/>
      <point x="499" y="471"/>
      <point x="571" y="471" type="curve" smooth="yes"/>
      <point x="646" y="471"/>
      <point x="711" y="501"/>
      <point x="758" y="549" type="curve" smooth="yes"/>
      <point x="805" y="596"/>
      <point x="834" y="661"/>
      <point x="834" y="733" type="curve" smooth="yes"/>
      <point x="834" y="808"/>
      <point x="805" y="873"/>
      <point x="758" y="921" type="curve" smooth="yes"/>
      <point x="711" y="968"/>
      <point x="646" y="997"/>
      <point x="571" y="997" type="curve" smooth="yes"/>
      <point x="499" y="997"/>
      <point x="435" y="968"/>
      <point x="388" y="921" type="curve" smooth="yes"/>
      <point x="340" y="873"/>
      <point x="311" y="808"/>
      <point x="311" y="733" type="curve" smooth="yes"/>
    </contour>
  </outline>
</glyph>
<glyph name="yen" format="1">
  <advance width="1145"/>
  <unicode hex="00A5"/>
  <outline>
    <contour>
      <point x="264" y="0" type="line"/>
      <point x="264" y="86" type="line"/>
      <point x="311" y="86" type="line" smooth="yes"/>
      <point x="356" y="86"/>
      <point x="398" y="90"/>
      <point x="428" y="109" type="curve" smooth="yes"/>
      <point x="458" y="128"/>
      <point x="476" y="163"/>
      <point x="479" y="223" type="curve"/>
      <point x="479" y="362" type="line"/>
      <point x="193" y="362" type="line"/>
      <point x="193" y="459" type="line"/>
      <point x="479" y="459" type="line"/>
      <point x="479" y="602" type="line"/>
      <point x="193" y="602" type="line"/>
      <point x="193" y="698" type="line"/>
      <point x="440" y="698" type="line"/>
      <point x="162" y="1268" type="line" smooth="yes"/>
      <point x="142" y="1308"/>
      <point x="127" y="1335"/>
      <point x="105" y="1352" type="curve" smooth="yes"/>
      <point x="83" y="1369"/>
      <point x="56" y="1376"/>
      <point x="16" y="1376" type="curve" smooth="yes"/>
      <point x="10" y="1376" type="line"/>
      <point x="10" y="1462" type="line"/>
      <point x="508" y="1462" type="line"/>
      <point x="508" y="1376" type="line"/>
      <point x="494" y="1376" type="line" smooth="yes"/>
      <point x="411" y="1376"/>
      <point x="377" y="1352"/>
      <point x="377" y="1296" type="curve" smooth="yes"/>
      <point x="377" y="1264"/>
      <point x="387" y="1223"/>
      <point x="410" y="1176" type="curve" smooth="yes"/>
      <point x="508" y="958" type="line" smooth="yes"/>
      <point x="528" y="915"/>
      <point x="547" y="864"/>
      <point x="564" y="816" type="curve" smooth="yes"/>
      <point x="580" y="768"/>
      <point x="594" y="725"/>
      <point x="602" y="698" type="curve"/>
      <point x="607" y="713"/>
      <point x="620" y="744"/>
      <point x="636" y="778" type="curve" smooth="yes"/>
      <point x="651" y="812"/>
      <point x="669" y="849"/>
      <point x="682" y="877" type="curve" smooth="yes"/>
      <point x="799" y="1126" type="line" smooth="yes"/>
      <point x="831" y="1198"/>
      <point x="848" y="1263"/>
      <point x="848" y="1294" type="curve" smooth="yes"/>
      <point x="848" y="1350"/>
      <point x="814" y="1376"/>
      <point x="723" y="1376" type="curve" smooth="yes"/>
      <point x="717" y="1376" type="line"/>
      <point x="717" y="1462" type="line"/>
      <point x="1135" y="1462" type="line"/>
      <point x="1135" y="1376" type="line"/>
      <point x="1116" y="1376" type="line" smooth="yes"/>
      <point x="1081" y="1376"/>
      <point x="1058" y="1368"/>
      <point x="1036" y="1344" type="curve" smooth="yes"/>
      <point x="1014" y="1320"/>
      <point x="992" y="1280"/>
      <point x="961" y="1217" type="curve" smooth="yes"/>
      <point x="711" y="698" type="line"/>
      <point x="965" y="698" type="line"/>
      <point x="965" y="602" type="line"/>
      <point x="678" y="602" type="line"/>
      <point x="678" y="459" type="line"/>
      <point x="965" y="459" type="line"/>
      <point x="965" y="362" type="line"/>
      <point x="678" y="362" type="line"/>
      <point x="678" y="233" type="line" smooth="yes"/>
      <point x="678" y="169"/>
      <point x="698" y="132"/>
      <point x="728" y="112" type="curve" smooth="yes"/>
      <point x="758" y="91"/>
      <point x="799" y="86"/>
      <point x="846" y="86" type="curve" smooth="yes"/>
      <point x="893" y="86" type="line"/>
      <point x="893" y="0" type="line"/>
    </contour>
  </outline>
</glyph>
<glyph name="section" format="1">
  <advance width="1114"/>
  <unicode hex="00A7"/>
  <outline>
    <contour>
      <point x="499" y="842"/>
      <point x="413" y="884"/>
      <point x="342" y="940" type="curve"/>
      <point x="313" y="913"/>
      <point x="291" y="878"/>
      <point x="291" y="823" type="curve" smooth="yes"/>
      <point x="291" y="768"/>
      <point x="308" y="728"/>
      <point x="353" y="686" type="curve" smooth="yes"/>
      <point x="398" y="644"/>
      <point x="473" y="602"/>
      <point x="590" y="545" type="curve" smooth="yes"/>
      <point x="673" y="504"/>
      <point x="756" y="465"/>
      <point x="821" y="408" type="curve"/>
      <point x="844" y="440"/>
      <point x="860" y="479"/>
      <point x="860" y="524" type="curve" smooth="yes"/>
      <point x="860" y="571"/>
      <point x="850" y="610"/>
      <point x="812" y="653" type="curve" smooth="yes"/>
      <point x="774" y="696"/>
      <point x="707" y="740"/>
      <point x="598" y="795" type="curve" smooth="yes"/>
    </contour>
    <contour>
      <point x="739" y="-133"/>
      <point x="821" y="-53"/>
      <point x="821" y="72" type="curve" smooth="yes"/>
      <point x="821" y="132"/>
      <point x="812" y="173"/>
      <point x="762" y="218" type="curve" smooth="yes"/>
      <point x="712" y="262"/>
      <point x="621" y="312"/>
      <point x="461" y="391" type="curve" smooth="yes"/>
      <point x="353" y="444"/>
      <point x="277" y="499"/>
      <point x="229" y="560" type="curve" smooth="yes"/>
      <point x="181" y="621"/>
      <point x="160" y="691"/>
      <point x="160" y="772" type="curve" smooth="yes"/>
      <point x="160" y="875"/>
      <point x="210" y="952"/>
      <point x="281" y="1001" type="curve"/>
      <point x="230" y="1061"/>
      <point x="205" y="1132"/>
      <point x="205" y="1231" type="curve" smooth="yes"/>
      <point x="205" y="1335"/>
      <point x="245" y="1416"/>
      <point x="312" y="1472" type="curve" smooth="yes"/>
      <point x="379" y="1527"/>
      <point x="474" y="1556"/>
      <point x="582" y="1556" type="curve" smooth="yes"/>
      <point x="694" y="1556"/>
      <point x="777" y="1531"/>
      <point x="833" y="1491" type="curve" smooth="yes"/>
      <point x="888" y="1450"/>
      <point x="915" y="1392"/>
      <point x="915" y="1327" type="curve" smooth="yes"/>
      <point x="915" y="1239"/>
      <point x="858" y="1202"/>
      <point x="770" y="1202" type="curve"/>
      <point x="770" y="1266"/>
      <point x="758" y="1328"/>
      <point x="727" y="1376" type="curve" smooth="yes"/>
      <point x="695" y="1423"/>
      <point x="646" y="1454"/>
      <point x="573" y="1454" type="curve" smooth="yes"/>
      <point x="437" y="1454"/>
      <point x="358" y="1384"/>
      <point x="358" y="1255" type="curve" smooth="yes"/>
      <point x="358" y="1183"/>
      <point x="386" y="1138"/>
      <point x="440" y="1099" type="curve" smooth="yes"/>
      <point x="467" y="1079"/>
      <point x="500" y="1060"/>
      <point x="539" y="1041" type="curve" smooth="yes"/>
      <point x="618" y="1004"/>
      <point x="742" y="947"/>
      <point x="826" y="891" type="curve" smooth="yes"/>
      <point x="910" y="835"/>
      <point x="965" y="775"/>
      <point x="991" y="707" type="curve" smooth="yes"/>
      <point x="1004" y="673"/>
      <point x="1010" y="636"/>
      <point x="1010" y="596" type="curve" smooth="yes"/>
      <point x="1010" y="547"/>
      <point x="995" y="497"/>
      <point x="972" y="453" type="curve" smooth="yes"/>
      <point x="949" y="408"/>
      <point x="919" y="368"/>
      <point x="887" y="336" type="curve"/>
      <point x="926" y="283"/>
      <point x="950" y="217"/>
      <point x="950" y="133" type="curve" smooth="yes"/>
      <point x="950" y="25"/>
      <point x="921" y="-66"/>
      <point x="858" y="-130" type="curve" smooth="yes"/>
      <point x="794" y="-195"/>
      <point x="696" y="-233"/>
      <point x="557" y="-233" type="curve" smooth="yes"/>
      <point x="452" y="-233"/>
      <point x="364" y="-212"/>
      <point x="303" y="-172" type="curve" smooth="yes"/>
      <point x="242" y="-132"/>
      <point x="207" y="-73"/>
      <point x="207" y="4" type="curve" smooth="yes"/>
      <point x="207" y="60"/>
      <point x="228" y="96"/>
      <point x="254" y="118" type="curve" smooth="yes"/>
      <point x="280" y="140"/>
      <point x="312" y="147"/>
      <point x="336" y="147" type="curve"/>
      <point x="336" y="75"/>
      <point x="354" y="5"/>
      <point x="392" y="-47" type="curve" smooth="yes"/>
      <point x="430" y="-99"/>
      <point x="488" y="-133"/>
      <point x="571" y="-133" type="curve" smooth="yes"/>
    </contour>
  </outline>
</glyph>
<glyph name="dieresis" format="1">
  <advance width="1182"/>
  <unicode hex="00A8"/>
  <outline>
    <contour>
      <point x="291" y="1452"/>
      <point x="302" y="1481"/>
      <point x="321" y="1499" type="curve" smooth="yes"/>
      <point x="340" y="1517"/>
      <point x="366" y="1524"/>
      <point x="395" y="1524" type="curve" smooth="yes"/>
      <point x="424" y="1524"/>
      <point x="450" y="1517"/>
      <point x="470" y="1499" type="curve" smooth="yes"/>
      <point x="489" y="1481"/>
      <point x="500" y="1452"/>
      <point x="500" y="1409" type="curve" smooth="yes"/>
      <point x="500" y="1368"/>
      <point x="489" y="1339"/>
      <point x="470" y="1320" type="curve" smooth="yes"/>
      <point x="450" y="1301"/>
      <point x="424" y="1294"/>
      <point x="395" y="1294" type="curve" smooth="yes"/>
      <point x="335" y="1294"/>
      <point x="291" y="1325"/>
      <point x="291" y="1409" type="curve" smooth="yes"/>
    </contour>
    <contour>
      <point x="680" y="1452"/>
      <point x="691" y="1481"/>
      <point x="710" y="1499" type="curve" smooth="yes"/>
      <point x="729" y="1517"/>
      <point x="755" y="1524"/>
      <point x="784" y="1524" type="curve" smooth="yes"/>
      <point x="813" y="1524"/>
      <point x="839" y="1517"/>
      <point x="859" y="1499" type="curve" smooth="yes"/>
      <point x="878" y="1481"/>
      <point x="889" y="1452"/>
      <point x="889" y="1409" type="curve" smooth="yes"/>
      <point x="889" y="1368"/>
      <point x="878" y="1339"/>
      <point x="859" y="1320" type="curve" smooth="yes"/>
      <point x="839" y="1301"/>
      <point x="813" y="1294"/>
      <point x="784" y="1294" type="curve" smooth="yes"/>
      <point x="724" y="1294"/>
      <point x="680" y="1325"/>
      <point x="680" y="1409" type="curve" smooth="yes"/>
    </contour>
  </outline>
</glyph>
<glyph name="copyright" format="1">
  <advance width="1731"/>
  <unicode hex="00A9"/>
  <outline>
    <contour>
      <point x="964" y="365"/>
      <point x="1017" y="382"/>
      <point x="1060" y="409" type="curve" smooth="yes"/>
      <point x="1103" y="436"/>
      <point x="1134" y="471"/>
      <point x="1153" y="504" type="curve"/>
      <point x="1169" y="492"/>
      <point x="1182" y="469"/>
      <point x="1182" y="440" type="curve" smooth="yes"/>
      <point x="1182" y="403"/>
      <point x="1156" y="362"/>
      <point x="1105" y="330" type="curve" smooth="yes"/>
      <point x="1053" y="298"/>
      <point x="977" y="276"/>
      <point x="874" y="276" type="curve" smooth="yes"/>
      <point x="738" y="276"/>
      <point x="636" y="322"/>
      <point x="568" y="402" type="curve" smooth="yes"/>
      <point x="499" y="482"/>
      <point x="465" y="596"/>
      <point x="465" y="733" type="curve" smooth="yes"/>
      <point x="465" y="866"/>
      <point x="503" y="979"/>
      <point x="577" y="1059" type="curve" smooth="yes"/>
      <point x="651" y="1139"/>
      <point x="759" y="1186"/>
      <point x="903" y="1186" type="curve" smooth="yes"/>
      <point x="998" y="1186"/>
      <point x="1067" y="1170"/>
      <point x="1114" y="1144" type="curve" smooth="yes"/>
      <point x="1161" y="1118"/>
      <point x="1184" y="1081"/>
      <point x="1184" y="1040" type="curve" smooth="yes"/>
      <point x="1184" y="1011"/>
      <point x="1168" y="986"/>
      <point x="1143" y="970" type="curve" smooth="yes"/>
      <point x="1118" y="953"/>
      <point x="1083" y="944"/>
      <point x="1044" y="944" type="curve"/>
      <point x="1044" y="983"/>
      <point x="1035" y="1021"/>
      <point x="1012" y="1051" type="curve" smooth="yes"/>
      <point x="989" y="1081"/>
      <point x="954" y="1100"/>
      <point x="899" y="1100" type="curve" smooth="yes"/>
      <point x="803" y="1100"/>
      <point x="737" y="1068"/>
      <point x="694" y="1005" type="curve" smooth="yes"/>
      <point x="651" y="942"/>
      <point x="633" y="852"/>
      <point x="633" y="733" type="curve" smooth="yes"/>
      <point x="633" y="497"/>
      <point x="728" y="365"/>
      <point x="901" y="365" type="curve" smooth="yes"/>
    </contour>
    <contour>
      <point x="113" y="870"/>
      <point x="151" y="1000"/>
      <point x="216" y="1112" type="curve" smooth="yes"/>
      <point x="280" y="1223"/>
      <point x="373" y="1317"/>
      <point x="485" y="1382" type="curve" smooth="yes"/>
      <point x="596" y="1447"/>
      <point x="725" y="1485"/>
      <point x="864" y="1485" type="curve" smooth="yes"/>
      <point x="1003" y="1485"/>
      <point x="1133" y="1447"/>
      <point x="1245" y="1382" type="curve" smooth="yes"/>
      <point x="1356" y="1317"/>
      <point x="1450" y="1223"/>
      <point x="1515" y="1112" type="curve" smooth="yes"/>
      <point x="1580" y="1000"/>
      <point x="1618" y="870"/>
      <point x="1618" y="731" type="curve" smooth="yes"/>
      <point x="1618" y="592"/>
      <point x="1580" y="463"/>
      <point x="1515" y="352" type="curve" smooth="yes"/>
      <point x="1450" y="240"/>
      <point x="1356" y="147"/>
      <point x="1245" y="82" type="curve" smooth="yes"/>
      <point x="1133" y="17"/>
      <point x="1003" y="-20"/>
      <point x="864" y="-20" type="curve" smooth="yes"/>
      <point x="725" y="-20"/>
      <point x="596" y="17"/>
      <point x="485" y="82" type="curve" smooth="yes"/>
      <point x="373" y="147"/>
      <point x="280" y="240"/>
      <point x="216" y="352" type="curve" smooth="yes"/>
      <point x="151" y="463"/>
      <point x="113" y="592"/>
      <point x="113" y="731" type="curve" smooth="yes"/>
    </contour>
    <contour>
      <point x="225" y="614"/>
      <point x="257" y="504"/>
      <point x="313" y="409" type="curve" smooth="yes"/>
      <point x="368" y="314"/>
      <point x="447" y="235"/>
      <point x="542" y="180" type="curve" smooth="yes"/>
      <point x="637" y="124"/>
      <point x="747" y="92"/>
      <point x="864" y="92" type="curve" smooth="yes"/>
      <point x="983" y="92"/>
      <point x="1093" y="124"/>
      <point x="1188" y="180" type="curve" smooth="yes"/>
      <point x="1283" y="235"/>
      <point x="1362" y="314"/>
      <point x="1418" y="409" type="curve" smooth="yes"/>
      <point x="1473" y="504"/>
      <point x="1505" y="614"/>
      <point x="1505" y="731" type="curve" smooth="yes"/>
      <point x="1505" y="848"/>
      <point x="1473" y="959"/>
      <point x="1418" y="1055" type="curve" smooth="yes"/>
      <point x="1362" y="1150"/>
      <point x="1283" y="1229"/>
      <point x="1188" y="1285" type="curve" smooth="yes"/>
      <point x="1093" y="1340"/>
      <point x="983" y="1372"/>
      <point x="864" y="1372" type="curve" smooth="yes"/>
      <point x="747" y="1372"/>
      <point x="637" y="1340"/>
      <point x="542" y="1285" type="curve" smooth="yes"/>
      <point x="447" y="1229"/>
      <point x="368" y="1150"/>
      <point x="313" y="1055" type="curve" smooth="yes"/>
      <point x="257" y="959"/>
      <point x="225" y="850"/>
      <point x="225" y="731" type="curve" smooth="yes"/>
    </contour>
  </outline>
</glyph>
<glyph name="ordfeminine" format="1">
  <advance width="782"/>
  <unicode hex="00AA"/>
  <outline>
    <contour>
      <point x="250" y="900"/>
      <point x="291" y="872"/>
      <point x="344" y="872" type="curve" smooth="yes"/>
      <point x="389" y="872"/>
      <point x="426" y="889"/>
      <point x="451" y="918" type="curve" smooth="yes"/>
      <point x="475" y="947"/>
      <point x="489" y="988"/>
      <point x="489" y="1036" type="curve" smooth="yes"/>
      <point x="489" y="1133" type="line"/>
      <point x="426" y="1130" type="line" smooth="yes"/>
      <point x="359" y="1129"/>
      <point x="316" y="1114"/>
      <point x="289" y="1090" type="curve" smooth="yes"/>
      <point x="261" y="1065"/>
      <point x="250" y="1030"/>
      <point x="250" y="985" type="curve" smooth="yes"/>
    </contour>
    <contour>
      <point x="346" y="1397"/>
      <point x="322" y="1381"/>
      <point x="308" y="1356" type="curve" smooth="yes"/>
      <point x="294" y="1331"/>
      <point x="289" y="1296"/>
      <point x="289" y="1257" type="curve"/>
      <point x="185" y="1257"/>
      <point x="127" y="1282"/>
      <point x="127" y="1346" type="curve" smooth="yes"/>
      <point x="127" y="1393"/>
      <point x="157" y="1424"/>
      <point x="205" y="1444" type="curve" smooth="yes"/>
      <point x="253" y="1464"/>
      <point x="319" y="1473"/>
      <point x="391" y="1473" type="curve" smooth="yes"/>
      <point x="482" y="1473"/>
      <point x="548" y="1458"/>
      <point x="593" y="1423" type="curve" smooth="yes"/>
      <point x="637" y="1387"/>
      <point x="659" y="1332"/>
      <point x="659" y="1251" type="curve" smooth="yes"/>
      <point x="659" y="940" type="line" smooth="yes"/>
      <point x="659" y="879"/>
      <point x="681" y="860"/>
      <point x="748" y="860" type="curve"/>
      <point x="748" y="791" type="line"/>
      <point x="549" y="791" type="line"/>
      <point x="512" y="885" type="line"/>
      <point x="502" y="885" type="line"/>
      <point x="478" y="858"/>
      <point x="450" y="831"/>
      <point x="415" y="811" type="curve" smooth="yes"/>
      <point x="379" y="791"/>
      <point x="337" y="778"/>
      <point x="285" y="778" type="curve" smooth="yes"/>
      <point x="153" y="778"/>
      <point x="72" y="850"/>
      <point x="72" y="987" type="curve" smooth="yes"/>
      <point x="72" y="1123"/>
      <point x="178" y="1183"/>
      <point x="401" y="1194" type="curve" smooth="yes"/>
      <point x="489" y="1198" type="line"/>
      <point x="489" y="1257" type="line" smooth="yes"/>
      <point x="489" y="1298"/>
      <point x="486" y="1333"/>
      <point x="472" y="1358" type="curve" smooth="yes"/>
      <point x="458" y="1382"/>
      <point x="432" y="1397"/>
      <point x="387" y="1397" type="curve" smooth="yes"/>
    </contour>
  </outline>
</glyph>
<glyph name="registered" format="1">
  <advance width="1731"/>
  <unicode hex="00AE"/>
  <outline>
    <contour>
      <point x="477" y="358" type="line"/>
      <point x="504" y="358" type="line" smooth="yes"/>
      <point x="531" y="358"/>
      <point x="556" y="361"/>
      <point x="574" y="371" type="curve" smooth="yes"/>
      <point x="592" y="381"/>
      <point x="603" y="398"/>
      <point x="604" y="430" type="curve" smooth="yes"/>
      <point x="604" y="1030" type="line"/>
      <point x="603" y="1062"/>
      <point x="592" y="1081"/>
      <point x="574" y="1091" type="curve" smooth="yes"/>
      <point x="556" y="1101"/>
      <point x="531" y="1102"/>
      <point x="504" y="1102" type="curve" smooth="yes"/>
      <point x="477" y="1102" type="line"/>
      <point x="477" y="1174" type="line"/>
      <point x="846" y="1174" type="line" smooth="yes"/>
      <point x="1081" y="1174"/>
      <point x="1198" y="1093"/>
      <point x="1198" y="930" type="curve" smooth="yes"/>
      <point x="1198" y="865"/>
      <point x="1175" y="816"/>
      <point x="1140" y="780" type="curve" smooth="yes"/>
      <point x="1105" y="744"/>
      <point x="1059" y="720"/>
      <point x="1012" y="705" type="curve"/>
      <point x="1194" y="412" type="line"/>
      <point x="1207" y="389"/>
      <point x="1219" y="376"/>
      <point x="1236" y="368" type="curve" smooth="yes"/>
      <point x="1253" y="360"/>
      <point x="1276" y="358"/>
      <point x="1309" y="358" type="curve"/>
      <point x="1309" y="289" type="line"/>
      <point x="1092" y="289" type="line"/>
      <point x="866" y="670" type="line"/>
      <point x="758" y="670" type="line"/>
      <point x="758" y="430" type="line"/>
      <point x="761" y="398"/>
      <point x="772" y="381"/>
      <point x="790" y="371" type="curve" smooth="yes"/>
      <point x="808" y="361"/>
      <point x="831" y="358"/>
      <point x="858" y="358" type="curve" smooth="yes"/>
      <point x="887" y="358" type="line"/>
      <point x="887" y="289" type="line"/>
      <point x="477" y="289" type="line"/>
    </contour>
    <contour>
      <point x="758" y="748" type="line"/>
      <point x="844" y="748" type="line" smooth="yes"/>
      <point x="917" y="748"/>
      <point x="966" y="763"/>
      <point x="995" y="792" type="curve" smooth="yes"/>
      <point x="1024" y="821"/>
      <point x="1036" y="867"/>
      <point x="1036" y="928" type="curve" smooth="yes"/>
      <point x="1036" y="988"/>
      <point x="1022" y="1031"/>
      <point x="991" y="1057" type="curve" smooth="yes"/>
      <point x="959" y="1083"/>
      <point x="910" y="1094"/>
      <point x="838" y="1094" type="curve" smooth="yes"/>
      <point x="758" y="1094" type="line"/>
    </contour>
    <contour>
      <point x="113" y="870"/>
      <point x="151" y="1000"/>
      <point x="216" y="1112" type="curve" smooth="yes"/>
      <point x="280" y="1223"/>
      <point x="373" y="1317"/>
      <point x="485" y="1382" type="curve" smooth="yes"/>
      <point x="596" y="1447"/>
      <point x="725" y="1485"/>
      <point x="864" y="1485" type="curve" smooth="yes"/>
      <point x="1003" y="1485"/>
      <point x="1133" y="1447"/>
      <point x="1245" y="1382" type="curve" smooth="yes"/>
      <point x="1356" y="1317"/>
      <point x="1450" y="1223"/>
      <point x="1515" y="1112" type="curve" smooth="yes"/>
      <point x="1580" y="1000"/>
      <point x="1618" y="870"/>
      <point x="1618" y="731" type="curve" smooth="yes"/>
      <point x="1618" y="592"/>
      <point x="1580" y="463"/>
      <point x="1515" y="352" type="curve" smooth="yes"/>
      <point x="1450" y="240"/>
      <point x="1356" y="147"/>
      <point x="1245" y="82" type="curve" smooth="yes"/>
      <point x="1133" y="17"/>
      <point x="1003" y="-20"/>
      <point x="864" y="-20" type="curve" smooth="yes"/>
      <point x="725" y="-20"/>
      <point x="596" y="17"/>
      <point x="485" y="82" type="curve" smooth="yes"/>
      <point x="373" y="147"/>
      <point x="280" y="240"/>
      <point x="216" y="352" type="curve" smooth="yes"/>
      <point x="151" y="463"/>
      <point x="113" y="592"/>
      <point x="113" y="731" type="curve" smooth="yes"/>
    </contour>
    <contour>
      <point x="225" y="614"/>
      <point x="257" y="504"/>
      <point x="313" y="409" type="curve" smooth="yes"/>
      <point x="368" y="314"/>
      <point x="447" y="235"/>
      <point x="542" y="180" type="curve" smooth="yes"/>
      <point x="637" y="124"/>
      <point x="747" y="92"/>
      <point x="864" y="92" type="curve" smooth="yes"/>
      <point x="983" y="92"/>
      <point x="1093" y="124"/>
      <point x="1188" y="180" type="curve" smooth="yes"/>
      <point x="1283" y="235"/>
      <point x="1362" y="314"/>
      <point x="1418" y="409" type="curve" smooth="yes"/>
      <point x="1473" y="504"/>
      <point x="1505" y="614"/>
      <point x="1505" y="731" type="curve" smooth="yes"/>
      <point x="1505" y="848"/>
      <point x="1473" y="959"/>
      <point x="1418" y="1055" type="curve" smooth="yes"/>
      <point x="1362" y="1150"/>
      <point x="1283" y="1229"/>
      <point x="1188" y="1285" type="curve" smooth="yes"/>
      <point x="1093" y="1340"/>
      <point x="983" y="1372"/>
      <point x="864" y="1372" type="curve" smooth="yes"/>
      <point x="747" y="1372"/>
      <point x="637" y="1340"/>
      <point x="542" y="1285" type="curve" smooth="yes"/>
      <point x="447" y="1229"/>
      <point x="368" y="1150"/>
      <point x="313" y="1055" type="curve" smooth="yes"/>
      <point x="257" y="959"/>
      <point x="225" y="850"/>
      <point x="225" y="731" type="curve" smooth="yes"/>
    </contour>
  </outline>
</glyph>
<glyph name="degree" format="1">
  <advance width="819"/>
  <unicode hex="00B0"/>
  <outline>
    <contour>
      <point x="98" y="1238"/>
      <point x="133" y="1315"/>
      <point x="189" y="1371" type="curve" smooth="yes"/>
      <point x="245" y="1427"/>
      <point x="323" y="1462"/>
      <point x="408" y="1462" type="curve" smooth="yes"/>
      <point x="495" y="1462"/>
      <point x="572" y="1427"/>
      <point x="628" y="1371" type="curve" smooth="yes"/>
      <point x="684" y="1315"/>
      <point x="719" y="1238"/>
      <point x="719" y="1151" type="curve" smooth="yes"/>
      <point x="719" y="1066"/>
      <point x="684" y="988"/>
      <point x="628" y="932" type="curve" smooth="yes"/>
      <point x="572" y="876"/>
      <point x="495" y="842"/>
      <point x="408" y="842" type="curve" smooth="yes"/>
      <point x="323" y="842"/>
      <point x="245" y="876"/>
      <point x="189" y="932" type="curve" smooth="yes"/>
      <point x="133" y="988"/>
      <point x="98" y="1066"/>
      <point x="98" y="1151" type="curve" smooth="yes"/>
    </contour>
    <contour>
      <point x="221" y="1100"/>
      <point x="242" y="1053"/>
      <point x="276" y="1019" type="curve" smooth="yes"/>
      <point x="310" y="985"/>
      <point x="356" y="963"/>
      <point x="408" y="963" type="curve" smooth="yes"/>
      <point x="461" y="963"/>
      <point x="508" y="985"/>
      <point x="542" y="1019" type="curve" smooth="yes"/>
      <point x="576" y="1053"/>
      <point x="596" y="1100"/>
      <point x="596" y="1151" type="curve" smooth="yes"/>
      <point x="596" y="1204"/>
      <point x="576" y="1252"/>
      <point x="542" y="1286" type="curve" smooth="yes"/>
      <point x="508" y="1320"/>
      <point x="461" y="1341"/>
      <point x="408" y="1341" type="curve" smooth="yes"/>
      <point x="356" y="1341"/>
      <point x="310" y="1320"/>
      <point x="276" y="1286" type="curve" smooth="yes"/>
      <point x="242" y="1252"/>
      <point x="221" y="1204"/>
      <point x="221" y="1151" type="curve" smooth="yes"/>
    </contour>
  </outline>
</glyph>
<glyph name="twosuperior" format="1">
  <advance width="819"/>
  <unicode hex="00B2"/>
  <outline>
    <contour>
      <point x="690" y="1198"/>
      <point x="677" y="1144"/>
      <point x="642" y="1088" type="curve" smooth="yes"/>
      <point x="607" y="1032"/>
      <point x="552" y="974"/>
      <point x="467" y="901" type="curve" smooth="yes"/>
      <point x="250" y="715" type="line"/>
      <point x="547" y="715" type="line" smooth="yes"/>
      <point x="610" y="715"/>
      <point x="629" y="754"/>
      <point x="637" y="799" type="curve" smooth="yes"/>
      <point x="645" y="842" type="line"/>
      <point x="715" y="842" type="line"/>
      <point x="709" y="586" type="line"/>
      <point x="86" y="586" type="line"/>
      <point x="86" y="678" type="line"/>
      <point x="346" y="911" type="line" smooth="yes"/>
      <point x="406" y="966"/>
      <point x="447" y="1022"/>
      <point x="472" y="1079" type="curve" smooth="yes"/>
      <point x="496" y="1135"/>
      <point x="506" y="1192"/>
      <point x="506" y="1245" type="curve" smooth="yes"/>
      <point x="506" y="1290"/>
      <point x="498" y="1329"/>
      <point x="479" y="1357" type="curve" smooth="yes"/>
      <point x="459" y="1385"/>
      <point x="429" y="1401"/>
      <point x="385" y="1401" type="curve" smooth="yes"/>
      <point x="336" y="1401"/>
      <point x="301" y="1380"/>
      <point x="280" y="1348" type="curve" smooth="yes"/>
      <point x="259" y="1315"/>
      <point x="250" y="1270"/>
      <point x="250" y="1223" type="curve"/>
      <point x="158" y="1223"/>
      <point x="102" y="1239"/>
      <point x="102" y="1311" type="curve" smooth="yes"/>
      <point x="102" y="1360"/>
      <point x="126" y="1403"/>
      <point x="174" y="1434" type="curve" smooth="yes"/>
      <point x="221" y="1465"/>
      <point x="292" y="1483"/>
      <point x="385" y="1483" type="curve" smooth="yes"/>
      <point x="576" y="1483"/>
      <point x="690" y="1406"/>
      <point x="690" y="1262" type="curve" smooth="yes"/>
    </contour>
  </outline>
</glyph>
<glyph name="acute" format="1">
  <advance width="1182"/>
  <unicode hex="00B4"/>
  <outline>
    <contour>
      <point x="391" y="1268" type="line"/>
      <point x="422" y="1307"/>
      <point x="455" y="1360"/>
      <point x="487" y="1414" type="curve" smooth="yes"/>
      <point x="518" y="1468"/>
      <point x="548" y="1524"/>
      <point x="569" y="1569" type="curve"/>
      <point x="788" y="1569" type="line"/>
      <point x="788" y="1548" type="line"/>
      <point x="763" y="1512"/>
      <point x="710" y="1455"/>
      <point x="650" y="1396" type="curve" smooth="yes"/>
      <point x="590" y="1337"/>
      <point x="524" y="1278"/>
      <point x="469" y="1241" type="curve"/>
      <point x="391" y="1241" type="line"/>
    </contour>
  </outline>
</glyph>
<glyph name="mu" format="1">
  <advance width="1260"/>
  <unicode hex="00B5"/>
  <outline>
    <contour>
      <point x="454" y="-20"/>
      <point x="374" y="24"/>
      <point x="319" y="100" type="curve"/>
      <point x="322" y="-13"/>
      <point x="326" y="-111"/>
      <point x="348" y="-183" type="curve" smooth="yes"/>
      <point x="370" y="-255"/>
      <point x="409" y="-301"/>
      <point x="485" y="-313" type="curve"/>
      <point x="485" y="-365"/>
      <point x="474" y="-409"/>
      <point x="451" y="-441" type="curve" smooth="yes"/>
      <point x="427" y="-473"/>
      <point x="391" y="-492"/>
      <point x="342" y="-492" type="curve" smooth="yes"/>
      <point x="299" y="-492"/>
      <point x="258" y="-477"/>
      <point x="227" y="-439" type="curve" smooth="yes"/>
      <point x="196" y="-401"/>
      <point x="176" y="-340"/>
      <point x="176" y="-248" type="curve" smooth="yes"/>
      <point x="176" y="-207"/>
      <point x="177" y="-163"/>
      <point x="180" y="-116" type="curve" smooth="yes"/>
      <point x="184" y="-22"/>
      <point x="190" y="90"/>
      <point x="196" y="229" type="curve" smooth="yes"/>
      <point x="199" y="298"/>
      <point x="200" y="376"/>
      <point x="201" y="461" type="curve" smooth="yes"/>
      <point x="201" y="1098" type="line"/>
      <point x="393" y="1098" type="line"/>
      <point x="393" y="410" type="line" smooth="yes"/>
      <point x="393" y="321"/>
      <point x="405" y="246"/>
      <point x="437" y="194" type="curve" smooth="yes"/>
      <point x="468" y="141"/>
      <point x="519" y="111"/>
      <point x="598" y="111" type="curve" smooth="yes"/>
      <point x="674" y="111"/>
      <point x="736" y="145"/>
      <point x="779" y="203" type="curve" smooth="yes"/>
      <point x="822" y="261"/>
      <point x="846" y="343"/>
      <point x="846" y="442" type="curve" smooth="yes"/>
      <point x="846" y="1098" type="line"/>
      <point x="1038" y="1098" type="line"/>
      <point x="1038" y="264" type="line" smooth="yes"/>
      <point x="1038" y="204"/>
      <point x="1056" y="159"/>
      <point x="1081" y="130" type="curve" smooth="yes"/>
      <point x="1105" y="101"/>
      <point x="1138" y="86"/>
      <point x="1167" y="86" type="curve" smooth="yes"/>
      <point x="1174" y="86" type="line"/>
      <point x="1174" y="0" type="line"/>
      <point x="1063" y="0" type="line" smooth="yes"/>
      <point x="951" y="0"/>
      <point x="889" y="56"/>
      <point x="864" y="164" type="curve"/>
      <point x="856" y="164" type="line"/>
      <point x="824" y="109"/>
      <point x="789" y="63"/>
      <point x="743" y="31" type="curve" smooth="yes"/>
      <point x="697" y="-1"/>
      <point x="641" y="-20"/>
      <point x="569" y="-20" type="curve" smooth="yes"/>
    </contour>
  </outline>
</glyph>
<glyph name="paragraph" format="1">
  <advance width="1264"/>
  <unicode hex="00B6"/>
  <outline>
    <contour>
      <point x="860" y="1452" type="line"/>
      <point x="666" y="1452" type="line"/>
      <point x="666" y="-227" type="line"/>
      <point x="346" y="-227" type="line"/>
      <point x="346" y="-141" type="line"/>
      <point x="373" y="-141" type="line" smooth="yes"/>
      <point x="420" y="-141"/>
      <point x="462" y="-136"/>
      <point x="492" y="-115" type="curve" smooth="yes"/>
      <point x="522" y="-95"/>
      <point x="541" y="-58"/>
      <point x="541" y="6" type="curve" smooth="yes"/>
      <point x="541" y="791" type="line"/>
      <point x="395" y="791" type="line" smooth="yes"/>
      <point x="275" y="791"/>
      <point x="197" y="838"/>
      <point x="149" y="912" type="curve" smooth="yes"/>
      <point x="101" y="986"/>
      <point x="82" y="1085"/>
      <point x="82" y="1192" type="curve" smooth="yes"/>
      <point x="82" y="1301"/>
      <point x="103" y="1392"/>
      <point x="154" y="1456" type="curve" smooth="yes"/>
      <point x="205" y="1520"/>
      <point x="283" y="1556"/>
      <point x="399" y="1556" type="curve" smooth="yes"/>
      <point x="1180" y="1556" type="line"/>
      <point x="1180" y="1470" type="line"/>
      <point x="1153" y="1470" type="line" smooth="yes"/>
      <point x="1108" y="1470"/>
      <point x="1065" y="1465"/>
      <point x="1035" y="1445" type="curve" smooth="yes"/>
      <point x="1005" y="1424"/>
      <point x="985" y="1387"/>
      <point x="985" y="1323" type="curve" smooth="yes"/>
      <point x="985" y="6" type="line" smooth="yes"/>
      <point x="985" y="-58"/>
      <point x="1005" y="-95"/>
      <point x="1035" y="-115" type="curve" smooth="yes"/>
      <point x="1065" y="-136"/>
      <point x="1108" y="-141"/>
      <point x="1153" y="-141" type="curve" smooth="yes"/>
      <point x="1180" y="-141" type="line"/>
      <point x="1180" y="-227" type="line"/>
      <point x="860" y="-227" type="line"/>
    </contour>
  </outline>
</glyph>
<glyph name="periodcentered" format="1">
  <advance width="586"/>
  <unicode hex="00B7"/>
  <outline>
    <contour>
      <point x="166" y="782"/>
      <point x="180" y="818"/>
      <point x="204" y="839" type="curve" smooth="yes"/>
      <point x="227" y="860"/>
      <point x="259" y="868"/>
      <point x="295" y="868" type="curve" smooth="yes"/>
      <point x="330" y="868"/>
      <point x="362" y="860"/>
      <point x="386" y="839" type="curve" smooth="yes"/>
      <point x="409" y="818"/>
      <point x="424" y="782"/>
      <point x="424" y="729" type="curve" smooth="yes"/>
      <point x="424" y="677"/>
      <point x="409" y="643"/>
      <point x="386" y="621" type="curve" smooth="yes"/>
      <point x="362" y="599"/>
      <point x="330" y="590"/>
      <point x="295" y="590" type="curve" smooth="yes"/>
      <point x="259" y="590"/>
      <point x="227" y="599"/>
      <point x="204" y="621" type="curve" smooth="yes"/>
      <point x="180" y="643"/>
      <point x="166" y="677"/>
      <point x="166" y="729" type="curve" smooth="yes"/>
    </contour>
  </outline>
</glyph>
<glyph name="cedilla" format="1">
  <advance width="682"/>
  <unicode hex="00B8"/>
  <outline>
    <contour>
      <point x="551" y="-403"/>
      <point x="456" y="-492"/>
      <point x="281" y="-492" type="curve" smooth="yes"/>
      <point x="260" y="-492"/>
      <point x="232" y="-490"/>
      <point x="204" y="-486" type="curve" smooth="yes"/>
      <point x="176" y="-482"/>
      <point x="147" y="-476"/>
      <point x="123" y="-469" type="curve"/>
      <point x="123" y="-365" type="line"/>
      <point x="172" y="-376"/>
      <point x="225" y="-381"/>
      <point x="262" y="-381" type="curve" smooth="yes"/>
      <point x="341" y="-381"/>
      <point x="387" y="-337"/>
      <point x="387" y="-266" type="curve" smooth="yes"/>
      <point x="387" y="-186"/>
      <point x="322" y="-148"/>
      <point x="233" y="-141" type="curve"/>
      <point x="276" y="18" type="line"/>
      <point x="373" y="18" type="line"/>
      <point x="352" y="-70" type="line"/>
      <point x="485" y="-81"/>
      <point x="551" y="-150"/>
      <point x="551" y="-258" type="curve" smooth="yes"/>
    </contour>
  </outline>
</glyph>
<glyph name="onesuperior" format="1">
  <advance width="819"/>
  <unicode hex="00B9"/>
  <outline>
    <contour>
      <point x="145" y="588" type="line"/>
      <point x="145" y="657" type="line"/>
      <point x="240" y="657" type="line" smooth="yes"/>
      <point x="264" y="657"/>
      <point x="284" y="659"/>
      <point x="300" y="670" type="curve" smooth="yes"/>
      <point x="315" y="681"/>
      <point x="324" y="700"/>
      <point x="324" y="735" type="curve" smooth="yes"/>
      <point x="324" y="1325" type="line"/>
      <point x="133" y="1325" type="line"/>
      <point x="133" y="1395" type="line"/>
      <point x="236" y="1395" type="line" smooth="yes"/>
      <point x="267" y="1395"/>
      <point x="303" y="1398"/>
      <point x="335" y="1410" type="curve" smooth="yes"/>
      <point x="367" y="1422"/>
      <point x="394" y="1441"/>
      <point x="406" y="1473" type="curve"/>
      <point x="508" y="1473" type="line"/>
      <point x="508" y="735" type="line" smooth="yes"/>
      <point x="508" y="700"/>
      <point x="518" y="681"/>
      <point x="534" y="670" type="curve" smooth="yes"/>
      <point x="549" y="659"/>
      <point x="570" y="657"/>
      <point x="594" y="657" type="curve" smooth="yes"/>
      <point x="688" y="657" type="line"/>
      <point x="688" y="588" type="line"/>
    </contour>
  </outline>
</glyph>
<glyph name="ordmasculine" format="1">
  <advance width="813"/>
  <unicode hex="00BA"/>
  <outline>
    <contour>
      <point x="250" y="949"/>
      <point x="291" y="860"/>
      <point x="408" y="860" type="curve" smooth="yes"/>
      <point x="523" y="860"/>
      <point x="565" y="949"/>
      <point x="565" y="1126" type="curve" smooth="yes"/>
      <point x="565" y="1301"/>
      <point x="521" y="1386"/>
      <point x="406" y="1386" type="curve" smooth="yes"/>
      <point x="291" y="1386"/>
      <point x="250" y="1301"/>
      <point x="250" y="1126" type="curve" smooth="yes"/>
    </contour>
    <contour>
      <point x="741" y="891"/>
      <point x="626" y="778"/>
      <point x="406" y="778" type="curve" smooth="yes"/>
      <point x="195" y="778"/>
      <point x="72" y="893"/>
      <point x="72" y="1126" type="curve" smooth="yes"/>
      <point x="72" y="1361"/>
      <point x="186" y="1473"/>
      <point x="410" y="1473" type="curve" smooth="yes"/>
      <point x="513" y="1473"/>
      <point x="595" y="1444"/>
      <point x="652" y="1387" type="curve" smooth="yes"/>
      <point x="709" y="1330"/>
      <point x="741" y="1243"/>
      <point x="741" y="1126" type="curve" smooth="yes"/>
    </contour>
  </outline>
</glyph>
<glyph name="onequarter" format="1">
  <advance width="1720"/>
  <unicode hex="00BC"/>
  <outline>
    <contour>
      <point x="60" y="588" type="line"/>
      <point x="60" y="657" type="line"/>
      <point x="155" y="657" type="line" smooth="yes"/>
      <point x="179" y="657"/>
      <point x="199" y="659"/>
      <point x="215" y="670" type="curve" smooth="yes"/>
      <point x="230" y="681"/>
      <point x="239" y="700"/>
      <point x="239" y="735" type="curve" smooth="yes"/>
      <point x="239" y="1325" type="line"/>
      <point x="48" y="1325" type="line"/>
      <point x="48" y="1395" type="line"/>
      <point x="151" y="1395" type="line" smooth="yes"/>
      <point x="182" y="1395"/>
      <point x="218" y="1398"/>
      <point x="250" y="1410" type="curve" smooth="yes"/>
      <point x="282" y="1422"/>
      <point x="309" y="1441"/>
      <point x="321" y="1473" type="curve"/>
      <point x="423" y="1473" type="line"/>
      <point x="423" y="735" type="line" smooth="yes"/>
      <point x="423" y="700"/>
      <point x="433" y="681"/>
      <point x="449" y="670" type="curve" smooth="yes"/>
      <point x="464" y="659"/>
      <point x="485" y="657"/>
      <point x="509" y="657" type="curve" smooth="yes"/>
      <point x="603" y="657" type="line"/>
      <point x="603" y="588" type="line"/>
    </contour>
    <contour>
      <point x="566" y="0" type="line"/>
      <point x="430" y="0" type="line"/>
      <point x="1161" y="1462" type="line"/>
      <point x="1295" y="1462" type="line"/>
    </contour>
    <contour>
      <point x="1477" y="261" type="line"/>
      <point x="1477" y="148" type="line" smooth="yes"/>
      <point x="1477" y="113"/>
      <point x="1487" y="94"/>
      <point x="1503" y="83" type="curve" smooth="yes"/>
      <point x="1519" y="72"/>
      <point x="1540" y="70"/>
      <point x="1563" y="70" type="curve" smooth="yes"/>
      <point x="1604" y="70" type="line"/>
      <point x="1604" y="1" type="line"/>
      <point x="1153" y="1" type="line"/>
      <point x="1153" y="70" type="line"/>
      <point x="1210" y="70" type="line" smooth="yes"/>
      <point x="1233" y="70"/>
      <point x="1253" y="72"/>
      <point x="1269" y="83" type="curve" smooth="yes"/>
      <point x="1284" y="94"/>
      <point x="1294" y="113"/>
      <point x="1294" y="148" type="curve" smooth="yes"/>
      <point x="1294" y="261" type="line"/>
      <point x="930" y="261" type="line"/>
      <point x="930" y="322" type="line"/>
      <point x="1313" y="886" type="line"/>
      <point x="1477" y="886" type="line"/>
      <point x="1477" y="349" type="line"/>
      <point x="1673" y="349" type="line"/>
      <point x="1673" y="261" type="line"/>
    </contour>
    <contour>
      <point x="1294" y="580" type="line" smooth="yes"/>
      <point x="1294" y="623"/>
      <point x="1298" y="681"/>
      <point x="1305" y="732" type="curve"/>
      <point x="1294" y="709"/>
      <point x="1281" y="684"/>
      <point x="1274" y="673" type="curve"/>
      <point x="1051" y="349" type="line"/>
      <point x="1294" y="349" type="line"/>
    </contour>
  </outline>
</glyph>
<glyph name="onehalf" format="1">
  <advance width="1720"/>
  <unicode hex="00BD"/>
  <outline>
    <contour>
      <point x="60" y="588" type="line"/>
      <point x="60" y="657" type="line"/>
      <point x="155" y="657" type="line" smooth="yes"/>
      <point x="179" y="657"/>
      <point x="199" y="659"/>
      <point x="215" y="670" type="curve" smooth="yes"/>
      <point x="230" y="681"/>
      <point x="239" y="700"/>
      <point x="239" y="735" type="curve" smooth="yes"/>
      <point x="239" y="1325" type="line"/>
      <point x="48" y="1325" type="line"/>
      <point x="48" y="1395" type="line"/>
      <point x="151" y="1395" type="line" smooth="yes"/>
      <point x="182" y="1395"/>
      <point x="218" y="1398"/>
      <point x="250" y="1410" type="curve" smooth="yes"/>
      <point x="282" y="1422"/>
      <point x="309" y="1441"/>
      <point x="321" y="1473" type="curve"/>
      <point x="423" y="1473" type="line"/>
      <point x="423" y="735" type="line" smooth="yes"/>
      <point x="423" y="700"/>
      <point x="433" y="681"/>
      <point x="449" y="670" type="curve" smooth="yes"/>
      <point x="464" y="659"/>
      <point x="485" y="657"/>
      <point x="509" y="657" type="curve" smooth="yes"/>
      <point x="603" y="657" type="line"/>
      <point x="603" y="588" type="line"/>
    </contour>
    <contour>
      <point x="525" y="0" type="line"/>
      <point x="389" y="0" type="line"/>
      <point x="1120" y="1462" type="line"/>
      <point x="1254" y="1462" type="line"/>
    </contour>
    <contour>
      <point x="1620" y="613"/>
      <point x="1607" y="559"/>
      <point x="1572" y="503" type="curve" smooth="yes"/>
      <point x="1537" y="447"/>
      <point x="1482" y="389"/>
      <point x="1397" y="316" type="curve" smooth="yes"/>
      <point x="1180" y="130" type="line"/>
      <point x="1477" y="130" type="line" smooth="yes"/>
      <point x="1540" y="130"/>
      <point x="1559" y="169"/>
      <point x="1567" y="214" type="curve" smooth="yes"/>
      <point x="1575" y="257" type="line"/>
      <point x="1645" y="257" type="line"/>
      <point x="1639" y="1" type="line"/>
      <point x="1016" y="1" type="line"/>
      <point x="1016" y="93" type="line"/>
      <point x="1276" y="326" type="line" smooth="yes"/>
      <point x="1336" y="381"/>
      <point x="1377" y="437"/>
      <point x="1402" y="494" type="curve" smooth="yes"/>
      <point x="1426" y="550"/>
      <point x="1436" y="607"/>
      <point x="1436" y="660" type="curve" smooth="yes"/>
      <point x="1436" y="705"/>
      <point x="1428" y="744"/>
      <point x="1409" y="772" type="curve" smooth="yes"/>
      <point x="1389" y="800"/>
      <point x="1359" y="816"/>
      <point x="1315" y="816" type="curve" smooth="yes"/>
      <point x="1266" y="816"/>
      <point x="1231" y="795"/>
      <point x="1210" y="763" type="curve" smooth="yes"/>
      <point x="1189" y="730"/>
      <point x="1180" y="685"/>
      <point x="1180" y="638" type="curve"/>
      <point x="1088" y="638"/>
      <point x="1032" y="654"/>
      <point x="1032" y="726" type="curve" smooth="yes"/>
      <point x="1032" y="775"/>
      <point x="1056" y="818"/>
      <point x="1104" y="849" type="curve" smooth="yes"/>
      <point x="1151" y="880"/>
      <point x="1222" y="898"/>
      <point x="1315" y="898" type="curve" smooth="yes"/>
      <point x="1506" y="898"/>
      <point x="1620" y="821"/>
      <point x="1620" y="677" type="curve" smooth="yes"/>
    </contour>
  </outline>
</glyph>
